<?xml version="1.0" encoding="utf-8"?>
<!-- Generator: Adobe Illustrator 18.1.1, SVG Export Plug-In . SVG Version: 6.00 Build 0)  -->
<svg version="1.1" id="Layer_1" xmlns="http://www.w3.org/2000/svg" xmlns:xlink="http://www.w3.org/1999/xlink" x="0px" y="0px"
	 viewBox="0 0 1000 1099.5" enable-background="new 0 0 1000 1099.5" xml:space="preserve">
<g>
	<g>
		<g opacity="0.41">
			<g>
				<g>
					<path fill="#E2E1F1" d="M941.2,600.8c0.8-14.3,0.5-28.7-1.2-43c-7.6-67-42-130.2-92.5-174.7c-18-15.9-38.6-30.1-50.3-51.1
						c-19.8-35.3-18.3-76-42.8-110.9c-24.6-34.9-60.4-62.2-100.8-76.2c-120.4-41.7-289,26.2-273.8,171.3c0.1,0.5,0.1,1.3,0.2,2.2
						c2,30.1-21.6,55.5-51.7,56.2c-111.1,2.6-206.7,88.3-227.2,196.8c-13.2,69.8,8.4,146.3,59.4,195.6c38.1,36.8,89.2,57.1,140.4,71
						C403.3,866,511.2,871.8,617,861.1c99-10,203.4-38.4,267.4-114.6C918.5,705.9,938.1,653.8,941.2,600.8z"/>
				</g>
			</g>
		</g>
		<g opacity="0.31">
			<circle fill="#E2E1F1" cx="432.3" cy="108.7" r="25.8"/>
		</g>
		<g opacity="0.31">
			<circle fill="#E2E1F1" cx="923.4" cy="411.1" r="13.3"/>
		</g>
		<g opacity="0.31">
			<circle fill="#E2E1F1" cx="310.7" cy="166.5" r="17.9"/>
		</g>
		<g opacity="0.31">
			<circle fill="#E2E1F1" cx="104.6" cy="814.7" r="40.7"/>
		</g>
	</g>
</g>
<g>
	<g>
		<path opacity="0.47" fill="#EDF1F7" d="M936.6,205.1c11.6-22.6,2.7-50.3-19.9-61.9c-22.6-11.6-66-10.7-77.6,11.9
			c-11.6,22.6,23.2,42,37.4,63.1C896.2,247.5,925,227.7,936.6,205.1z"/>
		<path opacity="0.47" fill="#E2E1F1" d="M832,877.7c16.3,10.6,38.2,5.9,48.7-10.5c10.6-16.3,13.2-49.5-3.2-60.1
			s-33.8,14.5-50.9,23.7C802.7,843.7,815.6,867.2,832,877.7z"/>
		<path opacity="0.47" fill="#E2E1F1" d="M164.6,79.5c-18-16.7-46.1-15.7-62.8,2.3c-16.7,18-27.3,58.6-9.3,75.3
			c18,16.7,45.1-10.6,68.4-18.3C193.5,128.2,182.6,96.2,164.6,79.5z"/>
	</g>
	<g>
		<path opacity="0.47" fill="#E2E1F1" d="M892.4,704.8c15.9-34.1,22.2-71.9,14-111.9c-9-44.1-36.5-78-27-125
			c5.8-28.7,7.3-55.2,10.2-83.6c6-58.2-31.8-109.5-78.7-137.2c-38.1-22.5-82.7-30.9-126.5-30.3c-39.4,0.5-78.8,7.8-116.9,17.6
			c-36.8,9.4-72.8,21.9-111.4,17.9c-32.1-3.3-61-17.1-90.9-27.5c-71.3-24.7-157.8-28.2-223,9.4c-41.9,24.1-71.2,63.3-84.2,105.4
			c-10.4,33.7-11.7,65.1-3.9,99.5c7.2,31.8,18.4,63,18.1,96c-0.3,33.7-17.7,63.7-10.8,98.4c4.8,24.5,19.5,46,36.5,64.3
			c46.7,50.4,112,80.8,179.2,95.3c89.4,19.3,180.6,0.9,269.2,20.1c58.1,12.6,115.7,36.9,176.2,27.4c37.8-5.9,73-24.4,102.1-49.3
			C853.1,766.9,877.2,737.6,892.4,704.8z"/>
		<g>
			<path opacity="0.81" fill="#E2E1F1" d="M810.8,651.2c2.5-27.8-6.9-56.4,0.9-84c9.4-33,36.5-57.6,47.6-90
				c16.4-47.8,15.6-101.4-4.3-148c-9.6-22.5-23.6-43.3-42.7-57.7c-29.4-22.2-68-27.1-104.3-24.3c-54,4.2-111,27.6-165.2,21.2
				c-30-3.5-39.1-35.9-54.6-57.3c-17.5-24.2-41.3-43.2-67.7-55.8c-48.5-23.3-106.8-25.5-156.3-4.4c-52.9,22.5-99.1,77.6-96.1,139.9
				c1.4,28.8,12.9,57.4,7.6,85.7c-6.7,35.5-33.5,67.9-52.9,96.8c-21.4,32-34.4,70.1-36.9,109c0,0.4-0.1,0.9-0.1,1.3
				c-4,67.1,38.3,128.3,102.2,149.3c0,0,135.8,44.7,135.9,44.7c137.8,45.3,275.6,43.8,402.3-22.7c27.4-14.4,72.1-57.3,81.3-86.9
				C809.3,662.5,810.3,656.8,810.8,651.2z"/>
		</g>
	</g>
</g>
<circle opacity="0.58" fill="#3F499C" cx="919.4" cy="765.9" r="8.8"/>
<circle opacity="0.58" fill="#3F499C" cx="515.1" cy="83.9" r="8.8"/>
<path opacity="0.58" fill="#3F499C" d="M205.9,840.8c6,9-3.7,18.6-12.6,12.6c-0.4-0.3-0.8-0.7-1.1-1.1c-6-9,3.7-18.6,12.6-12.6
	C205.2,840,205.6,840.4,205.9,840.8z"/>
<circle opacity="0.58" fill="#EF929D" cx="751.3" cy="883.4" r="6.8"/>
<path opacity="0.58" fill="#EF929D" d="M896.1,912.8c6,9-3.7,18.6-12.6,12.6c-0.4-0.3-0.8-0.7-1.1-1.1c-6-9,3.7-18.6,12.6-12.6
	C895.4,911.9,895.8,912.3,896.1,912.8z"/>
<circle opacity="0.58" fill="#3F499C" cx="158.5" cy="184.4" r="2.9"/>
<circle opacity="0.58" fill="#EF929D" cx="771.4" cy="143.7" r="10.5"/>
<circle opacity="0.58" fill="#EF929D" cx="216.1" cy="92.6" r="4.1"/>
<circle opacity="0.58" fill="#3F499C" cx="873.5" cy="79.6" r="3.5"/>
<path opacity="0.58" fill="#3F499C" d="M135.7,913.4c1.5,4-3,6.9-6,3.9c-0.2-0.2-0.3-0.4-0.4-0.7c-1.5-4,3-6.9,6-3.9
	C135.5,912.9,135.6,913.2,135.7,913.4z"/>
<g>
	<g opacity="0.73">
		<g>
			<path fill="#FFFFFF" d="M258.7,410.9c-1,0-1.9-0.1-2.9-0.4l-16.3-4.5c-5.7-1.6-9.1-7.5-7.6-13.3l5.5-20
				c-10-5.2-18.8-12-26.3-20.4l-18,10.2c-2.5,1.4-5.4,1.8-8.2,1c-2.8-0.8-5.1-2.6-6.5-5.1l-8.4-14.7c-3-5.2-1.1-11.8,4-14.7l18-10.2
				c-3.4-10.7-4.8-21.8-4.2-33l-20-5.5c-5.7-1.6-9.1-7.5-7.6-13.3l4.5-16.3c1.6-5.7,7.5-9.1,13.3-7.6l20,5.5
				c5.2-10,12-18.8,20.4-26.3l-10.2-18c-1.4-2.5-1.8-5.4-1-8.2c0.8-2.8,2.6-5.1,5.1-6.5l14.7-8.4c5.2-3,11.8-1.1,14.7,4l10.2,18
				c10.7-3.4,21.8-4.8,33-4.2l5.5-20c1.6-5.7,7.5-9.1,13.3-7.6l16.3,4.5c5.7,1.6,9.1,7.5,7.6,13.3l-5.5,20c10,5.2,18.8,12,26.3,20.4
				l18-10.2c2.5-1.4,5.4-1.8,8.2-1c2.8,0.8,5.1,2.6,6.5,5.1l8.4,14.7c1.4,2.5,1.8,5.4,1,8.2c-0.8,2.8-2.6,5.1-5.1,6.5l-18,10.2
				c3.4,10.7,4.8,21.8,4.2,33l20,5.5c2.8,0.8,5.1,2.6,6.5,5.1c1.4,2.5,1.8,5.4,1,8.2l-4.5,16.3c-1.6,5.7-7.5,9.1-13.3,7.6l-20-5.5
				c-5.2,10-12,18.8-20.4,26.3l10.2,18c1.4,2.5,1.8,5.4,1,8.2c-0.8,2.8-2.6,5.1-5.1,6.5l-14.7,8.4c-2.5,1.4-5.4,1.8-8.2,1
				c-2.8-0.8-5.1-2.6-6.5-5.1l-10.2-18c-10.7,3.4-21.8,4.8-33,4.2l-5.5,20c-0.8,2.8-2.6,5.1-5.1,6.5
				C262.4,410.4,260.6,410.9,258.7,410.9z M212.4,345l1.6,1.9c7.8,9.2,17.3,16.6,28.2,21.8l2.2,1.1l-6.7,24.6
				c-0.4,1.3-0.2,2.6,0.5,3.8c0.7,1.2,1.7,2,3,2.3l16.3,4.5c1.3,0.4,2.6,0.2,3.8-0.5c1.2-0.7,2-1.7,2.3-3l6.7-24.6l2.4,0.2
				c12,1,23.9-0.5,35.4-4.5l2.3-0.8l12.6,22.1c0.7,1.2,1.7,2,3,2.3c1.3,0.4,2.6,0.2,3.8-0.5l14.7-8.4c1.2-0.7,2-1.7,2.3-3
				c0.4-1.3,0.2-2.6-0.5-3.8l-12.6-22.2l1.9-1.6c9.2-7.8,16.6-17.3,21.8-28.2l1.1-2.2l24.6,6.7c2.6,0.7,5.4-0.8,6.1-3.5l4.5-16.3
				c0.4-1.3,0.2-2.6-0.5-3.8c-0.7-1.2-1.7-2-3-2.3l-24.6-6.7l0.2-2.4c1-12-0.5-23.9-4.5-35.4l-0.8-2.3l22.2-12.6
				c1.2-0.7,2-1.7,2.3-3c0.4-1.3,0.2-2.6-0.5-3.8l-8.4-14.7c-0.7-1.2-1.7-2-3-2.3c-1.3-0.4-2.6-0.2-3.8,0.5l-22.1,12.6l-1.6-1.9
				c-7.8-9.2-17.3-16.6-28.2-21.8l-2.2-1.1l6.7-24.6c0.4-1.3,0.2-2.6-0.5-3.8c-0.7-1.2-1.7-2-3-2.3l-16.3-4.5
				c-2.6-0.7-5.4,0.8-6.1,3.5l-6.7,24.6l-2.4-0.2c-12.1-1-23.9,0.5-35.4,4.5l-2.3,0.8l-12.6-22.2c-0.7-1.2-1.7-2-3-2.3
				c-1.3-0.3-2.6-0.2-3.8,0.5l-14.7,8.4c-1.2,0.7-2,1.7-2.3,3c-0.4,1.3-0.2,2.6,0.5,3.8l12.6,22.1l-1.9,1.6
				c-9.2,7.8-16.6,17.3-21.8,28.2l-1.1,2.2l-24.6-6.7c-1.3-0.3-2.6-0.2-3.8,0.5c-1.2,0.7-2,1.7-2.3,3l-4.5,16.3
				c-0.4,1.3-0.2,2.6,0.5,3.8c0.7,1.2,1.7,2,3,2.3l24.6,6.7l-0.2,2.4c-1,12,0.5,23.9,4.5,35.4l0.8,2.3l-22.1,12.6
				c-1.2,0.7-2,1.7-2.3,3c-0.4,1.3-0.2,2.6,0.5,3.8l8.4,14.7c0.7,1.2,1.7,2,3,2.3c1.3,0.4,2.6,0.2,3.8-0.5L212.4,345z M279.8,339.8
				c-4.3,0-8.7-0.6-12.9-1.7l0,0c-12.6-3.4-23-11.6-29.5-22.9c-6.4-11.3-8.1-24.4-4.7-37c3.4-12.6,11.6-23,22.9-29.5
				c11.3-6.4,24.4-8.1,37-4.7c12.6,3.4,23,11.6,29.5,22.9c6.4,11.3,8.1,24.4,4.7,37s-11.6,23-22.9,29.5
				C296.4,337.7,288.2,339.8,279.8,339.8z M279.7,248.2c-7.4,0-14.6,1.9-21.2,5.7c-10,5.7-17.1,14.9-20.1,25.9
				c-3,11-1.6,22.6,4.1,32.6c5.7,10,14.9,17.1,25.9,20.1c11,3,22.6,1.6,32.6-4.1c10-5.7,17.1-14.9,20.1-25.9c3-11,1.6-22.6-4.1-32.6
				c-5.7-10-14.9-17.1-25.9-20.1C287.3,248.7,283.5,248.2,279.7,248.2z"/>
		</g>
	</g>
	<g opacity="0.69">
		<path fill="#FFFFFF" d="M731.6,358.3l-110,2c-3.2,0.1-5.8-2-5.8-4.5l-1.3-73.1c0-2.5,2.5-4.6,5.7-4.7l110-2c3.2-0.1,5.8,2,5.8,4.5
			l1.3,73.1C737.3,356.1,734.8,358.2,731.6,358.3z M620.1,279.4c-2.4,0-4.4,1.5-4.3,3.3l1.3,73.1c0,1.8,2,3.2,4.5,3.1l110-2
			c2.4,0,4.4-1.5,4.3-3.3l-1.3-73.1c0-1.8-2-3.2-4.5-3.1L620.1,279.4z"/>
		
			<rect x="615.3" y="292" transform="matrix(0.9998 -1.815589e-002 1.815589e-002 0.9998 -5.2021 12.3036)" fill="#FFFFFF" width="119.5" height="1.4"/>
		<path fill="#FFFFFF" d="M623.9,289.4c-1.4,0-2.6-1.1-2.6-2.5c0-1.4,1.1-2.6,2.5-2.6c1.4,0,2.6,1.1,2.6,2.5
			C626.4,288.2,625.3,289.3,623.9,289.4z M623.8,285.6c-0.7,0-1.2,0.6-1.2,1.2c0,0.7,0.6,1.2,1.2,1.2c0.7,0,1.2-0.6,1.2-1.2
			C625,286.1,624.5,285.6,623.8,285.6z"/>
		<path fill="#FFFFFF" d="M631,289.2c-1.4,0-2.6-1.1-2.6-2.5c0-1.4,1.1-2.6,2.5-2.6c1.4,0,2.6,1.1,2.6,2.5
			C633.5,288,632.4,289.2,631,289.2z M630.9,285.5c-0.7,0-1.2,0.6-1.2,1.2c0,0.7,0.6,1.2,1.2,1.2c0.7,0,1.2-0.6,1.2-1.2
			C632.1,286,631.6,285.5,630.9,285.5z"/>
		<path fill="#FFFFFF" d="M637.9,289.1c-1.4,0-2.6-1.1-2.6-2.5c0-1.4,1.1-2.6,2.5-2.6c1.4,0,2.6,1.1,2.6,2.5
			C640.5,287.9,639.3,289.1,637.9,289.1z M637.9,285.3c-0.7,0-1.2,0.6-1.2,1.2c0,0.7,0.6,1.2,1.2,1.2c0.7,0,1.2-0.6,1.2-1.2
			C639.1,285.9,638.5,285.3,637.9,285.3z"/>
	</g>
	<g opacity="0.69">
		<path fill="#FFFFFF" d="M362.3,794.9l-110,2c-3.2,0.1-5.8-2-5.8-4.5l-1.3-73.1c0-2.5,2.5-4.6,5.7-4.7l110-2c3.2-0.1,5.8,2,5.8,4.5
			l1.3,73.1C368.1,792.8,365.5,794.9,362.3,794.9z M250.8,716.1c-2.4,0-4.4,1.5-4.3,3.3l1.3,73.1c0,1.8,2,3.2,4.5,3.1l110-2
			c2.4,0,4.4-1.5,4.3-3.3l-1.3-73.1c0-1.8-2-3.2-4.5-3.1L250.8,716.1z"/>
		
			<rect x="246" y="728.6" transform="matrix(0.9998 -1.815592e-002 1.815592e-002 0.9998 -13.1906 5.6714)" fill="#FFFFFF" width="119.5" height="1.4"/>
		<path fill="#FFFFFF" d="M254.6,726c-1.4,0-2.6-1.1-2.6-2.5c0-1.4,1.1-2.6,2.5-2.6c1.4,0,2.6,1.1,2.6,2.5
			C257.2,724.8,256,726,254.6,726z M254.5,722.2c-0.7,0-1.2,0.6-1.2,1.2c0,0.7,0.6,1.2,1.2,1.2c0.7,0,1.2-0.6,1.2-1.2
			C255.8,722.8,255.2,722.2,254.5,722.2z"/>
		<path fill="#FFFFFF" d="M261.7,725.9c-1.4,0-2.6-1.1-2.6-2.5c0-1.4,1.1-2.6,2.5-2.6c1.4,0,2.6,1.1,2.6,2.5
			C264.3,724.7,263.1,725.9,261.7,725.9z M261.6,722.1c-0.7,0-1.2,0.6-1.2,1.2c0,0.7,0.6,1.2,1.2,1.2c0.7,0,1.2-0.6,1.2-1.2
			C262.9,722.6,262.3,722.1,261.6,722.1z"/>
		<path fill="#FFFFFF" d="M268.7,725.8c-1.4,0-2.6-1.1-2.6-2.5c0-1.4,1.1-2.6,2.5-2.6c1.4,0,2.6,1.1,2.6,2.5
			C271.2,724.6,270.1,725.7,268.7,725.8z M268.6,722c-0.7,0-1.2,0.6-1.2,1.2c0,0.7,0.6,1.2,1.2,1.2c0.7,0,1.2-0.6,1.2-1.2
			C269.8,722.5,269.3,722,268.6,722z"/>
	</g>
	<g opacity="0.55">
		<g>
			<path fill="#FFFFFF" d="M819.5,588.3l-11.4-9.1c3.8-7.1,5.9-14.7,6.5-22.4l14.5-1.6c2.7-0.3,4.7-2.8,4.4-5.5l-1.2-10.6
				c-0.3-2.7-2.8-4.7-5.5-4.4l-14.5,1.6c-2.2-7.4-6-14.3-11.2-20.4l9.1-11.4c1.7-2.1,1.4-5.3-0.8-7l-8.4-6.7c-2.1-1.7-5.3-1.4-7,0.8
				l-9.1,11.4c-7.1-3.8-14.7-5.9-22.4-6.5l-1.6-14.5c-0.3-2.7-2.8-4.7-5.5-4.4l-10.6,1.2c-2.7,0.3-4.7,2.8-4.4,5.5l1.6,14.5
				c-7.4,2.2-14.3,6-20.4,11.2l-11.4-9.1c-2.1-1.7-5.3-1.4-7,0.8l-6.7,8.4c-1.7,2.1-1.4,5.3,0.8,7l11.4,9.1
				c-3.8,7.1-5.9,14.7-6.5,22.4l-14.5,1.6c-2.7,0.3-4.7,2.8-4.4,5.5l1.2,10.6c0.3,2.7,2.8,4.7,5.5,4.4l14.5-1.6
				c2.2,7.4,6,14.3,11.2,20.4l-9.1,11.4c-1.7,2.1-1.4,5.3,0.8,7l8.4,6.7c2.1,1.7,5.3,1.4,7-0.8l9.1-11.4c7.1,3.8,14.7,5.9,22.4,6.5
				l1.6,14.5c0.3,2.7,2.8,4.7,5.5,4.4l10.6-1.2c2.7-0.3,4.7-2.8,4.4-5.5l-1.6-14.5c7.4-2.2,14.3-6,20.4-11.2l11.4,9.1
				c2.1,1.7,5.3,1.4,7-0.8l6.7-8.4C822,593.1,821.6,590,819.5,588.3z M740.3,575.1c-12.5-10-14.5-28.2-4.5-40.7
				c10-12.5,28.2-14.5,40.7-4.5c12.5,10,14.5,28.2,4.5,40.7C771,583.1,752.8,585.2,740.3,575.1z"/>
			<path fill="#FFFFFF" d="M760.7,628.7c-1.3,0-2.6-0.5-3.7-1.3c-1.2-1-2-2.4-2.2-4l-1.5-13.7c-7.5-0.7-14.6-2.7-21.2-6.2l-8.6,10.8
				c-1,1.2-2.4,2-4,2.2c-1.6,0.2-3.1-0.3-4.4-1.3l-8.4-6.7c-1.2-1-2-2.4-2.2-4c-0.2-1.6,0.3-3.1,1.3-4.4l8.6-10.8
				c-4.8-5.7-8.4-12.2-10.6-19.4l-13.7,1.5c-1.6,0.2-3.1-0.3-4.4-1.3c-1.2-1-2-2.4-2.2-4l-1.2-10.6c-0.2-1.6,0.3-3.1,1.3-4.4
				c1-1.2,2.4-2,4-2.2l13.7-1.5c0.7-7.5,2.7-14.6,6.2-21.2l-10.8-8.6c-1.2-1-2-2.4-2.2-4c-0.2-1.6,0.3-3.1,1.3-4.4l6.7-8.4
				c1-1.2,2.4-2,4-2.2c1.6-0.2,3.1,0.3,4.4,1.3l10.8,8.6c5.7-4.8,12.2-8.4,19.4-10.6l-1.5-13.7c-0.4-3.3,2-6.2,5.3-6.6l10.6-1.2
				c3.3-0.3,6.2,2,6.6,5.3l1.5,13.7c7.4,0.7,14.6,2.7,21.2,6.2l8.6-10.8c2.1-2.6,5.8-3,8.4-0.9l8.4,6.7c1.2,1,2,2.4,2.2,4
				c0.2,1.6-0.3,3.1-1.3,4.4l-8.6,10.8c4.8,5.7,8.4,12.2,10.6,19.4l13.7-1.5c1.6-0.2,3.1,0.3,4.4,1.3c1.2,1,2,2.4,2.2,4l1.2,10.6
				c0.2,1.6-0.3,3.1-1.3,4.4c-1,1.2-2.4,2-4,2.2l-13.7,1.5c-0.7,7.5-2.7,14.6-6.2,21.2l10.8,8.6c1.2,1,2,2.4,2.2,4
				c0.2,1.6-0.3,3.1-1.3,4.4l-6.7,8.4c-2.1,2.6-5.8,3-8.4,0.9l-10.8-8.6c-5.7,4.8-12.2,8.4-19.4,10.6l1.5,13.7
				c0.2,1.6-0.3,3.1-1.3,4.4c-1,1.2-2.4,2-4,2.2l-10.6,1.2C761.2,628.7,761,628.7,760.7,628.7z M731.6,601l0.7,0.4
				c6.8,3.7,14.2,5.8,22,6.4l0.8,0.1l1.7,15.3c0.1,1.1,0.6,2,1.5,2.7c0.8,0.7,1.9,1,3,0.9l10.6-1.2c1.1-0.1,2-0.6,2.7-1.5
				c0.7-0.8,1-1.9,0.9-3l-1.7-15.3l0.8-0.2c7.4-2.2,14.2-6,20.1-11l0.6-0.5l12,9.6c1.7,1.4,4.3,1.1,5.6-0.6l6.7-8.4
				c0.7-0.8,1-1.9,0.9-3c-0.1-1.1-0.6-2-1.5-2.7v0l-12-9.6l0.4-0.7c3.7-6.8,5.8-14.2,6.4-22l0.1-0.8l15.3-1.7c1.1-0.1,2-0.6,2.7-1.5
				c0.7-0.8,1-1.9,0.9-3l-1.2-10.6c-0.1-1.1-0.6-2-1.5-2.7c-0.8-0.7-1.9-1-3-0.9l-15.3,1.7l-0.2-0.8c-2.2-7.4-6-14.2-11-20.1
				l-0.5-0.6l9.6-12c0.7-0.8,1-1.9,0.9-3c-0.1-1.1-0.6-2-1.5-2.7l-8.4-6.7c-1.7-1.4-4.3-1.1-5.6,0.6l-9.6,12l-0.7-0.4
				c-6.8-3.7-14.2-5.8-22-6.4l-0.8-0.1l-1.7-15.3c-0.2-2.2-2.2-3.8-4.4-3.6l-10.6,1.2c-1.1,0.1-2,0.6-2.7,1.5c-0.7,0.8-1,1.9-0.9,3
				l1.7,15.3l-0.8,0.2c-7.4,2.2-14.2,6-20.1,11l-0.6,0.5l-12-9.6c-0.8-0.7-1.9-1-3-0.9c-1.1,0.1-2,0.6-2.7,1.5l-6.7,8.4
				c-0.7,0.8-1,1.9-0.9,3c0.1,1.1,0.6,2,1.5,2.7l12,9.6l-0.4,0.7c-3.7,6.8-5.8,14.2-6.4,22l-0.1,0.8l-15.3,1.7
				c-1.1,0.1-2,0.6-2.7,1.5c-0.7,0.8-1,1.9-0.9,3l1.2,10.6c0.1,1.1,0.6,2,1.5,2.7c0.8,0.7,1.9,1,3,0.9l15.3-1.7l0.2,0.8
				c2.2,7.4,6,14.2,11,20.1l0.5,0.6l-9.6,12c-0.7,0.8-1,1.9-0.9,3c0.1,1.1,0.6,2,1.5,2.7l8.4,6.7c0.8,0.7,1.9,1,3,0.9
				c1.1-0.1,2-0.6,2.7-1.5L731.6,601z M758.4,582.5c-6.6,0-13.2-2.1-18.7-6.6c-6.2-5-10.2-12.1-11-20.1c-0.9-7.9,1.4-15.8,6.4-22
				c5-6.2,12.1-10.2,20.1-11c8-0.9,15.8,1.4,22,6.4c12.9,10.3,15,29.2,4.6,42.1C775.9,578.6,767.2,582.5,758.4,582.5z M758.5,524.6
				c-1,0-2.1,0.1-3.1,0.2c-7.4,0.8-14.1,4.5-18.8,10.3c-9.7,12-7.7,29.7,4.3,39.3c12,9.7,29.7,7.7,39.3-4.3
				c9.6-12,7.7-29.7-4.3-39.3C770.9,526.7,764.8,524.6,758.5,524.6z"/>
		</g>
	</g>
	<g opacity="0.38">
		<path fill="#FFFFFF" d="M892,674.7H781.9c-1.9,0-3.4-1.8-3.4-4.1v-40.5c0-2.3,1.5-4.1,3.4-4.1H892c1.9,0,3.4,1.8,3.4,4.1v40.5
			C895.5,672.8,893.9,674.7,892,674.7z M781.9,627.9c-0.8,0-1.5,1-1.5,2.2v40.5c0,1.2,0.7,2.2,1.5,2.2H892c0.8,0,1.5-1,1.5-2.2
			v-40.5c0-1.2-0.7-2.2-1.5-2.2H781.9z"/>
		<g>
			<rect x="801.2" y="641.6" fill="#FFFFFF" width="74.5" height="1.9"/>
			<path fill="#FFFFFF" d="M875.7,644.5h-74.5c-1.1,0-1.9-0.9-1.9-1.9c0-1.1,0.9-1.9,1.9-1.9h74.5c1.1,0,1.9,0.9,1.9,1.9
				C877.6,643.7,876.8,644.5,875.7,644.5z M875.7,642.6v1V642.6L875.7,642.6z"/>
		</g>
		<g>
			<rect x="801.2" y="650.5" fill="#FFFFFF" width="33.3" height="1.9"/>
			<path fill="#FFFFFF" d="M834.5,653.4h-33.3c-1.1,0-1.9-0.9-1.9-1.9c0-1.1,0.9-1.9,1.9-1.9h33.3c1.1,0,1.9,0.9,1.9,1.9
				C836.4,652.5,835.5,653.4,834.5,653.4z M834.5,651.4v1V651.4L834.5,651.4z"/>
		</g>
		<g>
			<rect x="842.4" y="650.5" fill="#FFFFFF" width="33.3" height="1.9"/>
			<path fill="#FFFFFF" d="M875.7,653.4h-33.3c-1.1,0-1.9-0.9-1.9-1.9c0-1.1,0.9-1.9,1.9-1.9h33.3c1.1,0,1.9,0.9,1.9,1.9
				C877.6,652.5,876.8,653.4,875.7,653.4z M875.7,651.4v1V651.4L875.7,651.4z"/>
		</g>
		<g>
			<rect x="801.2" y="659.7" fill="#FFFFFF" width="74.5" height="1.9"/>
			<path fill="#FFFFFF" d="M875.7,662.6h-74.5c-1.1,0-1.9-0.9-1.9-1.9c0-1.1,0.9-1.9,1.9-1.9h74.5c1.1,0,1.9,0.9,1.9,1.9
				C877.6,661.8,876.8,662.6,875.7,662.6z M875.7,660.7v1V660.7L875.7,660.7z"/>
		</g>
	</g>
	<g opacity="0.55">
		<path fill="#FFFFFF" d="M585.5,854.8c-1.5,0-3-0.5-4.2-1.5c-1.4-1.1-2.3-2.7-2.5-4.5l-1.4-12.4c-6.8-0.7-13.3-2.6-19.3-5.6
			l-7.8,9.8c-2.3,2.9-6.6,3.4-9.5,1l-8.1-6.5c-1.4-1.1-2.3-2.7-2.5-4.5c-0.2-1.8,0.3-3.6,1.4-5l7.8-9.8c-4.3-5.3-7.6-11.2-9.7-17.6
			l-12.4,1.4c-3.7,0.4-7.1-2.3-7.5-6l-1.1-10.3c-0.4-3.7,2.3-7.1,6-7.5l12.4-1.4c0.7-6.8,2.6-13.3,5.6-19.3l-9.8-7.8
			c-2.9-2.3-3.4-6.6-1-9.5l6.5-8.1c1.1-1.4,2.7-2.3,4.5-2.5c1.8-0.2,3.6,0.3,5,1.4l9.8,7.8c5.3-4.3,11.2-7.6,17.6-9.7l-1.4-12.4
			c-0.2-1.8,0.3-3.6,1.4-5c1.1-1.4,2.7-2.3,4.5-2.5l10.3-1.1c1.8-0.2,3.6,0.3,5,1.4c1.4,1.1,2.3,2.7,2.5,4.5l1.4,12.4
			c6.8,0.7,13.3,2.6,19.3,5.6l7.8-9.8c2.3-2.9,6.6-3.4,9.5-1l8.1,6.5c1.4,1.1,2.3,2.7,2.5,4.5c0.2,1.8-0.3,3.6-1.4,5l-7.8,9.8
			c4.3,5.3,7.6,11.2,9.7,17.6l12.4-1.4c3.7-0.4,7.1,2.3,7.5,6l1.1,10.3c0.4,3.7-2.3,7.1-6,7.5l-12.4,1.4c-0.7,6.8-2.6,13.3-5.6,19.3
			l9.8,7.8h0c1.4,1.1,2.3,2.7,2.5,4.5c0.2,1.8-0.3,3.6-1.4,5l-6.5,8.1c-1.1,1.4-2.7,2.3-4.5,2.5c-1.8,0.2-3.6-0.3-5-1.4l-9.8-7.8
			c-5.3,4.3-11.2,7.6-17.6,9.7l1.4,12.4c0.4,3.7-2.3,7.1-6,7.5l-10.3,1.1C586,854.8,585.7,854.8,585.5,854.8z M557,825.8l1.4,0.8
			c6.5,3.5,13.5,5.5,20.8,6.1l1.6,0.1l1.7,15.6c0.1,0.8,0.5,1.4,1.1,1.9c0.6,0.5,1.4,0.7,2.1,0.6l10.3-1.1c0.8-0.1,1.4-0.5,1.9-1.1
			c0.5-0.6,0.7-1.3,0.6-2.1l-1.7-15.6l1.5-0.5c7-2.1,13.4-5.6,19-10.5l1.2-1.1l12.3,9.8c0.6,0.5,1.3,0.7,2.1,0.6
			c0.8-0.1,1.4-0.5,1.9-1.1l6.5-8.1c0.5-0.6,0.7-1.4,0.6-2.1c-0.1-0.8-0.5-1.4-1.1-1.9h0l-12.3-9.8l0.8-1.4
			c3.5-6.5,5.5-13.5,6.1-20.8l0.1-1.6l15.6-1.7c1.6-0.2,2.7-1.6,2.5-3.2l-1.1-10.3c-0.2-1.6-1.6-2.7-3.2-2.5l-15.6,1.7l-0.5-1.5
			c-2.1-7-5.6-13.4-10.5-19l-1.1-1.2l9.8-12.3c0.5-0.6,0.7-1.4,0.6-2.1c-0.1-0.8-0.5-1.4-1.1-1.9l-8.1-6.5c-1.2-1-3.1-0.8-4,0.4
			l-9.8,12.3l-1.4-0.8c-6.5-3.5-13.5-5.5-20.8-6.1l-1.6-0.1l-1.7-15.6c-0.1-0.8-0.5-1.4-1.1-1.9c-0.6-0.5-1.4-0.7-2.1-0.6l-10.3,1.1
			c-0.8,0.1-1.4,0.5-1.9,1.1c-0.5,0.6-0.7,1.4-0.6,2.1l1.7,15.6L568,730c-7,2.1-13.4,5.6-19,10.5l-1.2,1.1l-12.3-9.8
			c-0.6-0.5-1.3-0.7-2.1-0.6c-0.8,0.1-1.4,0.5-1.9,1.1l-6.5,8.1c-0.5,0.6-0.7,1.4-0.6,2.1c0.1,0.8,0.5,1.4,1.1,1.9l12.3,9.8
			l-0.8,1.4c-3.5,6.5-5.5,13.5-6.1,20.8l-0.1,1.6l-15.6,1.7c-1.6,0.2-2.7,1.6-2.5,3.2l1.1,10.3c0.2,1.6,1.6,2.7,3.2,2.5l15.6-1.7
			l0.5,1.5c2.1,7,5.6,13.4,10.5,19l1.1,1.2l-9.8,12.3c-0.5,0.6-0.7,1.4-0.6,2.1c0.1,0.8,0.5,1.4,1.1,1.9l8.1,6.5c1.2,1,3,0.8,4-0.4
			L557,825.8z M583.2,810.1c-6.6,0-13.2-2.1-18.7-6.6c-6.2-5-10.2-12.1-11-20.1c-0.9-7.9,1.4-15.8,6.4-22c5-6.2,12.1-10.2,20.1-11
			c8-0.9,15.8,1.4,22,6.4c6.2,5,10.2,12.1,11,20.1c0.9,7.9-1.4,15.8-6.4,22C600.7,806.3,592,810.1,583.2,810.1z M583.3,754.2
			c-1,0-1.9,0.1-2.9,0.2c-6.9,0.8-13.1,4.2-17.5,9.6c-4.4,5.4-6.3,12.2-5.6,19.1c0.8,6.9,4.2,13.1,9.6,17.5l0,0
			c11.2,9,27.6,7.2,36.6-4c4.4-5.4,6.3-12.2,5.6-19.1c-0.8-6.9-4.2-13.1-9.6-17.5C594.8,756.2,589.2,754.2,583.3,754.2z"/>
	</g>
</g>
<g opacity="0.61">
	<g>
		<path opacity="0.74" fill="#6B6BB1" d="M333.4,386.8l3.6,296.1c0,3.7-2.9,6.7-6.6,6.8l-177.9,2.2c-3.7,0-6.7-2.9-6.8-6.6
			l-3.6-296.1c0-3.7,2.9-6.7,6.6-6.8l177.9-2.2C330.3,380.1,333.3,383.1,333.4,386.8z"/>
		<g>
			<path fill="#3F499C" d="M334,386.6l0.2,17.6L143,406.5l-0.2-17.9c0-3.5,2.8-6.4,6.3-6.5l178.1-2.2
				C330.9,379.9,334,382.9,334,386.6z"/>
		</g>
	</g>
	<path fill="#FFFFFF" d="M155.9,397.8c-2.2,0-4-1.7-4-3.9c0-2.2,1.7-4,3.9-4c2.2,0,4,1.7,4,3.9C159.9,396,158.1,397.8,155.9,397.8z
		 M155.9,391.5c-1.3,0-2.4,1.1-2.3,2.4c0,1.3,1.1,2.4,2.4,2.3c1.3,0,2.4-1.1,2.3-2.4C158.3,392.5,157.2,391.5,155.9,391.5z"/>
	<path fill="#FFFFFF" d="M169.1,397.7c-2.2,0-4-1.7-4-3.9c0-2.2,1.7-4,3.9-4c2.2,0,4,1.7,4,3.9C173,395.9,171.3,397.7,169.1,397.7z
		 M169.1,391.4c-1.3,0-2.4,1.1-2.3,2.4c0,1.3,1.1,2.4,2.4,2.3c1.3,0,2.4-1.1,2.3-2.4C171.4,392.4,170.4,391.4,169.1,391.4z"/>
	<path fill="#FFFFFF" d="M181.9,397.6c-2.2,0-4-1.7-4-3.9c0-2.2,1.7-4,3.9-4c2.2,0,4,1.7,4,3.9C185.8,395.8,184.1,397.6,181.9,397.6
		z M181.8,391.3c-1.3,0-2.4,1.1-2.3,2.4c0,1.3,1.1,2.4,2.4,2.3c1.3,0,2.4-1.1,2.3-2.4C184.2,392.3,183.1,391.3,181.8,391.3z"/>
	<path fill="#FFFFFF" d="M247.8,433.9l-88.4,0.7c-0.9,0-1.6-0.7-1.6-1.6c0-0.9,0.7-1.6,1.6-1.6l88.4-0.7c0.9,0,1.6,0.7,1.6,1.6
		C249.3,433.2,248.6,433.9,247.8,433.9z"/>
	<path fill="#3F499C" d="M277.2,433.6l-18.3,0.1c-0.9,0-1.6-0.7-1.6-1.6c0-0.9,0.7-1.6,1.6-1.6l18.3-0.1c0.9,0,1.6,0.7,1.6,1.6
		C278.8,432.9,278.1,433.6,277.2,433.6z"/>
	<path fill="#FFFFFF" d="M248.3,507.2l-88.4,0.7c-0.9,0-1.6-0.7-1.6-1.6c0-0.9,0.7-1.6,1.6-1.6l88.4-0.7c0.9,0,1.6,0.7,1.6,1.6
		C249.9,506.5,249.2,507.2,248.3,507.2z"/>
	<path fill="#6895CE" d="M277.8,507l-18.3,0.1c-0.9,0-1.6-0.7-1.6-1.6c0-0.9,0.7-1.6,1.6-1.6l18.3-0.1c0.9,0,1.6,0.7,1.6,1.6
		C279.3,506.3,278.6,507,277.8,507z"/>
	<path fill="#6895CE" d="M248,468.9l-88.4,0.7c-0.9,0-1.6-0.7-1.6-1.6c0-0.9,0.7-1.6,1.6-1.6l88.4-0.7c0.9,0,1.6,0.7,1.6,1.6
		C249.6,468.2,248.9,468.9,248,468.9z"/>
	<path fill="#FFFFFF" d="M277.5,468.7l-18.3,0.1c-0.9,0-1.6-0.7-1.6-1.6c0-0.9,0.7-1.6,1.6-1.6l18.3-0.1c0.9,0,1.6,0.7,1.6,1.6
		C279.1,468,278.4,468.7,277.5,468.7z"/>
	<path fill="#3F499C" d="M307.7,468.4l-18.3,0.1c-0.9,0-1.6-0.7-1.6-1.6c0-0.9,0.7-1.6,1.6-1.6l18.3-0.1c0.9,0,1.6,0.7,1.6,1.6
		C309.3,467.7,308.6,468.4,307.7,468.4z"/>
	<path fill="#3F499C" d="M218.4,451.3l-58.9,0.4c-0.9,0-1.6-0.7-1.6-1.6c0-0.9,0.7-1.6,1.6-1.6l58.9-0.4c0.9,0,1.6,0.7,1.6,1.6
		C220,450.6,219.3,451.3,218.4,451.3z"/>
	<path fill="#F7A9B4" d="M255.1,451l-25.8,0.2c-0.9,0-1.6-0.7-1.6-1.6c0-0.9,0.7-1.6,1.6-1.6l25.8-0.2c0.9,0,1.6,0.7,1.6,1.6
		C256.7,450.3,256,451,255.1,451z"/>
	<path fill="#3F499C" d="M255.4,488l-58.9,0.4c-0.9,0-1.6-0.7-1.6-1.6c0-0.9,0.7-1.6,1.6-1.6l58.9-0.4c0.9,0,1.6,0.7,1.6,1.6
		C257,487.2,256.3,487.9,255.4,488z"/>
	<path fill="#F7A9B4" d="M185.6,488.5l-25.8,0.2c-0.9,0-1.6-0.7-1.6-1.6c0-0.9,0.7-1.6,1.6-1.6l25.8-0.2c0.9,0,1.6,0.7,1.6,1.6
		C187.2,487.8,186.5,488.5,185.6,488.5z"/>
	<path fill="#F7A9B4" d="M248.5,532l-88.4,0.7c-0.9,0-1.6-0.7-1.6-1.6c0-0.9,0.7-1.6,1.6-1.6l88.4-0.7c0.9,0,1.6,0.7,1.6,1.6
		C250.1,531.3,249.4,532,248.5,532z"/>
	<path fill="#3F499C" d="M278,531.8l-18.3,0.1c-0.9,0-1.6-0.7-1.6-1.6c0-0.9,0.7-1.6,1.6-1.6l18.3-0.1c0.9,0,1.6,0.7,1.6,1.6
		C279.5,531,278.8,531.8,278,531.8z"/>
	<path fill="#FFFFFF" d="M249.1,605.4l-88.4,0.7c-0.9,0-1.6-0.7-1.6-1.6c0-0.9,0.7-1.6,1.6-1.6l88.4-0.7c0.9,0,1.6,0.7,1.6,1.6
		C250.6,604.6,249.9,605.3,249.1,605.4z"/>
	<path fill="#6895CE" d="M278.5,605.1l-18.3,0.1c-0.9,0-1.6-0.7-1.6-1.6c0-0.9,0.7-1.6,1.6-1.6l18.3-0.1c0.9,0,1.6,0.7,1.6,1.6
		C280.1,604.4,279.4,605.1,278.5,605.1z"/>
	<path fill="#6895CE" d="M248.8,567l-88.4,0.7c-0.9,0-1.6-0.7-1.6-1.6c0-0.9,0.7-1.6,1.6-1.6l88.4-0.7c0.9,0,1.6,0.7,1.6,1.6
		C250.3,566.3,249.6,567,248.8,567z"/>
	<path fill="#FFFFFF" d="M278.2,566.8l-18.3,0.1c-0.9,0-1.6-0.7-1.6-1.6c0-0.9,0.7-1.6,1.6-1.6l18.3-0.1c0.9,0,1.6,0.7,1.6,1.6
		C279.8,566.1,279.1,566.8,278.2,566.8z"/>
	<path fill="#3F499C" d="M308.4,566.5l-18.3,0.1c-0.9,0-1.6-0.7-1.6-1.6c0-0.9,0.7-1.6,1.6-1.6l18.3-0.1c0.9,0,1.6,0.7,1.6,1.6
		C310,565.8,309.3,566.5,308.4,566.5z"/>
	<path fill="#3F499C" d="M219.2,549.4l-58.9,0.4c-0.9,0-1.6-0.7-1.6-1.6c0-0.9,0.7-1.6,1.6-1.6l58.9-0.4c0.9,0,1.6,0.7,1.6,1.6
		C220.7,548.7,220,549.4,219.2,549.4z"/>
	<path fill="#F7A9B4" d="M255.9,549.2l-25.8,0.2c-0.9,0-1.6-0.7-1.6-1.6c0-0.9,0.7-1.6,1.6-1.6l25.8-0.2c0.9,0,1.6,0.7,1.6,1.6
		C257.4,548.4,256.7,549.1,255.9,549.2z"/>
	<path fill="#3F499C" d="M256.1,586.1l-58.9,0.4c-0.9,0-1.6-0.7-1.6-1.6c0-0.9,0.7-1.6,1.6-1.6l58.9-0.4c0.9,0,1.6,0.7,1.6,1.6
		C257.7,585.3,257,586.1,256.1,586.1z"/>
	<path fill="#F7A9B4" d="M186.4,586.6l-25.8,0.2c-0.9,0-1.6-0.7-1.6-1.6c0-0.9,0.7-1.6,1.6-1.6l25.8-0.2c0.9,0,1.6,0.7,1.6,1.6
		C187.9,585.9,187.2,586.6,186.4,586.6z"/>
	<path fill="#F7A9B4" d="M249.2,628l-88.4,0.7c-0.9,0-1.6-0.7-1.6-1.6c0-0.9,0.7-1.6,1.6-1.6l88.4-0.7c0.9,0,1.6,0.7,1.6,1.6
		C250.8,627.3,250.1,628,249.2,628z"/>
	<path fill="#3F499C" d="M278.7,627.8l-18.3,0.1c-0.9,0-1.6-0.7-1.6-1.6c0-0.9,0.7-1.6,1.6-1.6l18.3-0.1c0.9,0,1.6,0.7,1.6,1.6
		C280.3,627.1,279.6,627.8,278.7,627.8z"/>
	<path fill="#FFFFFF" d="M279,674.1l-18.3,0.1c-0.9,0-1.6-0.7-1.6-1.6c0-0.9,0.7-1.6,1.6-1.6L279,671c0.9,0,1.6,0.7,1.6,1.6
		C280.6,673.4,279.9,674.1,279,674.1z"/>
	<path fill="#3F499C" d="M309.2,673.9l-18.3,0.1c-0.9,0-1.6-0.7-1.6-1.6c0-0.9,0.7-1.6,1.6-1.6l18.3-0.1c0.9,0,1.6,0.7,1.6,1.6
		C310.8,673.2,310.1,673.9,309.2,673.9z"/>
	<path fill="#3F499C" d="M219.9,645.5l-58.9,0.4c-0.9,0-1.6-0.7-1.6-1.6c0-0.9,0.7-1.6,1.6-1.6l58.9-0.4c0.9,0,1.6,0.7,1.6,1.6
		C221.5,644.8,220.8,645.5,219.9,645.5z"/>
	<path fill="#F7A9B4" d="M256.6,645.2l-25.8,0.2c-0.9,0-1.6-0.7-1.6-1.6c0-0.9,0.7-1.6,1.6-1.6l25.8-0.2c0.9,0,1.6,0.7,1.6,1.6
		C258.2,644.5,257.5,645.2,256.6,645.2z"/>
</g>
<g>
	<g>
		<g>
			<g>
				<g>
					<g>
						<polygon fill="none" points="306.3,277.2 308.3,284 308.3,274.9 						"/>
						<g>
							<polygon fill="none" points="308.5,723.1 308.5,714 306.5,720.8 							"/>
							<path fill="#4F66AF" d="M308.2,235.8l0,39.1l0,9.1l0,108.7l0.1,212.6l0,108.7l0,9.1l0,26.4c0,11.9,7.5,22.1,18.1,26.1
								c3,1.1,6.3,1.8,9.8,1.8l19.9,0l218.6-0.1c5.8,0,11.3-1.8,15.7-4.9c7.3-5,12.1-13.4,12.1-23l-0.2-513.8
								c0-8.6-3.9-16.2-10-21.3c-4.8-4.1-11.1-6.5-17.9-6.5l-238.5,0.1C320.7,207.9,308.2,220.4,308.2,235.8z"/>
							<path fill="#3F499C" d="M310.3,245.5l0,37.9l0,8.8l0,105.1l0.1,205.7l0,105.1l0,8.8l0,25.6c0,11.6,7.4,21.4,17.9,25.2
								c3,1.1,6.2,1.7,9.6,1.7l19.6,0l215.6-0.1c5.8,0,11.1-1.8,15.5-4.7c7.2-4.9,11.9-13,11.9-22.2l-0.2-497.1
								c0-8.3-3.8-15.7-9.8-20.6c-4.8-3.9-10.9-6.3-17.7-6.3l-235.2,0.1C322.6,218.5,310.3,230.6,310.3,245.5z"/>
						</g>
					</g>
					<g>
						<path fill="#FFFFFF" d="M587.1,286.1l0.2,412.9c0,3.7-3,6.7-6.7,6.7l-250.1,0.1c-3.7,0-6.7-3-6.7-6.7l-0.2-412.9
							c0-3.7,3-6.7,6.7-6.7l250.1-0.1C584.1,279.4,587.1,282.4,587.1,286.1z"/>
						<g>
							<path fill="#6895CE" d="M587.1,285.9l0,26.8l-263.4,0.1l0-27.1c0-3.5,2.9-6.4,6.4-6.4l250.3-0.1
								C584.1,279.2,587.1,282.2,587.1,285.9z"/>
							<g>
								<path fill="#FFFFFF" d="M554.6,292.2c-0.5,0-1-0.4-1-1c0-0.5,0.4-1,1-1l19.8,0l0,0c0.5,0,1,0.4,1,1c0,0.5-0.4,1-1,1
									L554.6,292.2L554.6,292.2z"/>
								<path fill="#FFFFFF" d="M554.6,297.2c-0.5,0-1-0.4-1-1c0-0.5,0.4-1,1-1l19.8,0l0,0c0.5,0,1,0.4,1,1c0,0.5-0.4,1-1,1
									L554.6,297.2L554.6,297.2z"/>
								<path fill="#FFFFFF" d="M554.6,302.3c-0.5,0-1-0.4-1-1c0-0.5,0.4-1,1-1l19.8,0l0,0c0.5,0,1,0.4,1,1c0,0.5-0.4,1-1,1
									L554.6,302.3L554.6,302.3z"/>
							</g>
							<path fill="#FFFFFF" d="M347.2,305.5c-0.2,0-0.5-0.1-0.7-0.3l-7.2-7.2c-0.6-0.6-0.6-1.6,0-2.2l6.9-6.9c0.4-0.4,1-0.4,1.4,0
								c0.4,0.4,0.4,1,0,1.4l-6.6,6.7l6.9,6.9c0.4,0.4,0.4,1,0,1.4C347.7,305.4,347.4,305.5,347.2,305.5z"/>
						</g>
					</g>
					<path fill="#FFFFFF" d="M455.6,254.7c-3.9,0-7.1-3.2-7.1-7.1c0-3.9,3.2-7.1,7.1-7.1c0,0,0,0,0,0c3.9,0,7.1,3.2,7.1,7.1
						C462.7,251.5,459.5,254.7,455.6,254.7C455.6,254.7,455.6,254.7,455.6,254.7z M455.6,243.5C455.6,243.5,455.6,243.5,455.6,243.5
						c-2.3,0-4.1,1.8-4.1,4.1c0,2.3,1.8,4.1,4.1,4.1c0,0,0,0,0,0c1.1,0,2.1-0.4,2.9-1.2c0.8-0.8,1.2-1.8,1.2-2.9
						c0-1.1-0.4-2.1-1.2-2.9C457.7,243.9,456.7,243.5,455.6,243.5z"/>
					<path fill="#FFFFFF" d="M448.8,757c-2.5,0-4.6-2.1-4.6-4.6l0-13.5c0-2.5,2.1-4.6,4.6-4.6l13.5,0c2.5,0,4.6,2.1,4.6,4.6l0,13.5
						c0,2.5-2.1,4.6-4.6,4.6L448.8,757z M462.3,736.3l-13.5,0c-1.4,0-2.6,1.2-2.6,2.6l0,13.5c0,1.5,1.2,2.6,2.6,2.6l13.5,0
						c1.4,0,2.6-1.2,2.6-2.6l0-13.5C465,737.5,463.8,736.3,462.3,736.3z"/>
					<g>
						<path fill="#FFFFFF" d="M367.4,738.5c-0.5,0-1-0.4-1-1c0-0.5,0.4-1,1-1l13,0l0,0c0.5,0,1,0.4,1,1c0,0.5-0.4,1-1,1L367.4,738.5
							L367.4,738.5z"/>
						<path fill="#FFFFFF" d="M367.4,745.5c-0.5,0-1-0.4-1-1c0-0.5,0.4-1,1-1l13,0l0,0c0.5,0,1,0.4,1,1c0,0.5-0.4,1-1,1L367.4,745.5
							L367.4,745.5z"/>
						<path fill="#FFFFFF" d="M367.4,752.6c-0.5,0-1-0.4-1-1s0.4-1,1-1l13,0l0,0c0.5,0,1,0.4,1,1c0,0.5-0.4,1-1,1L367.4,752.6
							L367.4,752.6z"/>
					</g>
					<path fill="#FFFFFF" d="M547,757c-0.2,0-0.5-0.1-0.7-0.3l-10.2-10.2l10-10c0.4-0.4,1-0.4,1.4,0c0.4,0.4,0.4,1,0,1.4l-8.6,8.6
						l8.9,8.8c0.4,0.4,0.4,1,0,1.4C547.5,756.9,547.3,757,547,757z"/>
				</g>
			</g>
		</g>
	</g>
	<g>
		<rect x="324.1" y="313.2" opacity="0.36" fill="#6895CE" width="263" height="86.1"/>
		<path opacity="0.43" fill="#FFFFFF" d="M442.8,351.9l-94.4,0c-1.5,0-2.7-1.2-2.7-2.7l0-15.9c0-1.5,1.2-2.7,2.7-2.7l94.4,0
			c1.5,0,2.7,1.2,2.7,2.7l0,15.9C445.5,350.7,444.3,351.9,442.8,351.9z"/>
		<path opacity="0.43" fill="#FFFFFF" d="M494.7,374.5l-146.3,0.1c-1.5,0-2.7-1.2-2.7-2.7l0-5.2c0-1.5,1.2-2.7,2.7-2.7l146.3-0.1
			c1.5,0,2.7,1.2,2.7,2.7l0,5.2C497.4,373.3,496.2,374.5,494.7,374.5z"/>
		<path opacity="0.43" fill="#FFFFFF" d="M554.7,372.8c-5.4,0-10.5-2.1-14.3-5.9c-3.8-3.8-5.9-8.9-5.9-14.3c0-5.4,2.1-10.5,5.9-14.3
			c3.8-3.8,8.9-5.9,14.3-5.9c0,0,0,0,0,0c5.4,0,10.5,2.1,14.3,5.9c3.8,3.8,5.9,8.9,5.9,14.3l0,0c0,5.4-2.1,10.5-5.9,14.3
			C565.2,370.7,560.1,372.8,554.7,372.8C554.7,372.8,554.7,372.8,554.7,372.8z M554.7,336.2C554.7,336.2,554.7,336.2,554.7,336.2
			c-4.4,0-8.5,1.7-11.5,4.8c-3.1,3.1-4.8,7.2-4.8,11.5c0,4.4,1.7,8.5,4.8,11.5c3.1,3.1,7.2,4.8,11.5,4.8c0,0,0,0,0,0
			c4.4,0,8.5-1.7,11.5-4.8c3.1-3.1,4.8-7.2,4.8-11.5l0,0c0-4.4-1.7-8.5-4.8-11.5C563.2,337.9,559.1,336.2,554.7,336.2z"/>
	</g>
	<g>
		<g>
			<g>
				<g>
					<path fill="#4F66AF" d="M399.7,491.8l-43.5,0c-4.9,0-8.9-4-8.9-8.9l0-43.5c0-4.9,4-8.9,8.9-8.9l43.5,0c4.9,0,8.9,4,8.9,8.9
						l0,43.5C408.6,487.8,404.6,491.8,399.7,491.8z"/>
					<g opacity="0.36">
						<circle fill="#6895CE" cx="378" cy="461.5" r="13.2"/>
					</g>
				</g>
				<g opacity="0.26">
					<path fill="#3F499C" d="M455.9,451.1l-34.4,0c-1.2,0-2.2-1-2.2-2.2l0-6.6c0-1.2,1-2.2,2.2-2.2l34.4,0c1.2,0,2.2,1,2.2,2.2
						l0,6.6C458.1,450.1,457.1,451.1,455.9,451.1z"/>
					<path fill="#3F499C" d="M419.3,468c-1.1,0-1.9-0.9-1.9-1.9c0-1.1,0.9-1.9,1.9-1.9l66.3,0h0c1.1,0,1.9,0.9,1.9,1.9
						c0,1.1-0.9,1.9-1.9,1.9L419.3,468L419.3,468z"/>
					<path fill="#3F499C" d="M419.3,481.8c-1.1,0-1.9-0.9-1.9-1.9c0-1.1,0.9-1.9,1.9-1.9l108.1,0l0,0c1.1,0,1.9,0.9,1.9,1.9
						s-0.9,1.9-1.9,1.9L419.3,481.8L419.3,481.8z"/>
					<path fill="#3F499C" d="M500.4,467.9c-1.1,0-1.9-0.9-1.9-1.9c0-1.1,0.9-1.9,1.9-1.9l66.3,0l0,0c1.1,0,1.9,0.9,1.9,1.9
						c0,1.1-0.9,1.9-1.9,1.9L500.4,467.9L500.4,467.9z"/>
				</g>
			</g>
			<g>
				<g>
					<g>
						<path fill="#6895CE" d="M399.8,669.9l-43.5,0c-4.9,0-8.9-4-8.9-8.9l0-43.5c0-4.9,4-8.9,8.9-8.9l43.5,0c4.9,0,8.9,4,8.9,8.9
							l0,43.5C408.7,666,404.7,669.9,399.8,669.9z"/>
					</g>
					<g opacity="0.57">
						<circle fill="#3F499C" cx="378.1" cy="639.6" r="13.2"/>
					</g>
				</g>
				<g opacity="0.26">
					<path fill="#3F499C" d="M456,629.2l-34.4,0c-1.2,0-2.2-1-2.2-2.2l0-6.6c0-1.2,1-2.2,2.2-2.2l34.4,0c1.2,0,2.2,1,2.2,2.2l0,6.6
						C458.2,628.2,457.2,629.2,456,629.2z"/>
					<path fill="#3F499C" d="M419.3,646.1c-1.1,0-1.9-0.9-1.9-1.9c0-1.1,0.9-1.9,1.9-1.9l66.3,0h0c1.1,0,1.9,0.9,1.9,1.9
						c0,1.1-0.9,1.9-1.9,1.9L419.3,646.1L419.3,646.1z"/>
					<path fill="#3F499C" d="M419.3,660c-1.1,0-1.9-0.9-1.9-1.9c0-1.1,0.9-1.9,1.9-1.9l108.1,0l0,0c1.1,0,1.9,0.9,1.9,1.9
						c0,1.1-0.9,1.9-1.9,1.9L419.3,660L419.3,660z"/>
					<path fill="#3F499C" d="M500.4,646.1c-1.1,0-1.9-0.9-1.9-1.9c0-1.1,0.9-1.9,1.9-1.9l66.3,0l0,0c1.1,0,1.9,0.9,1.9,1.9
						c0,1.1-0.9,1.9-1.9,1.9L500.4,646.1L500.4,646.1z"/>
				</g>
			</g>
			<g>
				<g>
					<path fill="#F7A9B4" d="M399.8,580.6l-43.5,0c-4.9,0-8.9-4-8.9-8.9l0-43.5c0-4.9,4-8.9,8.9-8.9l43.5,0c4.9,0,8.9,4,8.9,8.9
						l0,43.5C408.6,576.7,404.7,580.6,399.8,580.6z"/>
					<circle opacity="0.43" fill="#FFFFFF" cx="378" cy="550.3" r="13.2"/>
				</g>
				<g opacity="0.26">
					<path fill="#3F499C" d="M455.9,539.9l-34.4,0c-1.2,0-2.2-1-2.2-2.2l0-6.6c0-1.2,1-2.2,2.2-2.2l34.4,0c1.2,0,2.2,1,2.2,2.2
						l0,6.6C458.2,538.9,457.2,539.9,455.9,539.9z"/>
					<path fill="#3F499C" d="M419.3,556.8c-1.1,0-1.9-0.9-1.9-1.9c0-1.1,0.9-1.9,1.9-1.9l30.7,0h0c1.1,0,1.9,0.9,1.9,1.9
						c0,1.1-0.9,1.9-1.9,1.9L419.3,556.8L419.3,556.8z"/>
					<path fill="#3F499C" d="M419.3,570.7c-1.1,0-1.9-0.9-1.9-1.9c0-1.1,0.9-1.9,1.9-1.9l62.9,0h0c1.1,0,1.9,0.9,1.9,1.9
						c0,1.1-0.9,1.9-1.9,1.9L419.3,570.7L419.3,570.7z"/>
					<path fill="#3F499C" d="M462.8,556.8c-1.1,0-1.9-0.9-1.9-1.9c0-1.1,0.9-1.9,1.9-1.9l61.2,0l0,0c1.1,0,1.9,0.9,1.9,1.9
						c0,1.1-0.9,1.9-1.9,1.9L462.8,556.8L462.8,556.8z"/>
					<path fill="#3F499C" d="M535.5,556.8c-1.1,0-1.9-0.9-1.9-1.9c0-1.1,0.9-1.9,1.9-1.9l30.7,0l0,0c1.1,0,1.9,0.9,1.9,1.9
						c0,1.1-0.9,1.9-1.9,1.9L535.5,556.8L535.5,556.8z"/>
				</g>
			</g>
		</g>
	</g>
</g>
<g>
	<g>
		<g>
			<path opacity="0.39" fill="#FFFFFF" d="M786.9,581.6l2.5,209.5c0,3.7-2.9,6.7-6.6,6.8l-124.4,1.5c-3.7,0-6.7-2.9-6.8-6.6
				l-2.5-209.5c0-3.7,2.9-6.7,6.6-6.8l124.4-1.5C783.8,574.9,786.8,577.9,786.9,581.6z"/>
			<path opacity="0.39" fill="#F7A9B4" d="M786.9,581.6l2.5,209.5c0,3.7-2.9,6.7-6.6,6.8l-124.4,1.5c-3.7,0-6.7-2.9-6.8-6.6
				l-2.5-209.5c0-3.7,2.9-6.7,6.6-6.8l124.4-1.5C783.8,574.9,786.8,577.9,786.9,581.6z"/>
			<g>
				<path fill="#F7A9B4" d="M787.3,581.5l0.1,10.8L649.7,594l-0.1-11.1c0-3.5,2.8-6.4,6.3-6.5l124.6-1.5
					C784.3,574.8,787.3,577.8,787.3,581.5z"/>
			</g>
		</g>
		<path fill="#FFFFFF" d="M659.1,587.7c-1.6,0-2.8-1.3-2.9-2.8c0-1.6,1.3-2.8,2.8-2.9c1.6,0,2.8,1.3,2.9,2.8
			C661.9,586.4,660.6,587.7,659.1,587.7z M659,583.1c-0.9,0-1.7,0.8-1.7,1.7c0,0.9,0.8,1.7,1.7,1.7c0.9,0,1.7-0.8,1.7-1.7
			C660.8,583.9,660,583.1,659,583.1z"/>
		<path fill="#FFFFFF" d="M668.6,587.6c-1.6,0-2.8-1.3-2.9-2.8s1.3-2.8,2.8-2.9c1.6,0,2.8,1.3,2.9,2.8
			C671.4,586.3,670.1,587.6,668.6,587.6z M668.5,583.1c-0.9,0-1.7,0.8-1.7,1.7c0,0.9,0.8,1.7,1.7,1.7c0.9,0,1.7-0.8,1.7-1.7
			C670.2,583.8,669.5,583.1,668.5,583.1z"/>
		<path fill="#FFFFFF" d="M677.8,587.5c-1.6,0-2.8-1.3-2.9-2.8c0-1.6,1.3-2.8,2.8-2.9c1.6,0,2.8,1.3,2.9,2.8
			C680.6,586.2,679.3,587.5,677.8,587.5z M677.7,583c-0.9,0-1.7,0.8-1.7,1.7c0,0.9,0.8,1.7,1.7,1.7c0.9,0,1.7-0.8,1.7-1.7
			C679.4,583.7,678.7,583,677.7,583z"/>
		<path fill="#FFFFFF" d="M725.2,613.7l-63.6,0.5c-0.6,0-1.1-0.5-1.1-1.1c0-0.6,0.5-1.1,1.1-1.1l63.6-0.5c0.6,0,1.1,0.5,1.1,1.1
			C726.3,613.1,725.8,613.6,725.2,613.7z"/>
		<path fill="#FFFFFF" d="M746.4,613.5l-13.2,0.1c-0.6,0-1.1-0.5-1.1-1.1c0-0.6,0.5-1.1,1.1-1.1l13.2-0.1c0.6,0,1.1,0.5,1.1,1.1
			C747.5,613,747,613.5,746.4,613.5z"/>
		<path fill="#FFFFFF" d="M725.6,666.5l-63.6,0.5c-0.6,0-1.1-0.5-1.1-1.1c0-0.6,0.5-1.1,1.1-1.1l63.6-0.5c0.6,0,1.1,0.5,1.1,1.1
			C726.7,666,726.2,666.5,725.6,666.5z"/>
		<path fill="#FFFFFF" d="M746.8,666.3l-13.2,0.1c-0.6,0-1.1-0.5-1.1-1.1c0-0.6,0.5-1.1,1.1-1.1l13.2-0.1c0.6,0,1.1,0.5,1.1,1.1
			C747.9,665.8,747.4,666.3,746.8,666.3z"/>
		<path fill="#FFFFFF" d="M725.4,638.9l-63.6,0.5c-0.6,0-1.1-0.5-1.1-1.1c0-0.6,0.5-1.1,1.1-1.1l63.6-0.5c0.6,0,1.1,0.5,1.1,1.1
			C726.5,638.4,726,638.9,725.4,638.9z"/>
		<path fill="#FFFFFF" d="M746.6,638.7l-13.2,0.1c-0.6,0-1.1-0.5-1.1-1.1c0-0.6,0.5-1.1,1.1-1.1l13.2-0.1c0.6,0,1.1,0.5,1.1,1.1
			C747.7,638.2,747.2,638.7,746.6,638.7z"/>
		<path fill="#FFFFFF" d="M768.4,638.5l-13.2,0.1c-0.6,0-1.1-0.5-1.1-1.1c0-0.6,0.5-1.1,1.1-1.1l13.2-0.1c0.6,0,1.1,0.5,1.1,1.1
			C769.5,638,769,638.5,768.4,638.5z"/>
		<path fill="#FFFFFF" d="M704.1,626.2l-42.4,0.3c-0.6,0-1.1-0.5-1.1-1.1c0-0.6,0.5-1.1,1.1-1.1l42.4-0.3c0.6,0,1.1,0.5,1.1,1.1
			C705.2,625.7,704.7,626.2,704.1,626.2z"/>
		<path fill="#FFFFFF" d="M730.5,626l-18.6,0.1c-0.6,0-1.1-0.5-1.1-1.1c0-0.6,0.5-1.1,1.1-1.1l18.6-0.1c0.6,0,1.1,0.5,1.1,1.1
			C731.6,625.5,731.1,626,730.5,626z"/>
		<path fill="#FFFFFF" d="M730.7,652.6l-42.4,0.3c-0.6,0-1.1-0.5-1.1-1.1c0-0.6,0.5-1.1,1.1-1.1l42.4-0.3c0.6,0,1.1,0.5,1.1,1.1
			C731.8,652.1,731.3,652.6,730.7,652.6z"/>
		<path fill="#FFFFFF" d="M680.5,653l-18.6,0.1c-0.6,0-1.1-0.5-1.1-1.1c0-0.6,0.5-1.1,1.1-1.1l18.6-0.1c0.6,0,1.1,0.5,1.1,1.1
			C681.6,652.5,681.1,653,680.5,653z"/>
		<path fill="#FFFFFF" d="M725.7,684.3l-63.6,0.5c-0.6,0-1.1-0.5-1.1-1.1c0-0.6,0.5-1.1,1.1-1.1l63.6-0.5c0.6,0,1.1,0.5,1.1,1.1
			C726.9,683.8,726.4,684.3,725.7,684.3z"/>
		<path fill="#FFFFFF" d="M746.9,684.1l-13.2,0.1c-0.6,0-1.1-0.5-1.1-1.1c0-0.6,0.5-1.1,1.1-1.1l13.2-0.1c0.6,0,1.1,0.5,1.1,1.1
			C748.1,683.6,747.6,684.1,746.9,684.1z"/>
		<path fill="#FFFFFF" d="M726.1,737.1l-63.6,0.5c-0.6,0-1.1-0.5-1.1-1.1c0-0.6,0.5-1.1,1.1-1.1l63.6-0.5c0.6,0,1.1,0.5,1.1,1.1
			C727.3,736.6,726.8,737.1,726.1,737.1z"/>
		<path fill="#FFFFFF" d="M747.3,737l-13.2,0.1c-0.6,0-1.1-0.5-1.1-1.1c0-0.6,0.5-1.1,1.1-1.1l13.2-0.1c0.6,0,1.1,0.5,1.1,1.1
			C748.5,736.5,748,737,747.3,737z"/>
		<path fill="#FFFFFF" d="M725.9,709.5l-63.6,0.5c-0.6,0-1.1-0.5-1.1-1.1c0-0.6,0.5-1.1,1.1-1.1l63.6-0.5c0.6,0,1.1,0.5,1.1,1.1
			C727.1,709,726.5,709.5,725.9,709.5z"/>
		<path fill="#FFFFFF" d="M747.1,709.4l-13.2,0.1c-0.6,0-1.1-0.5-1.1-1.1c0-0.6,0.5-1.1,1.1-1.1l13.2-0.1c0.6,0,1.1,0.5,1.1,1.1
			C748.3,708.8,747.8,709.4,747.1,709.4z"/>
		<path fill="#FFFFFF" d="M768.9,709.2l-13.2,0.1c-0.6,0-1.1-0.5-1.1-1.1c0-0.6,0.5-1.1,1.1-1.1l13.2-0.1c0.6,0,1.1,0.5,1.1,1.1
			C770,708.7,769.5,709.2,768.9,709.2z"/>
		<path fill="#FFFFFF" d="M704.6,696.9l-42.4,0.3c-0.6,0-1.1-0.5-1.1-1.1c0-0.6,0.5-1.1,1.1-1.1l42.4-0.3c0.6,0,1.1,0.5,1.1,1.1
			C705.7,696.4,705.2,696.9,704.6,696.9z"/>
		<path fill="#FFFFFF" d="M731,696.7l-18.6,0.1c-0.6,0-1.1-0.5-1.1-1.1c0-0.6,0.5-1.1,1.1-1.1l18.6-0.1c0.6,0,1.1,0.5,1.1,1.1
			C732.2,696.2,731.7,696.7,731,696.7z"/>
		<path fill="#FFFFFF" d="M731.2,723.2l-42.4,0.3c-0.6,0-1.1-0.5-1.1-1.1c0-0.6,0.5-1.1,1.1-1.1l42.4-0.3c0.6,0,1.1,0.5,1.1,1.1
			C732.4,722.7,731.9,723.2,731.2,723.2z"/>
		<path fill="#FFFFFF" d="M681,723.6l-18.6,0.1c-0.6,0-1.1-0.5-1.1-1.1c0-0.6,0.5-1.1,1.1-1.1l18.6-0.1c0.6,0,1.1,0.5,1.1,1.1
			C682.1,723.1,681.6,723.6,681,723.6z"/>
		<path fill="#FFFFFF" d="M726.3,753.5l-63.6,0.5c-0.6,0-1.1-0.5-1.1-1.1c0-0.6,0.5-1.1,1.1-1.1l63.6-0.5c0.6,0,1.1,0.5,1.1,1.1
			C727.4,753,726.9,753.5,726.3,753.5z"/>
		<path fill="#FFFFFF" d="M747.5,753.3l-13.2,0.1c-0.6,0-1.1-0.5-1.1-1.1c0-0.6,0.5-1.1,1.1-1.1l13.2-0.1c0.6,0,1.1,0.5,1.1,1.1
			C748.6,752.8,748.1,753.3,747.5,753.3z"/>
		<path fill="#FFFFFF" d="M747.7,786.7l-13.2,0.1c-0.6,0-1.1-0.5-1.1-1.1c0-0.6,0.5-1.1,1.1-1.1l13.2-0.1c0.6,0,1.1,0.5,1.1,1.1
			C748.9,786.2,748.3,786.7,747.7,786.7z"/>
		<path fill="#FFFFFF" d="M769.5,786.5l-13.2,0.1c-0.6,0-1.1-0.5-1.1-1.1c0-0.6,0.5-1.1,1.1-1.1l13.2-0.1c0.6,0,1.1,0.5,1.1,1.1
			C770.6,786,770.1,786.5,769.5,786.5z"/>
		<path fill="#FFFFFF" d="M705.1,766l-42.4,0.3c-0.6,0-1.1-0.5-1.1-1.1c0-0.6,0.5-1.1,1.1-1.1l42.4-0.3c0.6,0,1.1,0.5,1.1,1.1
			C706.3,765.5,705.8,766,705.1,766z"/>
		<path fill="#FFFFFF" d="M731.6,765.8l-18.6,0.1c-0.6,0-1.1-0.5-1.1-1.1c0-0.6,0.5-1.1,1.1-1.1l18.6-0.1c0.6,0,1.1,0.5,1.1,1.1
			C732.7,765.3,732.2,765.8,731.6,765.8z"/>
	</g>
	<g>
		<g>
			<path opacity="0.22" fill="#3F499C" d="M825.6,262.1l2.6,250.5c0,3.7-2.9,6.7-6.6,6.7l-149.7,1.5c-3.7,0-6.7-2.9-6.7-6.6
				l-2.6-250.5c0-3.7,2.9-6.7,6.6-6.7l149.7-1.5C822.6,255.5,825.6,258.4,825.6,262.1z"/>
			<path fill="#FFFFFF" d="M816.7,250.5l2.6,250.5c0,3.7-2.9,6.7-6.6,6.7l-149.7,1.5c-3.7,0-6.7-2.9-6.7-6.6l-2.6-250.5
				c0-3.7,2.9-6.7,6.6-6.7l149.7-1.5C813.7,243.9,816.7,246.8,816.7,250.5z"/>
			<g>
				<path fill="#6895CE" d="M817.3,250.4l0.1,14l-163.1,1.7l-0.1-14.3c0-3.5,2.8-6.4,6.3-6.5l150-1.5
					C814.2,243.7,817.2,246.7,817.3,250.4z"/>
				<g>
					<path fill="#FFFFFF" d="M797.1,252.3c-0.5,0-1-0.4-1-1c0-0.5,0.4-1,1-1l12.2-0.1c0.5-0.1,1,0.4,1,1c0,0.5-0.4,1-1,1
						L797.1,252.3C797.2,252.3,797.2,252.3,797.1,252.3z"/>
					<path fill="#FFFFFF" d="M797.2,255.4c-0.5,0-1-0.4-1-1c0-0.5,0.4-1,1-1l12.2-0.1c0.4,0,1,0.4,1,1c0,0.5-0.4,1-1,1L797.2,255.4
						C797.2,255.4,797.2,255.4,797.2,255.4z"/>
					<path fill="#FFFFFF" d="M797.2,258.6c-0.5,0-1-0.4-1-1c0-0.5,0.4-1,1-1l12.2-0.1c0,0,0,0,0,0c0.5,0,1,0.4,1,1c0,0.5-0.4,1-1,1
						L797.2,258.6C797.2,258.6,797.2,258.6,797.2,258.6z"/>
				</g>
				<path fill="#FFFFFF" d="M668.8,261.8c-0.2,0-0.5-0.1-0.7-0.3l-4.5-4.4c-0.5-0.5-0.5-1.4,0-1.9l4.2-4.3c0.4-0.4,1-0.4,1.4,0
					c0.4,0.4,0.4,1,0,1.4l-3.8,3.9l4.1,4c0.4,0.4,0.4,1,0,1.4C669.3,261.7,669.1,261.8,668.8,261.8z"/>
			</g>
			<path opacity="0.36" fill="#6895CE" d="M812.3,508.2l-150.3,0.8c-3.6,0-6.6-2.9-6.6-6.5l-0.3-52.1l163.4-0.9l0.3,52.1
				C818.9,505.3,816,508.2,812.3,508.2z"/>
			<path fill="#4F66AF" d="M768.9,301.6l-65.6,0.4c-1.2,0-2.2-1-2.2-2.2l0-7.2c0-1.2,1-2.2,2.2-2.2l65.6-0.4c1.2,0,2.2,1,2.2,2.2
				l0,7.2C771,300.7,770.1,301.6,768.9,301.6z"/>
			<g>
				<path opacity="0.32" fill="#6895CE" d="M789.8,348.6l-107,0.6c-5.1,0-9.2-4.1-9.3-9.2l0-2.3c0-5.1,4.1-9.2,9.2-9.3l107-0.6
					c5.1,0,9.2,4.1,9.3,9.2l0,2.3C799,344.4,794.9,348.6,789.8,348.6z"/>
				<g>
					<circle opacity="0.43" fill="#FFFFFF" cx="684.4" cy="339" r="6.4"/>
					<g>
						<circle fill="#FFFFFF" cx="684.4" cy="337.1" r="2.3"/>
						<path fill="#FFFFFF" d="M687.8,343l-6.8,0l0-0.8c0-2,1.6-3.6,3.5-3.6l0,0c1.8,0,3.2,1.4,3.2,3.2L687.8,343z"/>
					</g>
				</g>
			</g>
			<g>
				<path opacity="0.32" fill="#6895CE" d="M790,382.3l-107,0.6c-5.1,0-9.2-4.1-9.3-9.2l0-2.3c0-5.1,4.1-9.2,9.2-9.3l107-0.6
					c5.1,0,9.2,4.1,9.3,9.2l0,2.3C799.2,378.1,795.1,382.2,790,382.3z"/>
				<g>
					<circle opacity="0.43" fill="#FFFFFF" cx="684.6" cy="372.6" r="6.4"/>
					<g>
						<path fill="#FFFFFF" d="M686.7,376.6l-4.3,0c-0.3,0-0.6-0.3-0.6-0.6l0-3.8c0-0.3,0.3-0.6,0.6-0.6l4.3,0c0.3,0,0.6,0.3,0.6,0.6
							l0,3.8C687.3,376.3,687.1,376.6,686.7,376.6z"/>
						<path fill="#FFFFFF" d="M682.3,372l0-1.6c0-0.4,0.2-0.8,0.4-1.1s0.7-0.5,1.1-0.5l1.4,0c0,0,0,0,0,0c0.4,0,0.7,0.1,1,0.4
							c0.3,0.3,0.4,0.6,0.4,1l0,1.7l-0.5,0l0-1.7c0-0.2-0.1-0.5-0.3-0.6c-0.2-0.2-0.4-0.3-0.6-0.3c0,0,0,0,0,0l-1.4,0
							c-0.3,0-0.6,0.1-0.8,0.3c-0.2,0.2-0.3,0.5-0.3,0.8l0,1.6L682.3,372z"/>
					</g>
				</g>
			</g>
			<path fill="#F7A9B4" d="M761.8,419.9l-46.1,0.3c-5.6,0-10.1-4.5-10.2-10.1v0c0-5.6,4.5-10.1,10.1-10.2l46.1-0.3
				c5.6,0,10.1,4.5,10.2,10.1l0,0C771.9,415.3,767.4,419.8,761.8,419.9z"/>
		</g>
		<path fill="#FFFFFF" d="M692.3,472c-1.1,0-1.9-0.9-1.9-1.9c0-1.1,0.9-2,1.9-2l89.3-0.5c0,0,0,0,0,0c1.1,0,1.9,0.9,1.9,1.9
			c0,1.1-0.9,2-1.9,2L692.3,472C692.3,472,692.3,472,692.3,472z"/>
		<path fill="#FFFFFF" d="M710.5,485.4c-1.1,0-1.9-0.9-1.9-1.9c0-1.1,0.9-2,1.9-2l53.1-0.3c0,0,0,0,0,0c1.1,0,1.9,0.9,1.9,1.9
			c0,1.1-0.9,2-1.9,2L710.5,485.4C710.5,485.4,710.5,485.4,710.5,485.4z"/>
	</g>
	<g>
		<g>
			<path opacity="0.22" fill="#3F499C" d="M711.6,432.2l2.6,250.5c0,3.7-2.9,6.7-6.6,6.7L557.8,691c-3.7,0-6.7-2.9-6.7-6.6
				l-2.6-250.5c0-3.7,2.9-6.7,6.6-6.7l149.7-1.5C708.5,425.6,711.6,428.5,711.6,432.2z"/>
			<path fill="#FFFFFF" d="M702.7,420.6l2.6,250.5c0,3.7-2.9,6.7-6.6,6.7l-149.7,1.5c-3.7,0-6.7-2.9-6.7-6.6l-2.6-250.5
				c0-3.7,2.9-6.7,6.6-6.7l149.7-1.5C699.6,414,702.6,416.9,702.7,420.6z"/>
			<path opacity="0.42" fill="#6895CE" d="M702.7,420.6l2.6,250.5c0,3.7-2.9,6.7-6.6,6.7l-149.7,1.5c-3.7,0-6.7-2.9-6.7-6.6
				l-2.6-250.5c0-3.7,2.9-6.7,6.6-6.7l149.7-1.5C699.6,414,702.6,416.9,702.7,420.6z"/>
			<g>
				<path fill="#6895CE" d="M703.2,420.5l0.1,14l-163.1,1.7l-0.1-14.3c0-3.5,2.8-6.4,6.3-6.5l150-1.5
					C700.2,413.8,703.2,416.8,703.2,420.5z"/>
				<g>
					<path fill="#FFFFFF" d="M683.1,422.4c-0.5,0-1-0.4-1-1c0-0.5,0.4-1,1-1l12.2-0.1c0.5,0,1,0.4,1,1c0,0.5-0.4,1-1,1L683.1,422.4
						C683.1,422.4,683.1,422.4,683.1,422.4z"/>
					<path fill="#FFFFFF" d="M683.1,425.5c-0.5,0-1-0.4-1-1c0-0.5,0.4-1,1-1l12.2-0.1c0,0,0,0,0,0c0.5,0,1,0.4,1,1c0,0.5-0.4,1-1,1
						L683.1,425.5C683.1,425.5,683.1,425.5,683.1,425.5z"/>
					<path fill="#FFFFFF" d="M683.2,428.7c-0.5,0-1-0.4-1-1c0-0.5,0.4-1,1-1l12.2-0.1c0,0,0,0,0,0c0.5,0,1,0.4,1,1c0,0.5-0.4,1-1,1
						L683.2,428.7C683.2,428.7,683.2,428.7,683.2,428.7z"/>
				</g>
				<path fill="#FFFFFF" d="M554.8,431.9c-0.2,0-0.5-0.1-0.7-0.3l-4.5-4.4c-0.5-0.5-0.5-1.4,0-1.9l4.2-4.3c0.4-0.4,1-0.4,1.4,0
					c0.4,0.4,0.4,1,0,1.4l-3.8,3.9l4.1,4c0.4,0.4,0.4,1,0,1.4C555.3,431.8,555,431.9,554.8,431.9z"/>
			</g>
			<g opacity="0.36">
				<path fill="#FFFFFF" d="M698.3,678.3L548,679.2c-3.6,0-6.6-2.9-6.6-6.5l-0.3-52.1l163.4-0.9l0.3,52.1
					C704.8,675.4,701.9,678.3,698.3,678.3z"/>
				<path fill="#FFFFFF" d="M548,680.2c-2,0-3.9-0.8-5.3-2.2c-1.4-1.4-2.2-3.3-2.2-5.3l-0.3-53l165.3-0.9l0.3,53
					c0,4.2-3.3,7.6-7.5,7.6L548,680.2C548,680.2,548,680.2,548,680.2z M542.1,621.6l0.3,51.1c0,1.5,0.6,2.9,1.7,3.9
					c1.1,1,2.4,1.6,3.9,1.6c0,0,0,0,0,0l150.3-0.8c3.1,0,5.6-2.5,5.6-5.6l-0.3-51.1L542.1,621.6z"/>
			</g>
			<g>
				<path fill="#FFFFFF" d="M685.9,474.9l-117.8-0.1c-2.1,0-3.8-1.7-3.8-3.8l0-11.7c0-2.1,1.7-3.8,3.8-3.8l117.8,0.1
					c2.1,0,3.8,1.7,3.8,3.8l0,11.7C689.7,473.2,688,474.9,685.9,474.9z"/>
				<path fill="#FFFFFF" d="M686.5,489.8l-119-0.1c-1.8,0-3.2-1.4-3.2-3.2l0,0c0-1.8,1.4-3.2,3.2-3.2l119,0.1c1.8,0,3.2,1.4,3.2,3.2
					l0,0C689.7,488.4,688.3,489.8,686.5,489.8z"/>
				<path fill="#FFFFFF" d="M686.5,504.6l-119-0.1c-1.8,0-3.2-1.4-3.2-3.2l0,0c0-1.8,1.4-3.2,3.2-3.2l119,0.1c1.8,0,3.2,1.4,3.2,3.2
					l0,0C689.7,503.2,688.2,504.6,686.5,504.6z"/>
				<circle fill="#F7A9B4" cx="572.3" cy="526.3" r="8.1"/>
				<circle fill="#F7A9B4" cx="572.3" cy="562.8" r="8.1"/>
				<circle fill="#F7A9B4" cx="572.3" cy="598.3" r="8.1"/>
				<path fill="#FFFFFF" d="M662.1,523.4C662.1,523.4,662.1,523.4,662.1,523.4l-77.2-0.1c-0.5,0-1-0.4-1-1c0-0.5,0.4-1,1-1
					c0,0,0,0,0,0l77.2,0.1c0.5,0,1,0.4,1,1C663.1,523,662.7,523.4,662.1,523.4z"/>
				<path fill="#FFFFFF" d="M623.6,531.6C623.6,531.6,623.6,531.6,623.6,531.6l-38.6,0c-0.5,0-1-0.4-1-1c0-0.5,0.4-1,1-1
					c0,0,0,0,0,0l38.6,0c0.5,0,1,0.4,1,1C624.5,531.1,624.1,531.6,623.6,531.6z"/>
				<path fill="#FFFFFF" d="M662.1,561.2C662.1,561.2,662.1,561.2,662.1,561.2l-77.2-0.1c-0.5,0-1-0.4-1-1c0-0.5,0.4-1,1-1
					c0,0,0,0,0,0l77.2,0.1c0.5,0,1,0.4,1,1C663.1,560.7,662.6,561.2,662.1,561.2z"/>
				<path fill="#FFFFFF" d="M623.5,569.3C623.5,569.3,623.5,569.3,623.5,569.3l-38.6,0c-0.5,0-1-0.4-1-1c0-0.5,0.4-1,1-1
					c0,0,0,0,0,0l38.6,0c0.5,0,1,0.4,1,1C624.5,568.9,624,569.3,623.5,569.3z"/>
				<path fill="#FFFFFF" d="M662.1,595.6C662.1,595.6,662.1,595.6,662.1,595.6l-77.2-0.1c-0.5,0-1-0.4-1-1c0-0.5,0.4-1,1-1
					c0,0,0,0,0,0l77.2,0.1c0.5,0,1,0.4,1,1C663,595.2,662.6,595.6,662.1,595.6z"/>
				<path fill="#FFFFFF" d="M623.5,603.8C623.5,603.8,623.5,603.8,623.5,603.8l-38.6,0c-0.5,0-1-0.4-1-1c0-0.5,0.4-1,1-1
					c0,0,0,0,0,0l38.6,0c0.5,0,1,0.4,1,1C624.4,603.4,624,603.8,623.5,603.8z"/>
			</g>
		</g>
		<path fill="#FFFFFF" d="M578.3,642.1c-1.1,0-1.9-0.9-1.9-1.9c0-1.1,0.9-2,1.9-2l89.3-0.5c0,0,0,0,0,0c1.1,0,1.9,0.9,1.9,1.9
			c0,1.1-0.9,2-1.9,2L578.3,642.1C578.3,642.1,578.3,642.1,578.3,642.1z"/>
		<path fill="#FFFFFF" d="M596.5,655.5c-1.1,0-1.9-0.9-1.9-1.9c0-1.1,0.9-2,1.9-2l53.1-0.3c0,0,0,0,0,0c1.1,0,1.9,0.9,1.9,1.9
			c0,1.1-0.9,2-1.9,2L596.5,655.5C596.5,655.5,596.5,655.5,596.5,655.5z"/>
	</g>
</g>
<g>
	<g>
		<g>
			<path fill="#6895CE" d="M358.2,378.8H218.8c-1.7,0-3.1-1.4-3.1-3.1v-40.5c0-1.7,1.4-3.1,3.1-3.1h139.4c1.7,0,3.1,1.4,3.1,3.1
				v40.5C361.3,377.4,359.9,378.8,358.2,378.8z"/>
			<g>
				<path fill="#F7A9B4" d="M240.2,369.6c-8.3,0-15.1-6.8-15.1-15.1c0-8.3,6.8-15.1,15.1-15.1c8.3,0,15.1,6.8,15.1,15.1
					C255.2,362.8,248.5,369.6,240.2,369.6z"/>
				<path fill="#FFFFFF" d="M238.8,360.2l-5.6-7.8c-0.5-0.7-0.3-1.6,0.3-2.1c0.3-0.2,0.7-0.3,1.1-0.3c0.4,0.1,0.7,0.3,1,0.6l3.6,5
					l17.9-17.9c0.3-0.3,0.7-0.4,1-0.4h0c0.4,0,0.8,0.2,1.1,0.4c0.6,0.6,0.6,1.5,0,2.1L238.8,360.2z"/>
			</g>
			<g>
				<line fill="#FFFFFF" x1="268" y1="347.7" x2="342.5" y2="347.7"/>
				<path opacity="0.38" fill="#FFFFFF" d="M342.5,348.7H268c-0.5,0-1-0.4-1-1c0-0.5,0.4-1,1-1h74.5c0.5,0,1,0.4,1,1
					C343.5,348.2,343,348.7,342.5,348.7z"/>
			</g>
			<g>
				<line fill="#FFFFFF" x1="268" y1="356.5" x2="301.3" y2="356.5"/>
				<path opacity="0.38" fill="#FFFFFF" d="M301.3,357.5H268c-0.5,0-1-0.4-1-1c0-0.5,0.4-1,1-1h33.3c0.5,0,1,0.4,1,1
					C302.2,357.1,301.8,357.5,301.3,357.5z"/>
			</g>
			<g>
				<line fill="#FFFFFF" x1="309.2" y1="356.5" x2="342.5" y2="356.5"/>
				<path opacity="0.38" fill="#FFFFFF" d="M342.5,357.5h-33.3c-0.5,0-1-0.4-1-1c0-0.5,0.4-1,1-1h33.3c0.5,0,1,0.4,1,1
					C343.5,357.1,343,357.5,342.5,357.5z"/>
			</g>
			<g>
				<line fill="#FFFFFF" x1="268" y1="365.8" x2="342.5" y2="365.8"/>
				<path opacity="0.38" fill="#FFFFFF" d="M342.5,366.8H268c-0.5,0-1-0.4-1-1c0-0.5,0.4-1,1-1h74.5c0.5,0,1,0.4,1,1
					C343.5,366.3,343,366.8,342.5,366.8z"/>
			</g>
		</g>
		<g>
			<g>
				<path fill="#6895CE" d="M891.4,593.8H752c-1.7,0-3.1-1.4-3.1-3.1v-40.5c0-1.7,1.4-3.1,3.1-3.1h139.4c1.7,0,3.1,1.4,3.1,3.1v40.5
					C894.5,592.4,893.1,593.8,891.4,593.8z"/>
				<g>
					<path fill="#F7A9B4" d="M773.3,584.6c-8.3,0-15.1-6.8-15.1-15.1c0-8.3,6.8-15.1,15.1-15.1s15.1,6.8,15.1,15.1
						C788.4,577.8,781.6,584.6,773.3,584.6z"/>
					<path fill="#FFFFFF" d="M772,575.2l-5.6-7.8c-0.2-0.3-0.3-0.7-0.3-1.1c0.1-0.4,0.3-0.7,0.6-1c0.3-0.2,0.7-0.3,1.1-0.3
						c0.4,0.1,0.7,0.3,1,0.6l3.6,5l17.9-17.9c0.6-0.6,1.5-0.6,2.1,0c0.6,0.6,0.6,1.5,0,2.1L772,575.2z M767.2,566.8
						C767.2,566.8,767.2,566.8,767.2,566.8L767.2,566.8z"/>
				</g>
				<g>
					<line fill="#FFFFFF" x1="801.2" y1="562.7" x2="875.7" y2="562.7"/>
					<path opacity="0.38" fill="#FFFFFF" d="M875.7,563.6h-74.5c-0.5,0-1-0.4-1-1c0-0.5,0.4-1,1-1h74.5c0.5,0,1,0.4,1,1
						C876.7,563.2,876.2,563.6,875.7,563.6z"/>
				</g>
				<g>
					<line fill="#FFFFFF" x1="801.2" y1="571.5" x2="834.5" y2="571.5"/>
					<path opacity="0.38" fill="#FFFFFF" d="M834.5,572.5h-33.3c-0.5,0-1-0.4-1-1c0-0.5,0.4-1,1-1h33.3c0.5,0,1,0.4,1,1
						C835.4,572.1,835,572.5,834.5,572.5z"/>
				</g>
				<g>
					<line fill="#FFFFFF" x1="842.4" y1="571.5" x2="875.7" y2="571.5"/>
					<path opacity="0.38" fill="#FFFFFF" d="M875.7,572.5h-33.3c-0.5,0-1-0.4-1-1c0-0.5,0.4-1,1-1h33.3c0.5,0,1,0.4,1,1
						C876.7,572.1,876.2,572.5,875.7,572.5z"/>
				</g>
				<g>
					<line fill="#FFFFFF" x1="801.2" y1="580.8" x2="875.7" y2="580.8"/>
					<path opacity="0.38" fill="#FFFFFF" d="M875.7,581.7h-74.5c-0.5,0-1-0.4-1-1c0-0.5,0.4-1,1-1h74.5c0.5,0,1,0.4,1,1
						C876.7,581.3,876.2,581.7,875.7,581.7z"/>
				</g>
			</g>
		</g>
	</g>
</g>
<rect x="326.9" y="980.9" fill="none" width="333" height="39"/>
<text transform="matrix(1 0 0 1 333.7043 1012.8135)" fill="#3F499C" font-family="'Nunito-Bold'" font-size="45">Customer View</text>
</svg>
