<?xml version="1.0" encoding="utf-8"?>
<!-- Generator: Adobe Illustrator 18.1.1, SVG Export Plug-In . SVG Version: 6.00 Build 0)  -->
<svg version="1.1" id="Layer_1" xmlns="http://www.w3.org/2000/svg" xmlns:xlink="http://www.w3.org/1999/xlink" x="0px" y="0px"
	 viewBox="0 0 500 500" enable-background="new 0 0 500 500" xml:space="preserve">
<rect x="50.9" y="425.1" fill="none" width="398.1" height="39"/>
<text transform="matrix(1 0 0 1 65.2474 446.4444)" fill="#B81F3A" font-family="'Nunito-Bold'" font-size="30">Dock Management System</text>
<g>
	<g>
		<path fill="#C3DFF5" d="M314.8,248.2v-3.2l0-12l-27.6,0.1h-0.8h-2.5l-13.9,0l0,0l-13.5,0h-0.1l0,12.6l0.1,0l0.1,51.9H268l0-11.3
			l0-17.4l15.8,0h2.7h0.6l27.9-0.1l0,0L314.8,248.2z M292,227.9c0,0-0.1,0-0.1,0c-0.1,0-0.2,0-0.3,0.1c-0.1,0-0.2,0.1-0.3,0.1l0,0
			h1.1C292.2,228,292.1,228,292,227.9z M301.4,356.2c-0.1-0.3-0.2-0.6-0.4-0.9c-0.1-0.2-0.2-0.4-0.3-0.6c-0.1-0.2-0.2-0.5-0.4-0.7
			c-0.1-0.3-0.3-0.5-0.4-0.7c-0.7-1.2-1.5-2.3-2.4-3.2l0,0c-0.3-0.3-0.7-0.6-1-0.9c-0.3-0.2-0.6-0.5-0.8-0.6
			c-0.4-0.3-0.8-0.6-1.2-0.8h9.4v-3.2v-7.8l-16.8,0h-0.8l0,0h-2.4l-7,0h-4.1h-0.1l0,11.1v1.5l0.1,0v1.2l0,20.7l0,0v3.2H287v-3.2
			h13.8c0.1-0.1,0.1-0.3,0.2-0.5c0.1-0.3,0.2-0.6,0.4-0.9c0-0.1,0.1-0.2,0.1-0.4c0.5-1.5,0.9-3.1,1-4.8c0-0.6,0.1-1.2,0.1-1.8
			c0-0.6,0-1.2-0.1-1.8C302.4,359.5,302,357.8,301.4,356.2z M173.7,376v3.8h2l11.9,0h4.8h12l0.1-0.1v0.1h49.3V376L173.7,376
			L173.7,376z M320.8,68.1l-0.1-25.7l-29.1,0.1l0,0l-8.7,0h0v8.2l0,0l0,17.3H166V380h168.5v0.1h22.9v-312L320.8,68.1L320.8,68.1z
			 M314.9,297.7v-3.2l0-25.7l0,0l0-20.6v-3.2l0-12l-27.6,0.1h-0.8h-2.5l-13.9,0l0,0l-13.5,0h-0.1l0,12.6l0.1,0l0.1,51.9H270v0h-41.9
			l-0.1-40l-44.9,0.1l0,0l-13.3,0V228h121.4l0,0h39.4v0.9l0,0v68.8L314.9,297.7L314.9,297.7z M205.9,297.8h-0.1v0L205.9,297.8z
			 M169.8,297.8L169.8,297.8v-0.6V297.8z M169.8,71.7h160.9v69.7H169.8V71.7z M169.8,149.9h160.9v69.7h-45.8l-0.1-40l-44.9,0.1l0,0
			l-13.5,0h0l0,12.6l0.1,0.1l0,27h-56.7V149.9z M169.8,306.3h160.9v30.1l0,0H329l-25.3,0.1l-16.8,0h-0.8l0,0h-2.4l-7,0h-4.1h-0.1
			l0,11.1v1.5l0.1,0v1.2l0,20.7l0,0v3.2v1v0.4h-103V306.3z"/>
		<g>
			<g>
				
					<rect x="173.7" y="325.3" transform="matrix(-1 -3.085998e-003 3.085998e-003 -1 407.9706 705.823)" fill="#F79121" width="61.6" height="54.6"/>
				<polygon fill="#FBAA32" points="253.9,325.5 204.6,325.3 204.4,379.9 253.7,380.1 				"/>
				<polygon fill="#FBAA32" points="204.4,325.3 253.9,325.5 253.8,342.8 204.3,379.9 				"/>
			</g>
			<g>
				
					<rect x="136.2" y="344.9" transform="matrix(-1 -3.078845e-003 3.078845e-003 -1 310.7851 725.288)" fill="#F79121" width="39.6" height="35.1"/>
				<polygon fill="#FBAA32" points="187.7,345 156,344.9 155.9,379.9 187.6,380.1 				"/>
				<polygon fill="#FBAA32" points="156,344.9 187.7,345 187.7,356.1 155.9,379.9 				"/>
			</g>
		</g>
		<path fill="#B81F3A" d="M302.5,361.3c-0.1-1.8-0.6-3.6-1.1-5.2c-0.1-0.3-0.2-0.6-0.4-0.9c-0.1-0.2-0.2-0.4-0.3-0.6
			c-0.1-0.2-0.2-0.5-0.4-0.7c-0.1-0.3-0.3-0.5-0.4-0.7c-0.7-1.2-1.5-2.3-2.4-3.2l0,0c-0.3-0.3-0.7-0.6-1-0.9
			c-0.3-0.2-0.6-0.5-0.8-0.6c-0.4-0.3-0.8-0.6-1.3-0.8c-0.2-0.1-0.3-0.2-0.5-0.3c-1.4-0.7-2.9-1.1-4.5-1.2c-0.2,0-0.5,0-0.7,0h-6.5
			c-7.7,0-13.9,7.6-13.9,17c0,9.4,6.2,17,13.9,17h6.5c0.2,0,0.5,0,0.7,0c1.6-0.1,3.1-0.5,4.5-1.2c0.2-0.1,0.3-0.2,0.5-0.3
			c0.5-0.2,0.9-0.5,1.3-0.8c0.3-0.2,0.6-0.4,0.8-0.6c0.4-0.3,0.7-0.6,1-0.9l0,0c0.9-0.9,1.8-2,2.4-3.2c0.1-0.2,0.3-0.5,0.4-0.7
			c0.1-0.2,0.2-0.5,0.4-0.7c0.1-0.2,0.2-0.4,0.3-0.6c0.1-0.3,0.2-0.6,0.4-0.9c0.6-1.6,1-3.3,1.1-5.2c0-0.6,0.1-1.2,0.1-1.8
			C302.6,362.5,302.6,361.9,302.5,361.3z"/>
		<g>
			<path fill="#FBAA32" d="M166.1,203h-3.3c0.2-0.6,0-1.4-0.6-1.6c-0.6-0.2-1.2,0.1-1.5,0.8c-0.1,0.3-0.1,0.5-0.1,0.8h-3.2
				c-0.1,0-0.2,0-0.3,0.1l-0.6,0.7l-0.4,0.4l0,0c-0.2,0.2,0,0.6,0.3,0.6h8.6c0.1,0,0.2,0,0.3-0.1l0.5-0.6l0.2-0.2l0.2-0.2l0.2-0.2
				C166.6,203.4,166.4,203,166.1,203z M161.4,202.6c0.1-0.2,0.3-0.3,0.5-0.3c0.2,0.1,0.3,0.3,0.2,0.6s-0.3,0.3-0.5,0.3
				C161.4,203,161.3,202.8,161.4,202.6z"/>
			<g>
				<path fill="#5E1011" d="M104.2,114.7l-10.5,8.2c-0.5,0.8,0.6,0.8,0.1,1.8c-4.2,8.8-1.4,18.1,2.2,17.2c2.3-0.6,3,3.3,3,3.3
					l22.5-18.2C121.5,127,113.3,109.9,104.2,114.7z"/>
				<path fill="#0B1C3B" d="M112.1,372.6l-4.8,1.8c0,0-20.8-28.8-23.3-54.1c-0.5-4.5-0.3-8.9,0.7-13c0,0-0.2-1.2-0.6-3.2
					c-0.2-1-0.4-2.1-0.6-3.4c-0.7-3.9-1.6-9.1-2.7-15.2c-2.4-13.8-5.6-31.6-8.1-44.6l1.3-0.4l13.9-4.5l2.9-9.1l10.4-2.7
					c0,0,2.3,4.5,4.4,25.9c0.4,2.8,0.7,5.9,1,9.3c0.8,10.2,0.9,23-1,37.5c-0.5,3.7-1.1,7.6-1.8,11.5c-0.6,2.9-0.6,6.8-0.4,11.4
					C104.5,340.4,112.1,372.6,112.1,372.6z"/>
				<path fill="#0B1B33" d="M106.6,259.3l-22.5,44.8c-0.2-1-0.4-2.1-0.6-3.4c-0.7-3.9-1.6-9.1-2.7-15.2c-2.4-13.8-5.6-31.6-8.1-44.6
					l1.3-0.4L88,236l2.9-9.1l10.4-2.7c0,0,2.3,4.5,4.4,25.9C106,252.9,106.4,256,106.6,259.3z"/>
				<path fill="#0B1C3B" d="M96.7,229.8l-0.5-4.5c-8.7,2.3-32.1-6.5-32.1-6.5s-8.4,7.4-7.3,25.3c0.6,8.7,1.5,45.7,2.6,56.6
					c0.4,4,0.7,6.8,0.8,7.9l0,0c0,0.3-0.1,0.6-0.3,1c-1.5,2.6-2.8,5.3-3.8,8c-10.2,27,1.6,60.4,1.6,60.4l3-1.2
					c0,0,6.6-37.1,12.1-53.5c0.9-2.8,1.8-5,2.6-6.3c2.4-3.8,4.5-10,6.5-17.4c3.7-14,6.8-32.1,8.8-46.2
					C91,253.6,96.7,229.8,96.7,229.8z"/>
				<path fill="#F36C4B" d="M165.5,224.2c-1.9,1.7-6.9-4.1-7.6-4.8c0-0.1-0.1-0.1-0.1-0.1l1.5-4.2c0,0,6.6-0.2,7.6,0.8
					C168.2,216.9,167.6,222.4,165.5,224.2z"/>
				<path fill="#F36C4B" d="M159.4,215l-0.6,4.4c0,0-0.3,0-0.8,0c-1.6-0.1-5.4-0.3-9.8-0.8c-6.6-0.6-14.4-1.8-17.5-3.7
					c-4.8-2.9-12.5-11.8-17.6-20.6c-0.1-0.2-0.2-0.4-0.4-0.6c-2.6-4.7-4.5-9.4-4.6-13.1c-0.1-2.3,0.1-4.2,0.6-5.9
					c0.6-2.3,1.6-4,2.7-5.4c0.1-0.2,0.3-0.4,0.5-0.6c1.8-2.1,3.4-2.9,3.4-2.9c0.9-0.4,1.8,0.1,2.8,1.1v0c0.8,0.8,1.7,2.1,2.5,3.7
					c0,0,0.1,0.1,0.1,0.1c0.2,0.3,0.4,0.7,0.6,1.1c0.1,0.1,0.1,0.2,0.1,0.2c0.4,0.8,0.8,1.7,1.2,2.6c4.4,9.7,9.2,24.4,13.1,28.8
					c1.7,1.9,9.5,5.6,15.6,8.3C155.8,213.6,159.4,215,159.4,215z"/>
				<path fill="#F68B65" d="M113.4,175.6c-2.7,1.3-6,2.1-10.1,2.4c-15,0.8-18.4-12.3-19.1-21.1c2.2-0.8,4.1-0.7,5.2-0.6
					c1.1,0,2.2,0.2,3.1,0.3c1.8-1,5.1-5.6,7.1-13.4l0.6,0.3l10.8,5.1c0,0-1.2,3.5-2,6.9c-0.6,2.6-1.2,5.2-0.7,5.9
					c0.9,0.4,1.4,0.6,1.4,0.6l0,0C109.8,162.2,112.2,168.2,113.4,175.6z"/>
				<path fill="#5DABCE" d="M117.2,185.5c-0.1,0.3-0.2,0.6-0.4,0.9c-3.8,8.2-10.8,42.1-10.8,42.1c1,6.1-45.8-1.2-46-6.7
					c-1.7-5.9,5.9-15.4,10.1-20.1c0.5-0.6,1-1.2,1.4-1.9c1.1-1.7,1.7-3.6,1.9-5.6c0.8-7.9,0.5-15.3,0.6-19.8l0,0
					c0.8-0.6,1.6-1.2,2.4-1.7c1.2-0.8,2.1-1.6,2.9-2.4c0.8-0.9,1.3-1.8,1.4-2.7c0-0.7,0-1.5,0-2.3c0-0.4-0.1-0.7-0.1-1.1
					c-0.6-3.8-2.2-7.2-2.2-7.2c4-1.6,11.2-0.6,11.2-0.6s0,0.4,0,1.1c0,2.6,0,9.3,0.8,10.6c1.1,1.6,20.3,8.5,21.3,6.4
					c1-2.1-1.8-12-1.8-12.4l0,0c6.4,2.5,8.7,4.7,8.7,4.7C114.6,169.1,120.2,177.6,117.2,185.5z"/>
				<path fill="#F36C4B" d="M111.1,148.5c0,0-1.2,3.5-2,6.9c-6.3-1.8-8.3-8.4-8.8-12L111.1,148.5z"/>
				<path fill="#F68B65" d="M112.4,152.3c0,0-15.1-3.5-12.8-12.9s1.9-16.2,11.7-14.4s10.8,5.9,10.8,9.2
					C122,137.5,116.4,152.9,112.4,152.3z"/>
				<path fill="#5E1011" d="M122.9,128.9c-1.6-3.4-3.6-3.2-4.8-2.6c-7.1-6.6-17.9-3.3-17.9-3.3c-2.7,6.5-4.7,11.2-4.7,11.2
					s2.3,2.4,9.1,2.4c2.1,0,4.2-1,6-2.3c-3.6,3.6-7.9,5.9-7.9,5.9c8.4-1.6,14.1-11.4,14.7-12.4c0.7,1.1,2.1,3.3,2.2,5.2
					c0.1,2.6-0.7,7.6,0.7,7.8C120.4,140.7,125.3,134,122.9,128.9z"/>
				<path fill="#5DABCE" d="M118.4,166.5c0,0,3.6,6.4,4.2,8c0,0-4.8-0.2-6.6,3.5C116,178,115.5,167.4,118.4,166.5z"/>
				<path fill="#4096C7" d="M93.3,217.1c-9.2-0.1-17.1-9.7-21.8-17.4c1.1-1.7,1.7-3.6,1.9-5.6c0.8-7.9,0.5-15.3,0.6-19.8l0,0
					c0.8-0.6,1.6-1.2,2.4-1.7c1.2-0.8,2.1-1.6,2.9-2.4C86.8,183.1,105.8,217.2,93.3,217.1z"/>
				<path fill="#B81F3A" d="M75.3,380.6h-24c0,0-0.6-3.6,0.7-6.5c1.2-2.7,3.1-3.9,2.6-7.1c1.5,1.6,4,3.3,7.5,2.9
					c0.4,0.7,2.8,4.4,4.2,5.4C67.9,376.5,74.9,376.1,75.3,380.6z"/>
				<path fill="#B81F3A" d="M127,380.6h-24c0,0-0.9-3.8,0.7-6.5c1.4-2.3,0.9-3.6-0.2-5.5c1.1,0.5,2.5,0.8,4.1,0.8
					c1.2,0,2.4-0.6,3.6-1.2c1,1.2,5.5,6.2,6.9,7.2C119.5,376.5,126.5,376.1,127,380.6z"/>
				<g>
					<polygon fill="#B81F3A" points="149.4,203.9 126,234.4 126.3,234.8 150.1,204.3 					"/>
					<polygon fill="#0B1C3B" points="150,204.4 173.8,204.4 148.9,234.8 126.3,234.8 					"/>
				</g>
				<path fill="#F68B65" d="M145.1,222.8c0-1.2-1.7-1.2-2.9-1.2c-2,0-5.1-0.1-7-0.8c0,0,5.8-0.1,4.6-1.9c-0.2-0.3-3.1-0.1-6.3-0.1
					c-1.3,0-4.6,1.8-4.4,1.9c-2.4-0.3-4.5-0.7-5.1-0.9l0,0c-1.6-0.9-3.5-1.9-5.5-3.1c-4.9-2.8-10.5-6.1-14.3-8.9
					c-2.2-1.6-3.9-3-4.4-4c-0.9-1.6-1.9-4-3-7.1c-0.6-1.6-1.2-3.3-1.8-5.2c-1.1-3-2.2-6.3-3.3-9.6c-2-6-4.2-12-6.3-16.7
					c-1.3-2.9-2.6-5.4-3.9-6.8c-1-1.2-1.9-1.8-2.8-1.7c-0.1,0-0.2,0.1-0.4,0.1c0,0-5.2,1.4-5.3,12c0,0.6,0,1.2,0,1.8
					c0.1,1.8,0.4,4.1,1,6.6c0.9,4.1,2.3,8.9,4.1,13.8c0.5,1.3,1,2.6,1.6,4c3.9,9.7,9,18.7,13.2,21.8c0.2,0.1,0.3,0.2,0.5,0.4
					c1.8,1.1,4.4,2.3,7.4,3.3c4.2,1.4,9.3,2.8,13.8,3.8h0c2.6,0.6,5.1,1.1,7.1,1.5c0,0,0.3,0.1,0.9,0.2c0.1,0,0.2,0,0.3,0
					c1.9,0.5,5.9,1.5,9.6,2.9c5.2,2.1,9-0.5,10.8-2.3C144.3,225.5,145.2,223.9,145.1,222.8z"/>
				<path fill="#5DABCE" d="M85.3,165.3c-7-1.9-12.3,3.5-12.3,3.5c0.1-10.5,5.3-11.9,5.3-11.9C80.4,156,84.8,158.4,85.3,165.3z"/>
			</g>
			<g>
				<path fill="#FBAA32" d="M113.7,109.4c-3.5-0.8-6.4-0.7-8.8-0.1c-0.2,0-0.5,0.1-0.7,0.2l0,0c-9.4,2.8-11.8,13.7-11.8,13.7
					s-0.4,2.9-0.3,4.1c0.1,1.2,9,4.4,10.4,2.9c1.3-1.6,4-2.6,4-2.6s9.2,3.9,9.8,4.2c2.1,0.9,8.8,1.8,8.8,1.8
					C125.4,132.9,131.2,113.4,113.7,109.4z"/>
				<path fill="#F79121" d="M131.3,134.3c-0.9-0.8-2.6-2-5.5-3.6c0,0-3.6,0.8-9.4-0.1c-0.8-4.2-3.9-14.7-11.5-21.2l0,0
					c-0.3,0.1-0.5,0.2-0.6,0.3l0,0c0,0-0.1,0-0.2,0.1c6.5,4.8,9.1,16.2,9.9,20.4c-2.2-0.5-4.7-1.3-7.4-2.4c0,0,6.8,7.3,24.3,8.1
					C131.6,135.6,131.9,134.8,131.3,134.3z"/>
			</g>
			<polygon fill="#B81F3A" points="149.4,203.9 173.3,203.9 173.8,204.4 150,204.4 			"/>
		</g>
		<path fill="#D71E44" d="M329.5,347.5h-43c-0.8,0-1.5-0.7-1.5-1.6c0-0.9,0.7-1.6,1.5-1.6h43c0.8,0,1.5,0.7,1.5,1.6
			C331.1,346.8,330.4,347.5,329.5,347.5z"/>
		<path fill="#D71E44" d="M330,297.7h-43.9c-0.9,0-1.6-0.7-1.6-1.6c0-0.9,0.7-1.6,1.6-1.6H330c0.9,0,1.6,0.7,1.6,1.6
			C331.5,297,330.8,297.7,330,297.7z"/>
		<g>
			<path fill="#5DABCE" d="M357.2,223.6c2.6,0.6,14.4,0.7,22.6-1.1c1.7-0.4,3.3-0.9,4.6-1.4c1.6-0.7,2.7-1.5,3.3-2.5
				c0.9-1.6,2.6-6.9,4.7-13.8c5.5-19.2,13.3-51,13.3-51s-15.6,3.2-18.9,5.9c-3.3,2.7-6.2,45.9-9.3,47.1c-0.5,0.2-1.2,0.6-2.3,1
				c0,0-0.1,0-0.1,0.1c-0.6,0.3-1.3,0.6-2,1c-6.5,3.3-17.1,9.3-18.2,10.6C353.2,221.2,353.3,222.7,357.2,223.6z"/>
			<path fill="#5DABCE" d="M437.4,218.6c0-0.8-0.1-1.6-0.1-2.4c-0.1-1.3-0.2-2.5-0.2-3.8c-0.5-7.7-1-14.4-1-15
				c-0.1-1,0.2-2.6,0.6-4.8c0.3-1.5,0.8-3.3,1.2-5.1c2.4-9.4,6.2-22.3,4.9-26.9c-0.2-0.6-0.5-1.1-0.8-1.4c-2.2-1.6-6.1-3.1-9.7-4
				c-0.1,0-0.3,0-0.4-0.1c0,0-0.1,0-0.1,0s0,0-0.1,0c-0.3,0-0.5-0.1-0.8-0.2c0,0-0.1,0-0.2,0c-0.1,0-0.2,0-0.3,0c-0.1,0-0.1,0-0.2,0
				s-0.2,0-0.3,0c0,0-0.1,0-0.2,0c-0.5-0.1-0.9-0.2-1.2-0.2c0,0,0,0-0.1,0c0,0,0,0-0.1,0c0,0,0,0-0.1,0c-0.4,0-0.8-0.1-1.2-0.2
				c-0.9-0.1-3.6-0.5-3.6-0.5c0,0,0,0,0,0.1v0c-0.2,2.8-6.1,5.4-10.9,5.1c-4.1-0.3-6.8-3.4-6.8-5.1v-0.2c0,0,0,0,0,0
				c-0.2,0.1-1.7,1.1-3.7,2.8c-2.5,2-5.8,5-8.7,8.5c-2.8,3.4-5.2,7.3-5.9,11.1c-0.1,0.7-0.2,1.5-0.2,2.2c0,3.6,0,7.2,0,10.4
				c0.1,11.7,0.5,21,1.2,28.5c1.7,18.9,5.4,25.6,11.9,27.2c0.6,0.1,1.2,0.2,1.8,0.3c1.4,0.1,3,0.2,4.6,0.2c4.9,0,9.4-0.5,13.4-1.3
				c1.5-0.3,2.9-0.6,4.2-1l0,0c0.2,0,0.3-0.1,0.5-0.1c0.2-0.1,0.5-0.1,0.7-0.2c0.2,0,0.4-0.1,0.6-0.2c0,0,0.1,0,0.1,0
				c4.8-1.5,8.4-3.3,10.4-4.7c0.7-0.5,1.3-1,1.6-1.3c0.2-0.2,0.3-0.5,0.3-0.6c0-0.5-0.5-7.9-1-16.2
				C437.5,219,437.4,218.8,437.4,218.6z"/>
			<path fill="#F68B65" d="M423.3,153.5c0.1-4.3,0-9.4-0.6-13.8l-17.2,2.8c0,0,0,5.2,0,11c0,0-0.5,5.4,6.2,6.2
				C418.5,160.6,423.5,157.7,423.3,153.5z"/>
			<path fill="#B81F3A" d="M409,380.6c2.2-1.3,0.9-11.2,0.9-11.2s-10.1-8-11.4-1.8s-9.6,9-14.2,9.7c-3.2,0.6-4.4,2.2-4.7,3.2
				L409,380.6z"/>
			<path fill="#4096C7" d="M424.7,211.5c0,16.4,8,12,12.8,7.6c-0.6-9.9-1.1-45.1-1.1-45.1S424.7,188,424.7,211.5z"/>
			<path fill="#4096C7" d="M373,208.8c0.3,2.3,4,9,6.8,13.7c1.7-0.4,3.3-0.9,4.6-1.4c1.6-0.7,2.7-1.5,3.3-2.5
				c0.9-1.6,2.6-6.9,4.7-13.8c-1.5-8.6-2.9-17.1-2.9-17.1l-0.4-5.7c0,0.4-6.6,25.4-9.7,26c-1.8,0.4-3.1-0.1-4.2-0.2
				c0,0-0.1,0-0.1,0.1C374.4,208.1,373.7,208.4,373,208.8z"/>
			<path fill="#B81F3A" d="M439.9,380.6c2.2-1.3,0.9-11.2,0.9-11.2s-10.1-8-11.4-1.8c-1.3,6.2-9.6,9-14.2,9.7
				c-3.2,0.6-4.4,2.2-4.7,3.2L439.9,380.6z"/>
			<path fill="#5E1011" d="M425,134.9c0,0,11.4-18-10.5-19.2c0,0-8.3,1-10.1-0.9c0,0-6.4,9.7-0.4,20.1
				C409.9,145.3,425,134.9,425,134.9z"/>
			<path fill="#F68B65" d="M406.1,144.3c1.7,1.3,6.6,2.6,8,2.8c0,0,7.2-1.6,8.6-2.4c2-1.2,1.9-3.7,2-7.2c0.1-4.1,0.6-7.3,0.1-9.7
				c-0.6-2.9-2.4-4.5-7.4-4.9c-9.3-0.8-13.1,1.5-13.3,4.6c0,0.8-0.1,1.6-0.1,2.4C403.6,139.5,404.4,142.9,406.1,144.3z"/>
			<path fill="#5E1011" d="M403.9,133c0.1,5.6,1.6,8.9,2.7,9.3c1.2,0.5,2.7,0.9,4.3,1.2c0.5,0,1,0,1-0.2c0-0.9-1.2-2-0.3-2.8
				c0.9-0.8,5.9-1.1,6.3,0.7c0.2,0.9-1.4,2.4-0.3,2.4c0.3,0,0.6-0.1,1-0.2c1.8-0.5,3.2-1.3,3.8-1.7c2-1.2,1.9-3.1,2.4-6.6
				c0.3-2.2,0.3-1,0,2.3c-0.3,3.5,0.3,5.7-2,7.2c-1.3,0.8-8.7,4.2-8.7,4.2c0.1-1.8-6.2-3.2-7.8-4.5
				C404.6,143.1,403.8,140.3,403.9,133z"/>
			<path fill="#0B1C3B" d="M438.5,235.2c0,0.9-4.6,4.2-12.4,6.6c-0.6,0.2-1.3,0.4-1.9,0.6l0,0c-0.7,8.5-2.7,20.5-4.5,32.1l0,0
				c-0.5,3-0.9,6-1.3,8.9c-1.1,7.6-1.9,14.6-2,19.6v0c0,2.3,1.9,8,2,9.3c0.1,0.8,0.2,1.7,0.2,2.5c0.2,3.6,0.1,7.8-0.2,12.3
				c-1.3,19.7-6.5,45-8.4,46c-3.7,2.1-10.4,0-13.8-0.5c-1.4-0.2-2.5-1.4-2.5-2.9c1.7-32.7-3.1-78.3-6.7-106.3
				c-0.1-0.7-0.2-1.4-0.3-2.2c-0.4-3.3-0.7-6.4-0.9-9.2c-0.2-2.4-0.2-4.7-0.3-6.6c0-0.6,0-1.2,0-1.7c0-1.8,1.4-13.2,1.4-65.9l0,0
				c0-1.2,1-2.2,2.2-2.2h32.2c3.1,0,5.6,2.5,5.6,5.6c0,4,0.1,9.6,1,15c1.2,7.3,3.7,14.1,9,15.8l0,0c0,0,0.2,0.4,0.4,0.9l0,0
				c0,1.3,0.1,2.7,0.2,4c0,0.3,0,0.6,0,0.8c0,0.2,0,0.3,0,0.5c0,0.3,0,0.6,0,0.8c0,0.5,0,0.9,0.1,1.4c0,0.4,0,0.7,0,1.1
				c0,0.7,0.1,1.4,0.1,2.2c0,0.2,0,0.5,0,0.7c0,0.9,0.1,1.9,0.2,2.9c0,0.3,0,0.6,0,0.9c0,0.1,0,0.3,0,0.4c0,0.4,0,0.7,0.1,1.2
				c0,0.4,0,0.8,0.1,1.2C438.7,232.9,438.4,234.2,438.5,235.2z"/>
			<path fill="#0B1C3B" d="M418.5,327.4c-1.3,19.7-6.5,45-8.4,46c-3.7,2.1-10.4,0-13.8-0.5c-1.4-0.2-2.5-1.4-2.5-2.9
				c1.7-32.7-3.1-78.3-6.7-106.3c-0.1-0.7-0.2-1.4-0.3-2.2c-0.4-3.3-0.7-6.4-0.9-9.2c1.7-11.1,11.3-11.7,20,11.3
				C405,271.3,418.8,322.8,418.5,327.4z"/>
			<path fill="#0B1C3B" d="M438.9,302.1c0.3,2.3,3,7.7,3.2,9c4.4,17.7,2,59.8-0.2,61.5c-3.4,2.6-10.3,1.4-13.8,1.3
				c-1.4,0-2.7-1.1-2.8-2.5c-2.7-33.5-13.9-79.6-21.2-106.6c-3.6-13.7-4.2-23.7-4.2-23.7s33.8-20.7,37.4-9.4
				C440.6,241.8,436.8,284.6,438.9,302.1z"/>
			<g>
				<path fill="#FBAA32" d="M404.5,110.5c0.2-0.3,0.5-0.5,0.7-0.8c1.1-1.1,2.4-1.9,4-2.6c5.9-2.4,10.8-0.2,13.8,2.1
					c0.3,0.2,0.6,0.5,0.8,0.7c1.7,1.4,2.6,2.7,2.6,2.7s2.9,3.9,2.8,12.1l-29.4,0.3C399.8,125.1,399.4,116.2,404.5,110.5z"/>
				<g>
					<path fill="#F79121" d="M421,124.9h-1.6c0-0.5,0-11.2,4-15.3c0.3,0.2,0.2,0.2,0.5,0.4C420.1,113.7,421,124.7,421,124.9z"/>
					<path fill="#F79121" d="M408.2,125c-0.3-6.6-2.9-13.4-3.5-14.6c0.2-0.3,0.3-0.3,0.6-0.6c0.5,0.8,4.3,7.9,4.7,15.2l19.3-0.2
						c0,0-9.8,2.2-15.7,2.3c-5.9,0.1-13.8-1.9-13.8-1.9L408.2,125z"/>
				</g>
			</g>
			<path fill="#0B1C3B" d="M428.2,154.3c0,0-10,11.6-10.5,21.7l5.1,0.3c0,0,1.3-11.3,8.8-21.3c0,0-1.2-0.3-1.6-0.4
				C429.4,154.5,428.2,154.3,428.2,154.3z"/>
			<path fill="#0B1C3B" d="M403.3,154.1c-7.2,10.8-7.9,22.1-7.9,22.1l-5.1-0.1c0.4-7.9,5.4-16.7,8.2-20.9
				C398.5,155.3,402,154.4,403.3,154.1z"/>
			<path fill="#5DABCE" d="M436.1,216.6c-0.2,11.9,1.2,35.5,1.2,35.5h7c3.3-16.7,4.5-27.3,4.5-33.2c0-1.2,0-2.2,0-3.2
				c0-5-0.2-7.9-0.2-7.9c1.3-30.2-4.7-46.4-6.6-48.6c-1.9-2.2-10.6-4.2-10.6-4.2s-2.9,8.4-4,15c-1.2,6.7,9.2,34.9,8.8,44.6
				C436.1,215.2,436.1,215.9,436.1,216.6z"/>
			<path fill="#F68B65" d="M437.3,252.1c0,0-1.5-23.6-1.2-35.5c5.6-1.8,10.1-1.4,12.7-0.9c0,1,0,2.1,0,3.2c0,5.9-1.2,16.5-4.5,33.2
				c1.5,6.1,1.4,12.7-1.2,13.9c-2.5,1.2-10.9-3.2-10.8-5.2C432.5,258.9,437.3,252.1,437.3,252.1z"/>
			<path fill="#F68B65" d="M341.5,224.8c0.7-2.5,1.2-3.9,2.9-5.1c2.5-1.8,5.5-1.3,7.7-0.9c1.7,0.3,3.5-0.3,4.2-0.6
				c3.9-2.6,13.8-8,18.7-10.4c3.4,1.9,7.5,5.8,9.4,13.3c-7.6,3.3-24.1,3.3-27.2,2.5c0,0-2.9,2.1-5.1,2.3c-0.8,0.1-1.9-0.2-2.9-0.5
				c-1.6-0.5-3.2,0-4.3,1.4c-1.1,1.3-2.2,1.3-2.8,1.3C341.1,228.1,341.1,226.3,341.5,224.8z"/>
		</g>
		<path fill="#5DABCE" d="M332.3,374.5h-52.2c-0.9,0-2.9-0.7-2.9-1.6c0-0.9,6.7-1.6,7.6-1.6h44.3V234.5c0-5.6,4.5-10.2,10.2-10.2
			h11.3c0.9,0,1.6,0.7,1.6,1.6s-0.7,1.6-1.6,1.6h-11.3c-3.8,0-6.9,3.1-6.9,6.9L332.3,374.5L332.3,374.5z"/>
		<path fill="#5DABCE" d="M287,374.5h-37.8c-0.9,0-1.6-0.7-1.6-1.6c0-0.9,0.7-1.6,1.6-1.6h34.6V234.5c0-5.6,4.5-10.2,10.2-10.2h11.3
			c0.9,0,1.6,0.7,1.6,1.6s-0.7,1.6-1.6,1.6h-11.3c-3.8,0-6.9,3.1-6.9,6.9L287,374.5L287,374.5z"/>
		<path fill="#5DABCE" d="M329.6,248.2h-43.2c-0.8,0-1.5-0.7-1.5-1.6s0.7-1.6,1.5-1.6h43.2c0.8,0,1.5,0.7,1.5,1.6
			C331.1,247.5,330.5,248.2,329.6,248.2z"/>
		<path fill="#4096C7" d="M353.1,228.6h-14c-1.5,0-2.7-1.2-2.7-2.7c0-1.5,1.2-2.7,2.7-2.7h14c1.5,0,2.7,1.2,2.7,2.7
			C355.8,227.4,354.6,228.6,353.1,228.6z"/>
		<path fill="#5DABCE" d="M339.2,224.4c-5.1,0-9.3,3.8-10,8.7h3.3c0.7-3.1,3.5-5.4,6.7-5.4c0.9,0,1.6-0.7,1.6-1.6
			S340,224.4,339.2,224.4z"/>
		<path fill="#4096C7" d="M307.9,228.6h-14c-1.5,0-2.7-1.2-2.7-2.7c0-1.5,1.2-2.7,2.7-2.7h14c1.5,0,2.7,1.2,2.7,2.7
			C310.6,227.4,309.3,228.6,307.9,228.6z"/>
		<path fill="#5DABCE" d="M293.9,224.4c-5.1,0-9.3,3.8-10,8.7h3.3c0.7-3.1,3.5-5.4,6.7-5.4c0.9,0,1.6-0.7,1.6-1.6
			S294.8,224.4,293.9,224.4z"/>
		<g>
			<polygon fill="#F79121" points="276.8,323.5 330.6,322.6 330.7,371.3 276.9,371.3 			"/>
			<polygon fill="#FBAA32" points="260.7,323.6 303.7,323.4 303.9,371.4 260.7,371.3 			"/>
			<polygon fill="#FBAA32" points="303.7,323.4 260.7,323.6 260.7,338.7 303.9,371.4 			"/>
		</g>
		<g>
			<path fill="#B81F3A" d="M335.9,346h-6.5c-7.7,0-13.9,7.6-13.9,17c0,9.4,6.2,17,13.9,17h6.5c7.7,0,13.9-7.6,13.9-17
				C349.8,353.6,343.6,346,335.9,346z"/>
			<ellipse fill="#D71E44" cx="335.9" cy="363" rx="13.9" ry="17"/>
			<ellipse fill="#FEDDC0" cx="335.9" cy="363" rx="8.8" ry="10.8"/>
		</g>
		<g>
			<polygon fill="#F79121" points="286.5,268.9 348.3,268.7 348.2,323.3 286.6,323.5 			"/>
			<polygon fill="#F99D24" points="268,269 317.3,268.8 317.4,323.4 268.1,323.6 			"/>
			<polygon fill="#F99D24" points="317.3,268.8 268,269 268,286.4 317.4,323.4 			"/>
		</g>
		<path fill="#F68B65" d="M357.2,223.6c0,0-5.3,3.6-6.6,2.7c-1.4-0.9,1-2.9-1.2-3.6C347.1,222,357.2,223.6,357.2,223.6z"/>
	</g>
</g>
</svg>
