<?xml version="1.0" encoding="utf-8"?>
<!-- Generator: Adobe Illustrator 18.1.1, SVG Export Plug-In . SVG Version: 6.00 Build 0)  -->
<svg version="1.1" id="Layer_1" xmlns="http://www.w3.org/2000/svg" xmlns:xlink="http://www.w3.org/1999/xlink" x="0px" y="0px"
	 viewBox="0 0 500 500" enable-background="new 0 0 500 500" xml:space="preserve">
<rect x="58" y="426.1" fill="none" width="384" height="39"/>
<text transform="matrix(1 0 0 1 67.948 447.4444)" fill="#3F499C" font-family="'Nunito-Bold'" font-size="30">Gate Management System</text>
<g>
	<g>
		<path fill="#E7E7F4" d="M427.1,283.1c0-0.3,0-0.6,0-0.9C415.4,173.7,319.7,186.5,252,99c-67.7-87.5-129.5-47.8-129.5-47.8
			c-72.3,52.5-22.2,113.2-23.3,142.4C98,222.7,60.6,258.9,77,320.7c0,0.1,0.1,0.2,0.1,0.3c4,15.1,17.5,25.8,33,26.5h138.4v0h117.4
			C400.9,347.6,428.9,318.2,427.1,283.1z"/>
		<g>
			<g>
				<path fill="#FFFFFF" d="M267.2,38.3H143.5c-11.6,0-21,9.4-21,21v276.2c0,11.2,8.7,20.3,19.7,21H212v0h55.2c11.6,0,21-9.4,21-21
					V59.3C288.2,47.7,278.8,38.3,267.2,38.3z"/>
				<linearGradient id="SVGID_1_" gradientUnits="userSpaceOnUse" x1="167.9501" y1="376.9035" x2="258.9698" y2="-59.5248">
					<stop  offset="0" style="stop-color:#5F63AD"/>
					<stop  offset="1" style="stop-color:#7D7FBD"/>
				</linearGradient>
				<path fill="url(#SVGID_1_)" d="M267.2,43h-20.1l-3.7,6.5c-1.9,3.4-5.5,5.5-9.4,5.5h-15.4h-26.5h-15.4c-3.9,0-7.5-2.1-9.4-5.5
					l-3.7-6.5h-20.1c-9,0-16.3,7.3-16.3,16.3v276.2c0,9,7.3,16.3,16.3,16.3h123.7c9,0,16.3-7.3,16.3-16.3V59.3
					C283.6,50.3,276.3,43,267.2,43z"/>
				<path fill="#E7E7F4" d="M224.9,48.8h-38.5c-0.9,0-1.6-0.7-1.6-1.6l0,0c0-0.9,0.7-1.6,1.6-1.6h38.5c0.9,0,1.6,0.7,1.6,1.6l0,0
					C226.4,48.1,225.7,48.8,224.9,48.8z"/>
				<g>
					<path fill="#FFFFFF" d="M169.2,232.2h-58.7c-3.1,0-5.7-2.5-5.7-5.7v-5c0-3.1,2.5-5.7,5.7-5.7h58.7c3.1,0,5.7,2.5,5.7,5.7v5
						C174.9,229.7,172.3,232.2,169.2,232.2z"/>
					<path fill="#FFFFFF" d="M168.5,297.6h-57.3c-3.5,0-6.4-2.9-6.4-6.4v-45c0-3.5,2.9-6.4,6.4-6.4h57.3c3.5,0,6.4,2.9,6.4,6.4v45
						C174.9,294.7,172,297.6,168.5,297.6z"/>
					<path fill="#A7C0E4" d="M150.2,226.1h-36.8c-0.9,0-1.6-0.7-1.6-1.6l0,0c0-0.9,0.7-1.6,1.6-1.6h36.8c0.9,0,1.6,0.7,1.6,1.6l0,0
						C151.8,225.4,151.1,226.1,150.2,226.1z"/>
					<path fill="#A7C0E4" d="M150.2,255.3h-36.8c-0.9,0-1.6-0.7-1.6-1.6l0,0c0-0.9,0.7-1.6,1.6-1.6h36.8c0.9,0,1.6,0.7,1.6,1.6l0,0
						C151.8,254.6,151.1,255.3,150.2,255.3z"/>
					<path fill="#A7C0E4" d="M150.2,271.3h-36.8c-0.9,0-1.6-0.7-1.6-1.6l0,0c0-0.9,0.7-1.6,1.6-1.6h36.8c0.9,0,1.6,0.7,1.6,1.6l0,0
						C151.8,270.6,151.1,271.3,150.2,271.3z"/>
					<path fill="#A7C0E4" d="M150.2,287.4h-36.8c-0.9,0-1.6-0.7-1.6-1.6l0,0c0-0.9,0.7-1.6,1.6-1.6h36.8c0.9,0,1.6,0.7,1.6,1.6l0,0
						C151.8,286.6,151.1,287.4,150.2,287.4z"/>
					<path fill="#A7C0E4" d="M165.5,263.1h-52.1c-0.9,0-1.6-0.7-1.6-1.6l0,0c0-0.9,0.7-1.6,1.6-1.6h52.1c0.9,0,1.6,0.7,1.6,1.6l0,0
						C167.2,262.4,166.4,263.1,165.5,263.1z"/>
					<path fill="#A7C0E4" d="M167.2,226.1h-9.6c-0.9,0-1.6-0.7-1.6-1.6l0,0c0-0.9,0.7-1.6,1.6-1.6h9.6c0.9,0,1.6,0.7,1.6,1.6l0,0
						C168.8,225.4,168,226.1,167.2,226.1z"/>
					<linearGradient id="SVGID_2_" gradientUnits="userSpaceOnUse" x1="155.6273" y1="282.6819" x2="170.4083" y2="282.6819">
						<stop  offset="0" style="stop-color:#F78D1E"/>
						<stop  offset="1" style="stop-color:#FFC758"/>
					</linearGradient>
					<path fill="url(#SVGID_2_)" d="M162.8,287.7l-3.8,2c-0.4,0.2-0.8-0.1-0.7-0.5l0.7-4.2c0-0.2,0-0.3-0.1-0.4l-3.1-3
						c-0.3-0.3-0.1-0.8,0.3-0.8l4.3-0.6c0.2,0,0.3-0.1,0.4-0.3l1.9-3.9c0.2-0.4,0.7-0.4,0.9,0l1.9,3.9c0.1,0.1,0.2,0.2,0.4,0.3
						l4.3,0.6c0.4,0.1,0.6,0.6,0.3,0.8l-3.1,3c-0.1,0.1-0.2,0.3-0.1,0.4l0.7,4.2c0.1,0.4-0.4,0.7-0.7,0.5l-3.8-2
						C163.1,287.6,162.9,287.6,162.8,287.7z"/>
				</g>
				<path opacity="8.000000e-002" fill="#FFFFFF" d="M259.4,269.8h-56.7c-6.3,0-11.3-5.1-11.3-11.3V88.9c0-6.3,5.1-11.3,11.3-11.3
					h56.7c6.3,0,11.3,5.1,11.3,11.3v169.5C270.8,264.7,265.7,269.8,259.4,269.8z"/>
				<g>
					<path opacity="0.31" fill="#343594" d="M288.2,108.7h-65.3c-4.1,0-7.4,3.3-7.4,7.4v95.3c0,4.1,3.3,7.4,7.4,7.4h65.3V108.7z"/>
					<linearGradient id="SVGID_3_" gradientUnits="userSpaceOnUse" x1="234.201" y1="219.6319" x2="287.797" y2="122.5377">
						<stop  offset="0" style="stop-color:#D9E2F3"/>
						<stop  offset="9.120494e-002" style="stop-color:#E6EBF7"/>
						<stop  offset="0.2351" style="stop-color:#F3F5FB"/>
						<stop  offset="0.4376" style="stop-color:#FBFCFE"/>
						<stop  offset="1" style="stop-color:#FFFFFF"/>
					</linearGradient>
					<path fill="url(#SVGID_3_)" d="M308.4,211.6h-78.8c-4.2,0-7.7-3.4-7.7-7.7v-94.7c0-4.2,3.4-7.7,7.7-7.7h78.8
						c4.2,0,7.7,3.4,7.7,7.7v94.7C316.1,208.2,312.6,211.6,308.4,211.6z"/>
					<path fill="#A7C0E4" d="M268.2,121.4v-19.8h-38.9c-4.1,0-7.4,3.3-7.4,7.4v12.4H268.2z"/>
					<text transform="matrix(1 0 0 1 237.3052 115.6216)" fill="#FFFFFF" font-family="'Montserrat-SemiBold'" font-size="8.328">APR</text>
					<text transform="matrix(1 0 0 1 280.0918 115.6216)" fill="#93A5C8" font-family="'Montserrat-SemiBold'" font-size="8.328">MAY</text>
					<g>
						<path fill="#A7C0E4" d="M242.8,147h-10c-1.3,0-2.3-1-2.3-2.3v-10c0-1.3,1-2.3,2.3-2.3h10c1.3,0,2.3,1,2.3,2.3v10
							C245,146,244,147,242.8,147z"/>
						<path fill="#A7C0E4" d="M263.5,147h-10c-1.3,0-2.3-1-2.3-2.3v-10c0-1.3,1-2.3,2.3-2.3h10c1.3,0,2.3,1,2.3,2.3v10
							C265.8,146,264.7,147,263.5,147z"/>
						<path fill="#A7C0E4" d="M284.2,147h-10c-1.3,0-2.3-1-2.3-2.3v-10c0-1.3,1-2.3,2.3-2.3h10c1.3,0,2.3,1,2.3,2.3v10
							C286.5,146,285.5,147,284.2,147z"/>
						<path fill="#A7C0E4" d="M304.9,147h-10c-1.3,0-2.3-1-2.3-2.3v-10c0-1.3,1-2.3,2.3-2.3h10c1.3,0,2.3,1,2.3,2.3v10
							C307.2,146,306.2,147,304.9,147z"/>
					</g>
					<g>
						<path fill="#A7C0E4" d="M242.8,169.8h-10c-1.3,0-2.3-1-2.3-2.3v-10c0-1.3,1-2.3,2.3-2.3h10c1.3,0,2.3,1,2.3,2.3v10
							C245,168.8,244,169.8,242.8,169.8z"/>
						<path fill="#A7C0E4" d="M263.5,169.8h-10c-1.3,0-2.3-1-2.3-2.3v-10c0-1.3,1-2.3,2.3-2.3h10c1.3,0,2.3,1,2.3,2.3v10
							C265.8,168.8,264.7,169.8,263.5,169.8z"/>
						<path fill="#F78D1E" d="M284.2,169.8h-10c-1.3,0-2.3-1-2.3-2.3v-10c0-1.3,1-2.3,2.3-2.3h10c1.3,0,2.3,1,2.3,2.3v10
							C286.5,168.8,285.5,169.8,284.2,169.8z"/>
						<path fill="#A7C0E4" d="M304.9,169.8h-10c-1.3,0-2.3-1-2.3-2.3v-10c0-1.3,1-2.3,2.3-2.3h10c1.3,0,2.3,1,2.3,2.3v10
							C307.2,168.8,306.2,169.8,304.9,169.8z"/>
					</g>
					<g>
						<path fill="#A7C0E4" d="M242.8,192.5h-10c-1.3,0-2.3-1-2.3-2.3v-10c0-1.3,1-2.3,2.3-2.3h10c1.3,0,2.3,1,2.3,2.3v10
							C245,191.5,244,192.5,242.8,192.5z"/>
						<path fill="#A7C0E4" d="M263.5,192.5h-10c-1.3,0-2.3-1-2.3-2.3v-10c0-1.3,1-2.3,2.3-2.3h10c1.3,0,2.3,1,2.3,2.3v10
							C265.8,191.5,264.7,192.5,263.5,192.5z"/>
						<path fill="#A7C0E4" d="M284.2,192.5h-10c-1.3,0-2.3-1-2.3-2.3v-10c0-1.3,1-2.3,2.3-2.3h10c1.3,0,2.3,1,2.3,2.3v10
							C286.5,191.5,285.5,192.5,284.2,192.5z"/>
						<path fill="#A7C0E4" d="M304.9,192.5h-10c-1.3,0-2.3-1-2.3-2.3v-10c0-1.3,1-2.3,2.3-2.3h10c1.3,0,2.3,1,2.3,2.3v10
							C307.2,191.5,306.2,192.5,304.9,192.5z"/>
					</g>
				</g>
				<g opacity="8.000000e-002">
					<path fill="#FFFFFF" d="M179.1,90.4h-39.4c-1.8,0-3.3-1.5-3.3-3.3v-5c0-1.8,1.5-3.3,3.3-3.3h39.4c1.8,0,3.3,1.5,3.3,3.3v5
						C182.5,88.9,181,90.4,179.1,90.4z"/>
					<path fill="#FFFFFF" d="M179.1,107.9h-39.4c-1.8,0-3.3-1.5-3.3-3.3v-5c0-1.8,1.5-3.3,3.3-3.3h39.4c1.8,0,3.3,1.5,3.3,3.3v5
						C182.5,106.5,181,107.9,179.1,107.9z"/>
				</g>
				<path opacity="0.31" fill="#343594" d="M140.5,103.7c-6.3,0-12.3,1.1-17.9,3.1v100.4c5.6,2,11.6,3.1,17.9,3.1
					c29.4,0,53.3-23.9,53.3-53.3S169.9,103.7,140.5,103.7z"/>
				<g>
					<path fill="#A7C0E4" d="M190.2,154.4c1.5,29.5-22.8,53.8-52.3,52.3c-25.3-1.3-45.8-21.8-47.1-47.1
						c-1.5-29.5,22.8-53.8,52.3-52.3C168.3,108.5,188.9,129.1,190.2,154.4z"/>
					<g>
						<g>
							<path fill="#FFFFFF" d="M185.3,154.6c1.4,26.7-20.5,48.6-47.2,47.2c-22.8-1.2-41.4-19.7-42.5-42.5
								c-1.4-26.7,20.5-48.6,47.2-47.2C165.6,113.2,184.2,131.8,185.3,154.6z"/>
							<g>
								<defs>
									<path id="SVGID_4_" d="M185.3,154.6c1.4,26.7-20.5,48.6-47.2,47.2c-22.8-1.2-41.4-19.7-42.5-42.5
										c-1.4-26.7,20.5-48.6,47.2-47.2C165.6,113.2,184.2,131.8,185.3,154.6z"/>
								</defs>
								<clipPath id="SVGID_5_">
									<use xlink:href="#SVGID_4_"  overflow="visible"/>
								</clipPath>
								<g clip-path="url(#SVGID_5_)">
									<g>
										<g>
											<g>
												
													<linearGradient id="SVGID_6_" gradientUnits="userSpaceOnUse" x1="303.6846" y1="171.5411" x2="295.7912" y2="156.9686" gradientTransform="matrix(-1 0 0 1 435.8041 0)">
													<stop  offset="0" style="stop-color:#FAB48E"/>
													<stop  offset="0.2932" style="stop-color:#FAB28C"/>
													<stop  offset="0.5277" style="stop-color:#F9AE84"/>
													<stop  offset="0.7419" style="stop-color:#F8A678"/>
													<stop  offset="0.9429" style="stop-color:#F79C67"/>
													<stop  offset="1" style="stop-color:#F69961"/>
												</linearGradient>
												<path fill="url(#SVGID_6_)" d="M146.7,156.4c0,0-3.6,9.7-1.2,16.1c0.9,6.1-16.4,1.5-19.1-6.1c0.9-4.9,4.3-8.2,4.6-17.9
													C131.2,138.7,147,150,146.7,156.4z"/>
												<path opacity="0.32" fill="#F8A16F" d="M130,155.6c0.3-1.2,0.5-2.4,0.7-3.9l9.7-4.5c3.5,2.5,6.5,6.3,6.4,9.1
													c0,0-1.7,4.5-2,9.4C135.7,163.9,131.7,158.9,130,155.6z"/>
											</g>
											<g>
												<g>
													
														<linearGradient id="SVGID_7_" gradientUnits="userSpaceOnUse" x1="289.594" y1="134.1068" x2="294.9638" y2="161.7415" gradientTransform="matrix(-1 0 0 1 435.8041 0)">
														<stop  offset="0" style="stop-color:#FAB48E"/>
														<stop  offset="0.2932" style="stop-color:#FAB28C"/>
														<stop  offset="0.5277" style="stop-color:#F9AE84"/>
														<stop  offset="0.7419" style="stop-color:#F8A678"/>
														<stop  offset="0.9429" style="stop-color:#F79C67"/>
														<stop  offset="1" style="stop-color:#F69961"/>
													</linearGradient>
													<path fill="url(#SVGID_7_)" d="M154.1,141.4c0,0,4.3,12,0.1,16.9c-6.4,7.6-16.4,3.4-20.4-1.1c-4-4.6-3.9-23.6,2.9-26.6
														C143.3,127.5,151.2,129.7,154.1,141.4z"/>
												</g>
												<path opacity="0.32" fill="#F8A16F" d="M132.3,136.7c0.1-0.4,0.3-0.8,0.4-1.2l3.6-3.9l11.4-0.7c1.6,1.1,3.1,2.6,4.3,4.9
													c-2.5,0.9-7.2,2.3-10.9,1.9c-3.8-0.4-3.3,0-3.3,0s1.6,3.5-0.5,7.2c-2.1,3.7-4.2,5.5-3.1,8.5
													C133.2,151.7,132.5,139.7,132.3,136.7z"/>
												
													<linearGradient id="SVGID_8_" gradientUnits="userSpaceOnUse" x1="292.3434" y1="125.8253" x2="308.4144" y2="147.1368" gradientTransform="matrix(-1 0 0 1 435.8041 0)">
													<stop  offset="0" style="stop-color:#B53125"/>
													<stop  offset="1" style="stop-color:#7B1315"/>
												</linearGradient>
												<path fill="url(#SVGID_8_)" d="M135.6,136.4c0,0,2.4,3.8-1.3,10.6c0,0-1.2,3.3,0,6.3c0.2,1.6-3.3-1.7-3.8-3.1
													c-0.5-1-3.8,0.4-4.8-1c-1-1.4,0.7-3,0.7-3s-4.7-4.9-4.2-8.9c0.5-4,5.2-3.7,5.2-3.7s-2.6-1.2-3.3-2.6
													c-0.5-1.2,3.5,1,3.8,1.9c0,0-0.3-1.4,0.7-2.6c0.7-0.9,0.2,2.6,0.2,2.6s0.7-2.1,3-4.7c2.3-2.6,6.3-0.9,9.4-2.8
													c3.1-1.9,2.6-5.6,4.7-5.8c2.1-0.2,6.6,3.2,5.7,9.5c0,0,0.8-2.5,0.5-6c0.8-0.4,2.9,5.5-0.8,8.3c0,0,2.1-0.5,3.3-3.5
													c0.9-2.1,2.2,4.7-5.1,6.9C142.3,137.1,137.8,134.8,135.6,136.4z"/>
											</g>
											<path fill="#F3746B" d="M136.5,151.5c-0.4,2.6,1.8,4.7,4.3,4.3c1.6-0.2,2.9-1.5,3.1-3.1c0.4-2.6-1.8-4.7-4.3-4.3
												C138.1,148.6,136.8,149.9,136.5,151.5z"/>
											<g>
												
													<linearGradient id="SVGID_9_" gradientUnits="userSpaceOnUse" x1="303.2885" y1="135.3272" x2="307.4568" y2="156.7787" gradientTransform="matrix(-1 0 0 1 435.8041 0)">
													<stop  offset="0" style="stop-color:#FAB48E"/>
													<stop  offset="0.2932" style="stop-color:#FAB28C"/>
													<stop  offset="0.5277" style="stop-color:#F9AE84"/>
													<stop  offset="0.7419" style="stop-color:#F8A678"/>
													<stop  offset="0.9429" style="stop-color:#F79C67"/>
													<stop  offset="1" style="stop-color:#F69961"/>
												</linearGradient>
												<path fill="url(#SVGID_9_)" d="M131.5,151.3c0,0-3.3-4.7-5.2-2.1c-2,2.6,5.9,7.3,6.2,5.1
													C132.7,152.5,131.5,151.3,131.5,151.3z"/>
												<path fill="#F47C5D" d="M130.8,153c0,0-1.6-3-3.7-3c-0.6-0.5,1.1-0.3,2,0.4C130,151.1,131.4,152.4,130.8,153z"/>
												<path fill="#F47C5D" d="M130.8,152.5c0,0-2-1.9-3-1.3C127.4,152,131.3,153.9,130.8,152.5z"/>
											</g>
										</g>
										<linearGradient id="SVGID_10_" gradientUnits="userSpaceOnUse" x1="101.7915" y1="264.2198" x2="156.809" y2="194.291">
											<stop  offset="0" style="stop-color:#1096C3"/>
											<stop  offset="1" style="stop-color:#00B2C9"/>
										</linearGradient>
										<path fill="url(#SVGID_10_)" d="M162.9,262.8c-0.6-4.1-1.7-61.1-1.7-68.9c0-8.5-3.5-13.7-3.5-13.7
											c-1.9-3.3-7.8-6.4-9.7-7.6c-1.9-1.2-3.1-2.6-3.1-2.6s0.3,2.1-2.3,4c-9.5,1-15.8-9-15.8-9s-14.7,6.6-17.3,13.8
											c-4.8,13.8-5.9,79.1-6,83.9H162.9z"/>
									</g>
								</g>
							</g>
						</g>
						<g>
							<linearGradient id="SVGID_11_" gradientUnits="userSpaceOnUse" x1="165.3517" y1="132.8392" x2="191.0239" y2="132.8392">
								<stop  offset="0" style="stop-color:#F78D1E"/>
								<stop  offset="1" style="stop-color:#FFC758"/>
							</linearGradient>
							<path fill="url(#SVGID_11_)" d="M190.9,131.2c1.1,8.4-6,15.5-14.4,14.4c-5.7-0.7-10.3-5.3-11.1-11.1
								c-1.1-8.4,6-15.5,14.4-14.4C185.6,120.8,190.2,125.4,190.9,131.2z"/>
							
								<polyline fill="none" stroke="#FFFFFF" stroke-width="2" stroke-linecap="round" stroke-linejoin="round" stroke-miterlimit="10" points="
								173.1,133 177.2,137.1 184.9,129.4 							"/>
						</g>
					</g>
				</g>
				<g>
					<path opacity="0.31" fill="#343594" d="M189.5,311h-66.9v21.6h66.9c1.9,0,3.5-1.6,3.5-3.5v-14.6C193,312.6,191.4,311,189.5,311
						z"/>
					<g>
						<path fill="#FFFFFF" d="M185.2,328.5h-77.3c-2,0-3.6-1.6-3.6-3.6v-14.3c0-2,1.6-3.6,3.6-3.6h77.3c2,0,3.6,1.6,3.6,3.6v14.3
							C188.9,326.9,187.3,328.5,185.2,328.5z"/>
						<g>
							<g>
								<path fill="#A7C0E4" d="M119.4,325.7c-4.1,0-7.5-3.4-7.5-7.5c0-4.1,3.4-7.5,7.5-7.5c4.1,0,7.5,3.4,7.5,7.5
									C126.8,322.3,123.5,325.7,119.4,325.7z M119.4,313c-2.8,0-5.2,2.3-5.2,5.2c0,2.8,2.3,5.2,5.2,5.2c2.8,0,5.2-2.3,5.2-5.2
									C124.5,315.3,122.2,313,119.4,313z"/>
								<path fill="#A7C0E4" d="M120.9,319.3H119c-0.3,0-0.6-0.3-0.6-0.6v-3.8c0-0.3,0.3-0.6,0.6-0.6c0.3,0,0.6,0.3,0.6,0.6v3.2h1.3
									c0.3,0,0.6,0.3,0.6,0.6C121.5,319,121.2,319.3,120.9,319.3z"/>
							</g>
							<g>
								<text transform="matrix(1 0 0 1 132.1455 322.7354)"><tspan x="0" y="0" fill="#93A5C8" font-family="'Aileron-SemiBold'" font-size="10.5843">03:00 </tspan><tspan x="26.2" y="0" fill="#5B6B91" font-family="'Aileron-Bold'" font-size="10.5843">PM</tspan></text>
							</g>
						</g>
					</g>
					<path fill="#FFFFFF" d="M194.4,303.7c0.4,1.7-1.1,3.3-2.8,2.8c-0.8-0.2-1.5-0.9-1.7-1.7c-0.4-1.7,1.1-3.3,2.8-2.8
						C193.5,302.2,194.2,302.9,194.4,303.7z"/>
				</g>
				<g>
					<path opacity="0.44" fill="none" stroke="#FFFFFF" stroke-miterlimit="10" d="M255.1,233.4h-42.6c-1.8,0-3.2-1.4-3.2-3.2v0
						c0-1.8,1.4-3.2,3.2-3.2h42.6c1.8,0,3.2,1.4,3.2,3.2l0,0C258.3,232,256.9,233.4,255.1,233.4z"/>
					<path opacity="0.44" fill="none" stroke="#FFFFFF" stroke-miterlimit="10" d="M225.4,243.6h-12.8c-1.8,0-3.2-1.4-3.2-3.2l0,0
						c0-1.8,1.4-3.2,3.2-3.2h12.8c1.8,0,3.2,1.4,3.2,3.2l0,0C228.6,242.2,227.1,243.6,225.4,243.6z"/>
				</g>
				<path fill="#A7C0E4" d="M106.9,111.2c0.4,2.2-1.5,4.1-3.7,3.7c-1.2-0.2-2.2-1.2-2.4-2.4c-0.4-2.2,1.5-4.1,3.7-3.7
					C105.7,109,106.7,110,106.9,111.2z"/>
			</g>
		</g>
	</g>
	<g>
		
			<linearGradient id="SVGID_12_" gradientUnits="userSpaceOnUse" x1="2823.6194" y1="353.4502" x2="2857.0156" y2="353.4502" gradientTransform="matrix(-1 0 0 1 3138.9976 0)">
			<stop  offset="0" style="stop-color:#454C8D"/>
			<stop  offset="0.9964" style="stop-color:#26274F"/>
		</linearGradient>
		<polygon fill="url(#SVGID_12_)" points="312.5,364 282,362.7 290.4,342.9 310.1,344.1 315.4,352.7 		"/>
		<g>
			
				<linearGradient id="SVGID_13_" gradientUnits="userSpaceOnUse" x1="2788.8569" y1="345.9909" x2="2806.793" y2="345.9909" gradientTransform="matrix(-1 0 0 1 3138.9976 0)">
				<stop  offset="0" style="stop-color:#321944"/>
				<stop  offset="1" style="stop-color:#6C3A77"/>
			</linearGradient>
			<path fill="url(#SVGID_13_)" d="M341.2,332.5c0.2,0,0.4,0,0.6,0l3.2,0l0,1.2c3.1,2.1,5.2,6.8,5.2,12.3c0,5.6-2.3,10.5-5.6,12.5
				l0,1h-3.4c-5,0-9-6-9-13.5C332.2,338.5,336.2,332.5,341.2,332.5z"/>
			
				<linearGradient id="SVGID_14_" gradientUnits="userSpaceOnUse" x1="2785.0791" y1="345.9909" x2="2803.0149" y2="345.9909" gradientTransform="matrix(-1 0 0 1 3138.9976 0)">
				<stop  offset="0" style="stop-color:#321944"/>
				<stop  offset="1" style="stop-color:#6C3A77"/>
			</linearGradient>
			<ellipse fill="url(#SVGID_14_)" cx="345" cy="346" rx="9" ry="13.5"/>
		</g>
		<g>
			
				<linearGradient id="SVGID_15_" gradientUnits="userSpaceOnUse" x1="2874.4707" y1="357.8672" x2="2896.4441" y2="357.8672" gradientTransform="matrix(-1 0 0 1 3138.9976 0)">
				<stop  offset="0" style="stop-color:#321944"/>
				<stop  offset="1" style="stop-color:#6C3A77"/>
			</linearGradient>
			<path fill="url(#SVGID_15_)" d="M253.5,342.7c0.2,0,0.5,0,0.7,0l3.9,0l0,1.4c3.8,2.4,6.4,7.6,6.4,13.7c0,6.3-2.8,11.7-6.8,14
				l0,1.1h-4.1c-6.1,0-11-6.8-11-15.1C242.6,349.5,247.5,342.7,253.5,342.7z"/>
			
				<linearGradient id="SVGID_16_" gradientUnits="userSpaceOnUse" x1="2869.8423" y1="357.8672" x2="2891.8157" y2="357.8672" gradientTransform="matrix(-1 0 0 1 3138.9976 0)">
				<stop  offset="0" style="stop-color:#321944"/>
				<stop  offset="1" style="stop-color:#6C3A77"/>
			</linearGradient>
			<ellipse fill="url(#SVGID_16_)" cx="258.2" cy="357.9" rx="11" ry="15.1"/>
		</g>
		<g>
			
				<linearGradient id="SVGID_17_" gradientUnits="userSpaceOnUse" x1="2832.8623" y1="365.2711" x2="2854.4941" y2="365.2711" gradientTransform="matrix(-1 0 0 1 3138.9976 0)">
				<stop  offset="0" style="stop-color:#321944"/>
				<stop  offset="1" style="stop-color:#6C3A77"/>
			</linearGradient>
			<path fill="url(#SVGID_17_)" d="M295.3,349.8c0.2,0,0.5,0,0.7,0l3.8,0l0,1.4c3.7,2.5,6.3,7.8,6.3,14.1c0,6.5-2.8,12-6.7,14.4
				l0,1.2h-4.1c-6,0-10.8-6.9-10.8-15.5C284.5,356.7,289.3,349.8,295.3,349.8z"/>
			
				<linearGradient id="SVGID_18_" gradientUnits="userSpaceOnUse" x1="2828.3059" y1="365.2712" x2="2849.9377" y2="365.2712" gradientTransform="matrix(-1 0 0 1 3138.9976 0)">
				<stop  offset="0" style="stop-color:#321944"/>
				<stop  offset="1" style="stop-color:#6C3A77"/>
			</linearGradient>
			<ellipse fill="url(#SVGID_18_)" cx="299.9" cy="365.3" rx="10.8" ry="15.5"/>
			<ellipse fill="#D8DEE8" cx="301.4" cy="365.3" rx="6.1" ry="8.7"/>
			
				<linearGradient id="SVGID_19_" gradientUnits="userSpaceOnUse" x1="2845.8726" y1="364.4764" x2="2835.9678" y2="365.5472" gradientTransform="matrix(-1 0 0 1 3138.9976 0)">
				<stop  offset="5.405410e-003" style="stop-color:#D8DEE8"/>
				<stop  offset="1" style="stop-color:#F4F7FA"/>
			</linearGradient>
			<ellipse fill="url(#SVGID_19_)" cx="300.5" cy="365.3" rx="5.2" ry="8.1"/>
		</g>
		
			<linearGradient id="SVGID_20_" gradientUnits="userSpaceOnUse" x1="2735.8137" y1="344.0684" x2="2782.929" y2="344.0684" gradientTransform="matrix(-1 0 0 1 3138.9976 0)">
			<stop  offset="0" style="stop-color:#454C8D"/>
			<stop  offset="0.9964" style="stop-color:#26274F"/>
		</linearGradient>
		<path fill="url(#SVGID_20_)" d="M403.2,332.5v16.1c0,4.2-3.7,7.5-7.9,7l-39.2-4.8v-18.3L403.2,332.5z"/>
		
			<linearGradient id="SVGID_21_" gradientUnits="userSpaceOnUse" x1="2753.4819" y1="342.9207" x2="2809.5205" y2="342.9207" gradientTransform="matrix(-1 0 0 1 3138.9976 0)">
			<stop  offset="0" style="stop-color:#454C8D"/>
			<stop  offset="0.9964" style="stop-color:#26274F"/>
		</linearGradient>
		<path fill="url(#SVGID_21_)" d="M385.5,330.2L374.7,347c-1.5,2.4-4.1,4-6.9,4.3l-35.6,4.3l-2.7-18L385.5,330.2z"/>
		<g>
			
				<linearGradient id="SVGID_22_" gradientUnits="userSpaceOnUse" x1="2746.998" y1="351.9068" x2="2764.9338" y2="351.9068" gradientTransform="matrix(-1 0 0 1 3138.9976 0)">
				<stop  offset="0" style="stop-color:#321944"/>
				<stop  offset="1" style="stop-color:#6C3A77"/>
			</linearGradient>
			<path fill="url(#SVGID_22_)" d="M383,338.4c0.2,0,0.4,0,0.6,0l3.2,0l0,1.2c3.1,2.1,5.2,6.8,5.2,12.3c0,5.6-2.3,10.5-5.6,12.5l0,1
				H383c-5,0-9-6-9-13.5C374.1,344.5,378.1,338.4,383,338.4z"/>
			
				<linearGradient id="SVGID_23_" gradientUnits="userSpaceOnUse" x1="2743.2202" y1="351.9068" x2="2761.156" y2="351.9068" gradientTransform="matrix(-1 0 0 1 3138.9976 0)">
				<stop  offset="0" style="stop-color:#321944"/>
				<stop  offset="1" style="stop-color:#6C3A77"/>
			</linearGradient>
			<ellipse fill="url(#SVGID_23_)" cx="386.8" cy="351.9" rx="9" ry="13.5"/>
			<ellipse fill="#D8DEE8" cx="388.1" cy="351.9" rx="5" ry="7.6"/>
			
				<linearGradient id="SVGID_24_" gradientUnits="userSpaceOnUse" x1="2760.6365" y1="353.1111" x2="2746.7161" y2="351.2372" gradientTransform="matrix(-1 0 0 1 3138.9976 0)">
				<stop  offset="5.405410e-003" style="stop-color:#D8DEE8"/>
				<stop  offset="1" style="stop-color:#F4F7FA"/>
			</linearGradient>
			<ellipse fill="url(#SVGID_24_)" cx="387.3" cy="351.9" rx="4.3" ry="7"/>
		</g>
		
			<linearGradient id="SVGID_25_" gradientUnits="userSpaceOnUse" x1="2719.5732" y1="302.0518" x2="2794.8862" y2="302.0518" gradientTransform="matrix(-1 0 0 1 3138.9976 0)">
			<stop  offset="0" style="stop-color:#FFC445"/>
			<stop  offset="0.9964" style="stop-color:#F36F56"/>
		</linearGradient>
		<path fill="url(#SVGID_25_)" d="M344.1,342.9l73.2-10.1c1.2-0.2,2.1-1.2,2.1-2.4v-64.5c0-1.3-1-2.4-2.4-2.4l-73-2.2V342.9z"/>
		
			<linearGradient id="SVGID_26_" gradientUnits="userSpaceOnUse" x1="2794.8862" y1="302.0518" x2="2852.3525" y2="302.0518" gradientTransform="matrix(-1 0 0 1 3138.9976 0)">
			<stop  offset="0" style="stop-color:#FFC445"/>
			<stop  offset="0.9964" style="stop-color:#F36F56"/>
		</linearGradient>
		<path fill="url(#SVGID_26_)" d="M286.6,338.4l57.5,4.5v-81.7l-54.6,2.9c-1.6,0.1-2.9,1.4-2.9,3V338.4z"/>
		
			<linearGradient id="SVGID_27_" gradientUnits="userSpaceOnUse" x1="2719.5732" y1="302.8736" x2="2787.9282" y2="302.8736" gradientTransform="matrix(-1 0 0 1 3138.9976 0)">
			<stop  offset="0" style="stop-color:#FFC445"/>
			<stop  offset="0.9964" style="stop-color:#F36F56"/>
		</linearGradient>
		<path opacity="0.3" fill="url(#SVGID_27_)" d="M370.5,292.5c10.6-13.4,31.8-3.5,42.5-18.6c2.4-3.4,4.1-6.9,5.2-10.1
			c0.7,0.4,1.2,1.2,1.2,2.1v64.5c0,1.2-0.9,2.2-2.1,2.4l-66.3,9.2c4.2-4.6,8.4-10.4,11.4-17.7C369.2,308.2,363.6,301.2,370.5,292.5z
			"/>
		
			<linearGradient id="SVGID_28_" gradientUnits="userSpaceOnUse" x1="2802.188" y1="328.5746" x2="2904.2864" y2="328.5746" gradientTransform="matrix(-1 0 0 1 3138.9976 0)">
			<stop  offset="5.405410e-003" style="stop-color:#D8DEE8"/>
			<stop  offset="1" style="stop-color:#F4F7FA"/>
		</linearGradient>
		<path fill="url(#SVGID_28_)" d="M333,295c2,8.9,6.6,34.6,1.4,62.2c-0.4,2.1-2,3.6-4.1,4l-17.8,2.8c0,0-0.2-16.9-8.7-18
			s-16.6,6.9-17.1,20.8c0,0-18.6,2.5-46.6-3.9c0,0-3.7-0.8-5.4-5l1.3-19.4c0.1-1.6,0.8-3.1,2.1-4.1l16.5-14.3c0,0,15-21.2,20-25.3
			c0,0,2.7-4.3,24.3-4.8c14.9-0.4,25.1,0.6,30,1.3C330.9,291.5,332.6,293,333,295z"/>
		
			<linearGradient id="SVGID_29_" gradientUnits="userSpaceOnUse" x1="2852.5757" y1="330.3996" x2="2805.4607" y2="404.9984" gradientTransform="matrix(-1 0 0 1 3138.9976 0)">
			<stop  offset="5.405410e-003" style="stop-color:#D8DEE8"/>
			<stop  offset="1" style="stop-color:#F4F7FA"/>
		</linearGradient>
		<path opacity="0.6" fill="url(#SVGID_29_)" d="M236.9,335.6l0.8,0.9c-0.4,10-2.5,13.5,15.8,15.4c18.3,1.9,17.8-13.5,17.8-13.5
			l24-10.5l20.1-31.6c4-3.2,10.9-4.1,15.7-4.3c1,0.7,1.7,1.7,2,3c2,8.9,6.6,34.6,1.4,62.2c-0.4,2.1-2,3.6-4.1,4l-17.8,2.8
			c0,0-0.2-16.9-8.7-18c-8.6-1.1-16.6,6.9-17.1,20.8c0,0-18.6,2.5-46.6-3.9c0,0-3.7-0.8-5.4-5l1.3-19.4
			C236,337.4,236.4,336.4,236.9,335.6z"/>
		
			<linearGradient id="SVGID_30_" gradientUnits="userSpaceOnUse" x1="2829.4568" y1="310.5302" x2="2884.5745" y2="310.5302" gradientTransform="matrix(-1 0 0 1 3138.9976 0)">
			<stop  offset="0" style="stop-color:#454C8D"/>
			<stop  offset="0.9964" style="stop-color:#26274F"/>
		</linearGradient>
		<path fill="url(#SVGID_30_)" d="M295.6,323.3c-0.6,1.1-1.9,1.7-3.1,1.5l-38-4.7l0.1-0.1c0,0,12.4-17.6,18.4-23.9l35.1,2.1
			c1.2,0.1,1.9,1.4,1.3,2.4L295.6,323.3z"/>
		<path opacity="0.3" fill="#FFFFFF" d="M272.9,311.5c10.4-4.1,19,0.8,26.1-4.9c2.7-2.2,4.4-5.2,5.3-8.4l3.7,0.2
			c1.2,0.1,1.9,1.4,1.3,2.4l-13.7,22.6c-0.6,1.1-1.9,1.7-3.1,1.5l-31.6-3.9C265,315.6,269.3,312.9,272.9,311.5z"/>
		
			<linearGradient id="SVGID_31_" gradientUnits="userSpaceOnUse" x1="2886.3992" y1="334.4125" x2="2885.864" y2="365.8226" gradientTransform="matrix(-1 0 0 1 3138.9976 0)">
			<stop  offset="0" style="stop-color:#454C8D"/>
			<stop  offset="0.9964" style="stop-color:#26274F"/>
		</linearGradient>
		<path fill="url(#SVGID_31_)" d="M239.3,338.2c0-0.3,0.3-0.6,0.7-0.6c9.5,0.1,21.4,2.1,25.3,2.8c0.7,0.1,1.2,0.9,1.1,1.6
			c-0.8,3.3-2.1,5.5-3,6.8c-0.6,0.9-1.6,1.4-2.7,1.5c-3,0.2-9.6,0.6-12.8-0.1c-2.9-0.7-5.6-2-7.1-2.8c-0.9-0.5-1.5-1.3-1.6-2.3
			C238.9,342.7,239.1,339.5,239.3,338.2z"/>
		
			<linearGradient id="SVGID_32_" gradientUnits="userSpaceOnUse" x1="2857.314" y1="332.8741" x2="2873.1975" y2="360.8935" gradientTransform="matrix(-1 0 0 1 3138.9976 0)">
			<stop  offset="0" style="stop-color:#FCB149"/>
			<stop  offset="9.219285e-003" style="stop-color:#FCB349"/>
			<stop  offset="7.416882e-002" style="stop-color:#FDBD47"/>
			<stop  offset="0.157" style="stop-color:#FEC346"/>
			<stop  offset="0.3183" style="stop-color:#FFC445"/>
			<stop  offset="0.4484" style="stop-color:#FDBC48"/>
			<stop  offset="0.6752" style="stop-color:#FAA74D"/>
			<stop  offset="0.8658" style="stop-color:#F79351"/>
			<stop  offset="1" style="stop-color:#F79351"/>
		</linearGradient>
		<path fill="url(#SVGID_32_)" d="M285.7,339.1c0.3-0.5,0-1.2-0.6-1.4c-0.8-0.3-2-0.7-2.7-0.6c-0.9,0.1-8.3,2-11.6,2.9
			c-1,0.3-1.8,1.2-1.7,2.3c0.2,2.3,1,5.9,5,6.4C279.6,349.2,283.1,344.4,285.7,339.1z"/>
		
			<linearGradient id="SVGID_33_" gradientUnits="userSpaceOnUse" x1="2846.9067" y1="356.2531" x2="2904.2864" y2="356.2531" gradientTransform="matrix(-1 0 0 1 3138.9976 0)">
			<stop  offset="0" style="stop-color:#454C8D"/>
			<stop  offset="0.9964" style="stop-color:#26274F"/>
		</linearGradient>
		<path fill="url(#SVGID_33_)" d="M250.1,352.7c14.4,2,17.3-2.9,17.3-2.9c3.4,0.5,8.2-0.2,11-0.6c1-0.2,2.1,0.3,2.6,1.2
			c0.4,0.7,1.2,1.3,2.7,1.6c2.4,0.4,6.4-0.5,8.3-1c-2.9,3.9-4.9,9-5.1,15.9c0,0-18.9,2.5-46.9-3.9c0,0-3.7-0.8-5.4-5l0.8-12.7
			C237,347.5,240.8,351.4,250.1,352.7z"/>
		
			<linearGradient id="SVGID_34_" gradientUnits="userSpaceOnUse" x1="2861.9692" y1="358.8999" x2="2904.2864" y2="358.8999" gradientTransform="matrix(-1 0 0 1 3138.9976 0)">
			<stop  offset="0" style="stop-color:#454C8D"/>
			<stop  offset="0.9964" style="stop-color:#26274F"/>
		</linearGradient>
		<path opacity="0.6" fill="url(#SVGID_34_)" d="M273.5,355.2c1.6-0.2,2.9,1.1,2.9,2.7c-0.1,3.4,0.3,7,0.6,9.4c-8.1,0-21-0.7-37-4.4
			c0,0-3.7-0.8-5.4-5l0.5-7.4C246.7,357,266,355.9,273.5,355.2z"/>
		
			<linearGradient id="SVGID_35_" gradientUnits="userSpaceOnUse" x1="2808.6331" y1="312.8611" x2="2834.5361" y2="312.8611" gradientTransform="matrix(-1 0 0 1 3138.9976 0)">
			<stop  offset="0" style="stop-color:#454C8D"/>
			<stop  offset="0.9964" style="stop-color:#26274F"/>
		</linearGradient>
		<path fill="url(#SVGID_35_)" d="M326.9,300.2l-5.2,1.3c-1.7,0.4-3.2,1.4-4.1,2.9l-12.8,18.7c-0.9,1.3,0.3,3,1.8,2.6l22.2-4.7
			c0.9-0.2,1.5-1,1.6-1.9c0.1-3.2,0.3-10.8-1-17.3C329.1,300.6,328,299.9,326.9,300.2z"/>
	</g>
	<g>
		<g>
			<linearGradient id="SVGID_36_" gradientUnits="userSpaceOnUse" x1="354.7686" y1="147.3034" x2="393.4825" y2="247.0211">
				<stop  offset="0" style="stop-color:#9681BC"/>
				<stop  offset="0.9964" style="stop-color:#6166AE"/>
			</linearGradient>
			<path fill="url(#SVGID_36_)" d="M398.2,161.3c0,16.4-23,46.4-33.4,59.1c-2.6,3.2-7.4,3.2-10,0c-10.4-12.7-33.4-42.7-33.4-59.1
				c0-21.2,17.2-38.4,38.4-38.4C381,122.8,398.2,140,398.2,161.3z"/>
			<path fill="#FFFFFF" d="M381.1,159.1c1.3,13.6-10,24.9-23.5,23.5c-10-1-18.1-9.1-19.1-19.1c-1.3-13.6,10-24.9,23.5-23.5
				C371.9,140.9,380.1,149,381.1,159.1z"/>
			<g opacity="0.3">
				<linearGradient id="SVGID_37_" gradientUnits="userSpaceOnUse" x1="340.9064" y1="152.6851" x2="379.6205" y2="252.403">
					<stop  offset="0" style="stop-color:#9681BC"/>
					<stop  offset="0.9964" style="stop-color:#6166AE"/>
				</linearGradient>
				<path fill="url(#SVGID_37_)" d="M359.6,204.6c2.4-16.1,13-21.2,11.2-36.4c-2.1-17.5-17.6-22.1-18-37.7c-0.1-2.5,0.3-4.9,0.9-7.2
					c-18.4,2.9-32.5,18.8-32.5,38c0,16.4,23,46.4,33.4,59.1c1.5,1.9,3.8,2.6,6,2.3C358.8,215.7,358.8,209.6,359.6,204.6z"/>
			</g>
		</g>
		<linearGradient id="SVGID_38_" gradientUnits="userSpaceOnUse" x1="369.82" y1="223.7707" x2="344.6359" y2="261.9966">
			<stop  offset="0" style="stop-color:#9681BC"/>
			<stop  offset="0.9964" style="stop-color:#6166AE"/>
		</linearGradient>
		<path fill="url(#SVGID_38_)" d="M367.4,237.6c1,5.5-3.7,10.3-9.2,9.2c-3.1-0.6-5.6-3.1-6.2-6.2c-1-5.5,3.7-10.3,9.2-9.2
			C364.4,232,366.9,234.5,367.4,237.6z"/>
	</g>
</g>
</svg>
