<?xml version="1.0" encoding="utf-8"?>
<!-- Generator: Adobe Illustrator 18.1.1, SVG Export Plug-In . SVG Version: 6.00 Build 0)  -->
<svg version="1.1" id="Layer_1" xmlns="http://www.w3.org/2000/svg" xmlns:xlink="http://www.w3.org/1999/xlink" x="0px" y="0px"
	 viewBox="0 0 500 500" enable-background="new 0 0 500 500" xml:space="preserve">
<rect x="50.9" y="425.1" fill="none" width="398.1" height="39"/>
<text transform="matrix(1 0 0 1 60.8973 446.4444)" fill="#AC2119" font-family="'Nunito-Bold'" font-size="30">Secured Encrypted Storage</text>
<g>
	<g>
		<rect x="27.9" y="268.3" fill="#D1EDF4" width="13.5" height="47.1"/>
		<rect x="23.2" y="279.2" fill="#D1EDF4" width="7.1" height="36.3"/>
		<rect x="38.8" y="281.9" fill="#D1EDF4" width="9.7" height="33.5"/>
		<rect x="45.7" y="259.1" fill="#D1EDF4" width="21.3" height="56.4"/>
		<rect x="86.5" y="275.4" fill="#D1EDF4" width="143.6" height="40"/>
		<rect x="98.5" y="236.7" fill="#D1EDF4" width="21.3" height="78.7"/>
		<rect x="125.8" y="204.4" fill="#D1EDF4" width="21.3" height="111"/>
		<rect x="136.5" y="128.9" fill="#D1EDF4" width="21.3" height="186.5"/>
		<rect x="206.7" y="204.4" fill="#D1EDF4" width="21.3" height="111"/>
		<rect x="265.9" y="236.7" fill="#D1EDF4" width="25.2" height="78.7"/>
		<polygon fill="#D1EDF4" points="307.3,315.4 275,315.4 275,173.3 290.7,173.3 307.3,191.8 		"/>
		<polygon fill="#D1EDF4" points="269.9,315.4 248.6,315.4 248.6,204.4 257,204.4 269.9,222.1 		"/>
		<rect x="217.4" y="128.9" fill="#D1EDF4" width="36.3" height="186.5"/>
		<rect x="222.4" y="122.9" fill="#D1EDF4" width="26.2" height="29.7"/>
		<rect x="226.3" y="113.6" fill="#D1EDF4" width="18.3" height="24.1"/>
		<rect x="165.3" y="78.4" fill="#D1EDF4" width="18.3" height="24.1"/>
		<rect x="144.4" y="101.7" fill="#D1EDF4" width="21.3" height="213.7"/>
		<rect x="155" y="83.8" fill="#D1EDF4" width="32.4" height="231.6"/>
		<rect x="175.2" y="122.9" fill="#D1EDF4" width="17.8" height="192.5"/>
		<rect x="184.1" y="189.1" fill="#D1EDF4" width="17.8" height="126.3"/>
		<rect x="307.3" y="199" fill="#D1EDF4" width="18.6" height="116.4"/>
		<rect x="332.5" y="167.5" fill="#D1EDF4" width="16" height="15"/>
		<rect x="314.2" y="182.1" fill="#D1EDF4" width="18.6" height="133.3"/>
		<rect x="323.5" y="170.9" fill="#D1EDF4" width="28.3" height="144.5"/>
		<rect x="341.2" y="195.3" fill="#D1EDF4" width="15.5" height="120.1"/>
		<rect x="348.9" y="236.6" fill="#D1EDF4" width="15.5" height="78.8"/>
		<rect x="364.4" y="208.6" fill="#D1EDF4" width="58.6" height="106.9"/>
		<rect x="101" y="229.2" fill="#D1EDF4" width="16.4" height="26.8"/>
		<polygon fill="#D1EDF4" points="90.5,315.4 65.3,315.4 65.3,196.5 83.1,211.4 90.5,211.4 		"/>
		<rect x="428.7" y="278.6" fill="#D1EDF4" width="15.1" height="36.9"/>
		<rect x="418.8" y="287.1" fill="#D1EDF4" width="19.6" height="28.4"/>
		<rect x="441.8" y="258.2" fill="#D1EDF4" width="8.1" height="57.2"/>
		<rect x="447.5" y="252.5" fill="#D1EDF4" width="17.7" height="62.9"/>
		<rect x="463.9" y="243" fill="#D1EDF4" width="20.9" height="72.4"/>
		<rect x="379.1" y="189.6" fill="#D1EDF4" width="36.3" height="125.8"/>
		<rect x="384.2" y="185.6" fill="#D1EDF4" width="26.2" height="20"/>
		<rect x="388.1" y="179.3" fill="#D1EDF4" width="18.3" height="16.3"/>
		<rect x="466.5" y="238.6" fill="#D1EDF4" width="14.6" height="12.5"/>
		<rect x="277.4" y="167.7" fill="#D1EDF4" width="12.6" height="17.3"/>
	</g>
	<path fill="#007C84" d="M34.9,326.9c0,2.2,2.4,4.1,5.3,4.1h146.6c3,0,5.3-1.8,5.3-4.1l0,0c0-2.2-2.4-4.1-5.3-4.1H40.2
		C37.3,322.8,34.9,324.6,34.9,326.9L34.9,326.9z"/>
	<path fill="#007C84" d="M171.6,318.4c0,2.2,2.4,4.1,5.3,4.1h146.6c3,0,5.3-1.8,5.3-4.1l0,0c0-2.2-2.4-4.1-5.3-4.1H177
		C174,314.4,171.6,316.2,171.6,318.4L171.6,318.4z"/>
	<g>
		<g>
			<rect x="169.3" y="215.9" fill="#A3A5A8" width="147.2" height="101.7"/>
			<rect x="64.3" y="234.9" fill="#B8BABC" width="121" height="91.2"/>
			<rect x="81.3" y="254.5" fill="#8A8C8E" width="85.4" height="71.6"/>
			<rect x="85.5" y="254.5" fill="#5A5B5D" width="77" height="71.6"/>
			<rect x="161.7" y="209.8" fill="#656668" width="157.6" height="6.1"/>
			<rect x="203.8" y="249.4" fill="#8A8C8E" width="92.5" height="68.3"/>
			<rect x="208.3" y="249.4" fill="#5A5B5D" width="83.4" height="68.3"/>
			<polygon fill="#9FA1A4" points="187.3,234.9 62.7,234.9 125,186.5 			"/>
			<rect x="47.3" y="296.6" fill="#8D9092" width="68.1" height="29.4"/>
			<rect x="93.8" y="296.6" fill="#757679" width="21.6" height="29.4"/>
			<rect x="45.1" y="291.5" fill="#9D9FA2" width="72.4" height="5.2"/>
			<rect x="94.6" y="291.5" fill="#808285" width="23" height="5.2"/>
			<path fill="#77787B" d="M64.3,234.9c4.1-3.2,60.5-46.8,60.5-46.8s58.8,45.3,60.5,46.8c3.7,3.2,8.8-0.8,5.8-3.2
				c-3-2.4-66.4-52.6-66.4-52.6s-62.3,49.6-66,52.6C55.1,234.6,60,239.2,64.3,234.9z"/>
			<rect x="83.7" y="254.5" fill="#CBCCCE" width="80.7" height="23"/>
			<rect x="83.7" y="275.5" fill="#CBCCCE" width="80.7" height="2"/>
			<path fill="#CBCCCE" d="M161.7,270.2c0,0.6-0.5,1-1,1H86.6c-0.6,0-1-0.5-1-1l0,0c0-0.6,0.5-1,1-1h74.1
				C161.3,269.2,161.7,269.7,161.7,270.2L161.7,270.2z"/>
			<path fill="#CBCCCE" d="M161.7,265.1c0,0.6-0.5,1-1,1H86.6c-0.6,0-1-0.5-1-1l0,0c0-0.6,0.5-1,1-1h74.1
				C161.3,264.1,161.7,264.6,161.7,265.1L161.7,265.1z"/>
			<path fill="#CBCCCE" d="M161.7,260c0,0.6-0.5,1-1,1H86.6c-0.6,0-1-0.5-1-1l0,0c0-0.6,0.5-1,1-1h74.1
				C161.3,259,161.7,259.4,161.7,260L161.7,260z"/>
			<rect x="198.7" y="222" fill="#5A5B5D" width="31.7" height="13.9"/>
			<rect x="201.9" y="224.6" fill="#27AAE1" width="25.4" height="8.9"/>
			<polygon fill="#218BB8" points="227.2,233.5 201.9,233.5 201.9,224.6 			"/>
			<rect x="238.3" y="222" fill="#5A5B5D" width="31.7" height="13.9"/>
			<rect x="241.5" y="224.6" fill="#27AAE1" width="25.4" height="8.9"/>
			<polygon fill="#218BB8" points="266.8,233.5 241.5,233.5 241.5,224.6 			"/>
			<rect x="277.9" y="222" fill="#5A5B5D" width="31.7" height="13.9"/>
			<rect x="281" y="224.6" fill="#27AAE1" width="25.4" height="8.9"/>
			<polygon fill="#218BB8" points="306.4,233.5 281,233.5 281,224.6 			"/>
		</g>
		<g>
			<g>
				<rect x="318.6" y="243.3" fill="#D57D43" width="9" height="18.1"/>
				<rect x="321.4" y="243.3" fill="#E7D5C6" width="2.8" height="5.4"/>
				<rect x="302" y="243.3" fill="#F9A45A" width="16.7" height="18.1"/>
				<polygon opacity="0.5" fill="#FDD6BF" points="302.6,260.7 302.6,244 318,244 				"/>
				<rect x="321.8" y="243.3" fill="#E6E7E8" width="2.7" height="5.2"/>
				<rect x="311.3" y="255.7" fill="#703E17" width="6.1" height="0.9"/>
				<rect x="313.3" y="257.4" fill="#703E17" width="4.2" height="0.9"/>
				
					<rect x="315.7" y="258.7" fill="none" stroke="#703E17" stroke-width="0.3698" stroke-linecap="round" stroke-linejoin="round" stroke-miterlimit="10" width="1.5" height="1.3"/>
				
					<rect x="313.5" y="258.7" fill="none" stroke="#703E17" stroke-width="0.3698" stroke-linecap="round" stroke-linejoin="round" stroke-miterlimit="10" width="1.5" height="1.3"/>
			</g>
			<g>
				<rect x="344.3" y="243.3" fill="#D57D43" width="9" height="18.1"/>
				<rect x="347.1" y="243.3" fill="#E7D5C6" width="2.8" height="5.4"/>
				<rect x="327.7" y="243.3" fill="#F9A45A" width="16.7" height="18.1"/>
				<polygon opacity="0.5" fill="#FDD6BF" points="328.3,260.7 328.3,244 343.7,244 				"/>
				<rect x="347.5" y="243.3" fill="#E6E7E8" width="2.7" height="5.2"/>
				<rect x="337" y="255.7" fill="#703E17" width="6.1" height="0.9"/>
				<rect x="338.9" y="257.4" fill="#703E17" width="4.2" height="0.9"/>
				
					<rect x="341.4" y="258.7" fill="none" stroke="#703E17" stroke-width="0.3698" stroke-linecap="round" stroke-linejoin="round" stroke-miterlimit="10" width="1.5" height="1.3"/>
				
					<rect x="339.2" y="258.7" fill="none" stroke="#703E17" stroke-width="0.3698" stroke-linecap="round" stroke-linejoin="round" stroke-miterlimit="10" width="1.5" height="1.3"/>
			</g>
			<g>
				<rect x="318.6" y="279.4" fill="#D57D43" width="9" height="18.1"/>
				<rect x="321.4" y="279.4" fill="#E7D5C6" width="2.8" height="5.4"/>
				<rect x="302" y="279.4" fill="#F9A45A" width="16.7" height="18.1"/>
				<polygon opacity="0.5" fill="#FDD6BF" points="302.6,296.8 302.6,280.1 318,280.1 				"/>
				<rect x="321.8" y="279.4" fill="#E6E7E8" width="2.7" height="5.2"/>
				<rect x="311.3" y="291.9" fill="#703E17" width="6.1" height="0.9"/>
				<rect x="313.3" y="293.5" fill="#703E17" width="4.2" height="0.9"/>
				
					<rect x="315.7" y="294.9" fill="none" stroke="#703E17" stroke-width="0.3698" stroke-linecap="round" stroke-linejoin="round" stroke-miterlimit="10" width="1.5" height="1.3"/>
				
					<rect x="313.5" y="294.9" fill="none" stroke="#703E17" stroke-width="0.3698" stroke-linecap="round" stroke-linejoin="round" stroke-miterlimit="10" width="1.5" height="1.3"/>
			</g>
			<g>
				<rect x="344.3" y="279.4" fill="#D57D43" width="9" height="18.1"/>
				<rect x="347.1" y="279.4" fill="#E7D5C6" width="2.8" height="5.4"/>
				<rect x="327.7" y="279.4" fill="#F9A45A" width="16.7" height="18.1"/>
				<polygon opacity="0.5" fill="#FDD6BF" points="328.3,296.8 328.3,280.1 343.7,280.1 				"/>
				<rect x="347.5" y="279.4" fill="#E6E7E8" width="2.7" height="5.2"/>
				<rect x="337" y="291.9" fill="#703E17" width="6.1" height="0.9"/>
				<rect x="338.9" y="293.5" fill="#703E17" width="4.2" height="0.9"/>
				
					<rect x="341.4" y="294.9" fill="none" stroke="#703E17" stroke-width="0.3698" stroke-linecap="round" stroke-linejoin="round" stroke-miterlimit="10" width="1.5" height="1.3"/>
				
					<rect x="339.2" y="294.9" fill="none" stroke="#703E17" stroke-width="0.3698" stroke-linecap="round" stroke-linejoin="round" stroke-miterlimit="10" width="1.5" height="1.3"/>
			</g>
			<g>
				<rect x="318.6" y="261.4" fill="#CB713B" width="9" height="18.1"/>
				<rect x="321.4" y="261.4" fill="#E7D5C6" width="2.8" height="5.4"/>
				<rect x="302" y="261.4" fill="#E7944E" width="16.7" height="18.1"/>
				<polygon opacity="0.5" fill="#FDD6BF" points="302.6,278.7 302.6,262.1 318,262.1 				"/>
				<rect x="321.8" y="261.4" fill="#E6E7E8" width="2.7" height="5.2"/>
				<rect x="311.3" y="273.8" fill="#703E17" width="6.1" height="0.9"/>
				<rect x="313.3" y="275.4" fill="#703E17" width="4.2" height="0.9"/>
				
					<rect x="315.7" y="276.8" fill="none" stroke="#703E17" stroke-width="0.3698" stroke-linecap="round" stroke-linejoin="round" stroke-miterlimit="10" width="1.5" height="1.3"/>
				
					<rect x="313.5" y="276.8" fill="none" stroke="#703E17" stroke-width="0.3698" stroke-linecap="round" stroke-linejoin="round" stroke-miterlimit="10" width="1.5" height="1.3"/>
			</g>
			<g>
				<rect x="344.3" y="261.4" fill="#CB713B" width="9" height="18.1"/>
				<rect x="347.1" y="261.4" fill="#E7D5C6" width="2.8" height="5.4"/>
				<rect x="327.7" y="261.4" fill="#E7944E" width="16.7" height="18.1"/>
				<polygon opacity="0.5" fill="#FDD6BF" points="328.3,278.7 328.3,262.1 343.7,262.1 				"/>
				<rect x="347.5" y="261.4" fill="#E6E7E8" width="2.7" height="5.2"/>
				<rect x="337" y="273.8" fill="#703E17" width="6.1" height="0.9"/>
				<rect x="338.9" y="275.4" fill="#703E17" width="4.2" height="0.9"/>
				
					<rect x="341.4" y="276.8" fill="none" stroke="#703E17" stroke-width="0.3698" stroke-linecap="round" stroke-linejoin="round" stroke-miterlimit="10" width="1.5" height="1.3"/>
				
					<rect x="339.2" y="276.8" fill="none" stroke="#703E17" stroke-width="0.3698" stroke-linecap="round" stroke-linejoin="round" stroke-miterlimit="10" width="1.5" height="1.3"/>
			</g>
			<g>
				<rect x="318.6" y="297.5" fill="#CB713B" width="9" height="18.1"/>
				<rect x="321.4" y="297.5" fill="#E7D5C6" width="2.8" height="5.4"/>
				<rect x="302" y="297.5" fill="#E7944E" width="16.7" height="18.1"/>
				<polygon opacity="0.5" fill="#FDD6BF" points="302.6,314.9 302.6,298.2 318,298.2 				"/>
				<rect x="321.8" y="297.5" fill="#E6E7E8" width="2.7" height="5.2"/>
				<rect x="311.3" y="309.9" fill="#703E17" width="6.1" height="0.9"/>
				<rect x="313.3" y="311.6" fill="#703E17" width="4.2" height="0.9"/>
				
					<rect x="315.7" y="312.9" fill="none" stroke="#703E17" stroke-width="0.3698" stroke-linecap="round" stroke-linejoin="round" stroke-miterlimit="10" width="1.5" height="1.3"/>
				
					<rect x="313.5" y="312.9" fill="none" stroke="#703E17" stroke-width="0.3698" stroke-linecap="round" stroke-linejoin="round" stroke-miterlimit="10" width="1.5" height="1.3"/>
			</g>
			<g>
				<rect x="344.3" y="297.5" fill="#CB713B" width="9" height="18.1"/>
				<rect x="347.1" y="297.5" fill="#E7D5C6" width="2.8" height="5.4"/>
				<rect x="327.7" y="297.5" fill="#E7944E" width="16.7" height="18.1"/>
				<polygon opacity="0.5" fill="#FDD6BF" points="328.3,314.9 328.3,298.2 343.7,298.2 				"/>
				<rect x="347.5" y="297.5" fill="#E6E7E8" width="2.7" height="5.2"/>
				<rect x="337" y="309.9" fill="#703E17" width="6.1" height="0.9"/>
				<rect x="338.9" y="311.6" fill="#703E17" width="4.2" height="0.9"/>
				
					<rect x="341.4" y="312.9" fill="none" stroke="#703E17" stroke-width="0.3698" stroke-linecap="round" stroke-linejoin="round" stroke-miterlimit="10" width="1.5" height="1.3"/>
				
					<rect x="339.2" y="312.9" fill="none" stroke="#703E17" stroke-width="0.3698" stroke-linecap="round" stroke-linejoin="round" stroke-miterlimit="10" width="1.5" height="1.3"/>
			</g>
			<rect x="300" y="315.6" fill="#43282A" width="55.7" height="2.9"/>
			<rect x="300" y="317.5" fill="#291112" width="55.7" height="0.9"/>
			<rect x="300" y="321.3" fill="#43282A" width="55.7" height="2.4"/>
			<rect x="300" y="323" fill="#291112" width="55.7" height="0.8"/>
			<rect x="301.6" y="318.4" fill="#43282A" width="1.9" height="2.9"/>
			<rect x="301.6" y="318.4" fill="#1C0203" width="1.9" height="1"/>
			<rect x="311.7" y="318.4" fill="#43282A" width="1.9" height="2.9"/>
			<rect x="311.7" y="318.4" fill="#1C0203" width="1.9" height="1"/>
			<rect x="321.9" y="318.4" fill="#43282A" width="1.9" height="2.9"/>
			<rect x="321.9" y="318.4" fill="#1C0203" width="1.9" height="1"/>
			<rect x="332" y="318.4" fill="#43282A" width="1.9" height="2.9"/>
			<rect x="332" y="318.4" fill="#1C0203" width="1.9" height="1"/>
			<rect x="342.1" y="318.4" fill="#43282A" width="1.9" height="2.9"/>
			<rect x="342.1" y="318.4" fill="#1C0203" width="1.9" height="1"/>
			<rect x="352.3" y="318.4" fill="#43282A" width="1.9" height="2.9"/>
			<rect x="352.3" y="318.4" fill="#1C0203" width="1.9" height="1"/>
		</g>
		<g>
			<g>
				<rect x="230.4" y="256.1" fill="#D57D43" width="7.8" height="15.4"/>
				<rect x="232.9" y="256.1" fill="#E7D5C6" width="2.5" height="4.6"/>
				<rect x="216" y="256.1" fill="#F9A45A" width="14.5" height="15.4"/>
				<polygon opacity="0.5" fill="#FDD6BF" points="216.5,270.9 216.5,256.7 229.9,256.7 				"/>
				<rect x="233.2" y="256.1" fill="#E6E7E8" width="2.4" height="4.4"/>
				<rect x="224" y="266.7" fill="#703E17" width="5.3" height="0.7"/>
				<rect x="225.8" y="268.1" fill="#703E17" width="3.6" height="0.7"/>
				
					<rect x="227.9" y="269.2" fill="none" stroke="#703E17" stroke-width="0.3182" stroke-linecap="round" stroke-linejoin="round" stroke-miterlimit="10" width="1.3" height="1.1"/>
				
					<rect x="226" y="269.2" fill="none" stroke="#703E17" stroke-width="0.3182" stroke-linecap="round" stroke-linejoin="round" stroke-miterlimit="10" width="1.3" height="1.1"/>
			</g>
			<g>
				<rect x="275.1" y="302.3" fill="#D57D43" width="7.8" height="15.4"/>
				<rect x="277.5" y="302.3" fill="#E7D5C6" width="2.5" height="4.6"/>
				<rect x="260.6" y="302.3" fill="#F9A45A" width="14.5" height="15.4"/>
				<polygon opacity="0.5" fill="#FDD6BF" points="261.2,317.1 261.2,302.9 274.5,302.9 				"/>
				<rect x="277.8" y="302.3" fill="#E6E7E8" width="2.4" height="4.4"/>
				<rect x="268.7" y="312.9" fill="#703E17" width="5.3" height="0.7"/>
				<rect x="270.4" y="314.3" fill="#703E17" width="3.6" height="0.7"/>
				
					<rect x="272.6" y="315.4" fill="none" stroke="#703E17" stroke-width="0.3182" stroke-linecap="round" stroke-linejoin="round" stroke-miterlimit="10" width="1.3" height="1.1"/>
				
					<rect x="270.6" y="315.4" fill="none" stroke="#703E17" stroke-width="0.3182" stroke-linecap="round" stroke-linejoin="round" stroke-miterlimit="10" width="1.3" height="1.1"/>
			</g>
			<g>
				<rect x="230.4" y="286.9" fill="#D57D43" width="7.8" height="15.4"/>
				<rect x="232.9" y="286.9" fill="#E7D5C6" width="2.5" height="4.6"/>
				<rect x="216" y="286.9" fill="#F9A45A" width="14.5" height="15.4"/>
				<polygon opacity="0.5" fill="#FDD6BF" points="216.5,301.7 216.5,287.5 229.9,287.5 				"/>
				<rect x="233.2" y="286.9" fill="#E6E7E8" width="2.4" height="4.4"/>
				<rect x="224" y="297.5" fill="#703E17" width="5.3" height="0.7"/>
				<rect x="225.8" y="298.9" fill="#703E17" width="3.6" height="0.7"/>
				
					<rect x="227.9" y="300" fill="none" stroke="#703E17" stroke-width="0.3182" stroke-linecap="round" stroke-linejoin="round" stroke-miterlimit="10" width="1.3" height="1.1"/>
				
					<rect x="226" y="300" fill="none" stroke="#703E17" stroke-width="0.3182" stroke-linecap="round" stroke-linejoin="round" stroke-miterlimit="10" width="1.3" height="1.1"/>
			</g>
			<g>
				<rect x="252.8" y="286.9" fill="#D57D43" width="7.8" height="15.4"/>
				<rect x="255.2" y="286.9" fill="#E7D5C6" width="2.5" height="4.6"/>
				<rect x="238.3" y="286.9" fill="#F9A45A" width="14.5" height="15.4"/>
				<polygon opacity="0.5" fill="#FDD6BF" points="238.8,301.7 238.8,287.5 252.2,287.5 				"/>
				<rect x="255.5" y="286.9" fill="#E6E7E8" width="2.4" height="4.4"/>
				<rect x="246.4" y="297.5" fill="#703E17" width="5.3" height="0.7"/>
				<rect x="248.1" y="298.9" fill="#703E17" width="3.6" height="0.7"/>
				
					<rect x="250.3" y="300" fill="none" stroke="#703E17" stroke-width="0.3182" stroke-linecap="round" stroke-linejoin="round" stroke-miterlimit="10" width="1.3" height="1.1"/>
				
					<rect x="248.3" y="300" fill="none" stroke="#703E17" stroke-width="0.3182" stroke-linecap="round" stroke-linejoin="round" stroke-miterlimit="10" width="1.3" height="1.1"/>
			</g>
			<g>
				<rect x="230.4" y="271.5" fill="#CB713B" width="7.8" height="15.4"/>
				<rect x="232.9" y="271.5" fill="#E7D5C6" width="2.5" height="4.6"/>
				<rect x="216" y="271.5" fill="#E7944E" width="14.5" height="15.4"/>
				<polygon opacity="0.5" fill="#FDD6BF" points="216.5,286.3 216.5,272.1 229.9,272.1 				"/>
				<rect x="233.2" y="271.5" fill="#E6E7E8" width="2.4" height="4.4"/>
				<rect x="224" y="282.1" fill="#703E17" width="5.3" height="0.7"/>
				<rect x="225.8" y="283.5" fill="#703E17" width="3.6" height="0.7"/>
				
					<rect x="227.9" y="284.6" fill="none" stroke="#703E17" stroke-width="0.3182" stroke-linecap="round" stroke-linejoin="round" stroke-miterlimit="10" width="1.3" height="1.1"/>
				
					<rect x="226" y="284.6" fill="none" stroke="#703E17" stroke-width="0.3182" stroke-linecap="round" stroke-linejoin="round" stroke-miterlimit="10" width="1.3" height="1.1"/>
			</g>
			<g>
				<rect x="252.8" y="271.5" fill="#CB713B" width="7.8" height="15.4"/>
				<rect x="255.2" y="271.5" fill="#E7D5C6" width="2.5" height="4.6"/>
				<rect x="238.3" y="271.5" fill="#E7944E" width="14.5" height="15.4"/>
				<polygon opacity="0.5" fill="#FDD6BF" points="238.8,286.3 238.8,272.1 252.2,272.1 				"/>
				<rect x="255.5" y="271.5" fill="#E6E7E8" width="2.4" height="4.4"/>
				<rect x="246.4" y="282.1" fill="#703E17" width="5.3" height="0.7"/>
				<rect x="248.1" y="283.5" fill="#703E17" width="3.6" height="0.7"/>
				
					<rect x="250.3" y="284.6" fill="none" stroke="#703E17" stroke-width="0.3182" stroke-linecap="round" stroke-linejoin="round" stroke-miterlimit="10" width="1.3" height="1.1"/>
				
					<rect x="248.3" y="284.6" fill="none" stroke="#703E17" stroke-width="0.3182" stroke-linecap="round" stroke-linejoin="round" stroke-miterlimit="10" width="1.3" height="1.1"/>
			</g>
			<g>
				<rect x="230.4" y="302.3" fill="#CB713B" width="7.8" height="15.4"/>
				<rect x="232.9" y="302.3" fill="#E7D5C6" width="2.5" height="4.6"/>
				<rect x="216" y="302.3" fill="#E7944E" width="14.5" height="15.4"/>
				<polygon opacity="0.5" fill="#FDD6BF" points="216.5,317.1 216.5,302.9 229.9,302.9 				"/>
				<rect x="233.2" y="302.3" fill="#E6E7E8" width="2.4" height="4.4"/>
				<rect x="224" y="312.9" fill="#703E17" width="5.3" height="0.7"/>
				<rect x="225.8" y="314.3" fill="#703E17" width="3.6" height="0.7"/>
				
					<rect x="227.9" y="315.4" fill="none" stroke="#703E17" stroke-width="0.3182" stroke-linecap="round" stroke-linejoin="round" stroke-miterlimit="10" width="1.3" height="1.1"/>
				
					<rect x="226" y="315.4" fill="none" stroke="#703E17" stroke-width="0.3182" stroke-linecap="round" stroke-linejoin="round" stroke-miterlimit="10" width="1.3" height="1.1"/>
			</g>
			<g>
				<rect x="252.8" y="302.3" fill="#CB713B" width="7.8" height="15.4"/>
				<rect x="255.2" y="302.3" fill="#E7D5C6" width="2.5" height="4.6"/>
				<rect x="238.3" y="302.3" fill="#E7944E" width="14.5" height="15.4"/>
				<polygon opacity="0.5" fill="#FDD6BF" points="238.8,317.1 238.8,302.9 252.2,302.9 				"/>
				<rect x="255.5" y="302.3" fill="#E6E7E8" width="2.4" height="4.4"/>
				<rect x="246.4" y="312.9" fill="#703E17" width="5.3" height="0.7"/>
				<rect x="248.1" y="314.3" fill="#703E17" width="3.6" height="0.7"/>
				
					<rect x="250.3" y="315.4" fill="none" stroke="#703E17" stroke-width="0.3182" stroke-linecap="round" stroke-linejoin="round" stroke-miterlimit="10" width="1.3" height="1.1"/>
				
					<rect x="248.3" y="315.4" fill="none" stroke="#703E17" stroke-width="0.3182" stroke-linecap="round" stroke-linejoin="round" stroke-miterlimit="10" width="1.3" height="1.1"/>
			</g>
		</g>
		<g>
			<g>
				<rect x="64.4" y="260.7" fill="#D57D43" width="7.8" height="15.4"/>
				<rect x="66.9" y="260.7" fill="#E7D5C6" width="2.5" height="4.6"/>
				<rect x="50" y="260.7" fill="#F9A45A" width="14.5" height="15.4"/>
				<polygon opacity="0.5" fill="#FDD6BF" points="50.5,275.5 50.5,261.3 63.9,261.3 				"/>
				<rect x="67.2" y="260.7" fill="#E6E7E8" width="2.4" height="4.4"/>
				<rect x="58.1" y="271.3" fill="#703E17" width="5.3" height="0.7"/>
				<rect x="59.8" y="272.7" fill="#703E17" width="3.6" height="0.7"/>
				
					<rect x="61.9" y="273.8" fill="none" stroke="#703E17" stroke-width="0.3182" stroke-linecap="round" stroke-linejoin="round" stroke-miterlimit="10" width="1.3" height="1.1"/>
				
					<rect x="60" y="273.8" fill="none" stroke="#703E17" stroke-width="0.3182" stroke-linecap="round" stroke-linejoin="round" stroke-miterlimit="10" width="1.3" height="1.1"/>
			</g>
			<g>
				<rect x="64.4" y="276.1" fill="#CB713B" width="7.8" height="15.4"/>
				<rect x="66.9" y="276.1" fill="#E7D5C6" width="2.5" height="4.6"/>
				<rect x="50" y="276.1" fill="#E7944E" width="14.5" height="15.4"/>
				<polygon opacity="0.5" fill="#FDD6BF" points="50.5,290.9 50.5,276.7 63.9,276.7 				"/>
				<rect x="67.2" y="276.1" fill="#E6E7E8" width="2.4" height="4.4"/>
				<rect x="58.1" y="286.7" fill="#703E17" width="5.3" height="0.7"/>
				<rect x="59.8" y="288.1" fill="#703E17" width="3.6" height="0.7"/>
				
					<rect x="61.9" y="289.2" fill="none" stroke="#703E17" stroke-width="0.3182" stroke-linecap="round" stroke-linejoin="round" stroke-miterlimit="10" width="1.3" height="1.1"/>
				
					<rect x="60" y="289.2" fill="none" stroke="#703E17" stroke-width="0.3182" stroke-linecap="round" stroke-linejoin="round" stroke-miterlimit="10" width="1.3" height="1.1"/>
			</g>
			<g>
				<rect x="86.8" y="276.1" fill="#CB713B" width="7.8" height="15.4"/>
				<rect x="89.2" y="276.1" fill="#E7D5C6" width="2.5" height="4.6"/>
				<rect x="72.3" y="276.1" fill="#E7944E" width="14.5" height="15.4"/>
				<polygon opacity="0.5" fill="#FDD6BF" points="72.9,290.9 72.9,276.7 86.2,276.7 				"/>
				<rect x="89.5" y="276.1" fill="#E6E7E8" width="2.4" height="4.4"/>
				<rect x="80.4" y="286.7" fill="#703E17" width="5.3" height="0.7"/>
				<rect x="82.1" y="288.1" fill="#703E17" width="3.6" height="0.7"/>
				
					<rect x="84.3" y="289.2" fill="none" stroke="#703E17" stroke-width="0.3182" stroke-linecap="round" stroke-linejoin="round" stroke-miterlimit="10" width="1.3" height="1.1"/>
				
					<rect x="82.3" y="289.2" fill="none" stroke="#703E17" stroke-width="0.3182" stroke-linecap="round" stroke-linejoin="round" stroke-miterlimit="10" width="1.3" height="1.1"/>
			</g>
		</g>
	</g>
	<g>
		<ellipse fill="#6694A8" cx="371.9" cy="371.1" rx="13.1" ry="2.5"/>
		<ellipse fill="#6694A8" cx="425.2" cy="371.1" rx="13.1" ry="2.5"/>
		<g>
			<path fill="#030000" d="M382.5,333.2c0.3,1.2,0.6,2.4-0.6,2.9c-0.7,0.3-4.4,0.9-5.8,0.9c-1,0-2.1,0-2.2-0.5
				c-0.1-0.4,0.2-1.3,0.8-1.4c1.4-0.1,2.7-0.3,3.9-1.8C379,332.9,382.7,332.8,382.5,333.2z"/>
			<g>
				<path fill="#FBB688" d="M386.6,305.1c0,0,9.2-3.5,10.2-4.3c1.2-1,3.9-4.8,3.9-4.8l-1.9-1.1l-3.4,4.3l-9.2,4.6L386.6,305.1z"/>
				<path fill="#F15A22" d="M397.3,295.9c0,0,2.9-6.4,3.1-6.9c0.8-1.9,3.4,0.5,3,1.8c-0.2,0.7-3.1,6.7-3.1,6.7L397.3,295.9z"/>
				<path fill="#FBB688" d="M385.4,306.6c0.8-0.2,1.1-1.4,1.1-1.4l-0.4-1.4c0,0-1.7-0.1-2.1,0.5
					C383.9,304.7,384.6,306.8,385.4,306.6z"/>
			</g>
			<rect x="350.7" y="323.5" fill="#5A5B5D" width="4.5" height="31.9"/>
			<rect x="353.4" y="263.1" fill="#7B7C7F" width="4.5" height="81.8"/>
			<rect x="360.7" y="264.6" fill="#7B7C7F" width="1.1" height="80.2"/>
			<rect x="352.7" y="344.5" fill="#95979A" width="5.9" height="15.5"/>
			<path fill="#A1A3A6" d="M354.4,354.1c3.7,0,4.5,5.9,0,5.9c-4.5,0-45.3,0-45.3,0v-5.9C309.1,354.1,351.3,354.1,354.4,354.1z"/>
			<rect x="352.7" y="263.1" fill="#A1A3A6" width="9.4" height="3.9"/>
			<ellipse fill="#F7941E" cx="446.9" cy="340" rx="2.2" ry="3.6"/>
			<rect x="442.8" y="335.5" fill="#241F29" width="4.1" height="9"/>
			<path fill="#241F29" d="M373.1,318.5c-1.3-6.1-6.8-5-6.8-5l-1.2,27.3l13.7,3.7C378.7,344.5,374.4,324.6,373.1,318.5z"/>
			<path fill="#241F29" d="M382.3,313.4c1.3-2.2-1.1-7.7-2.3-6.3c-1.1,1.3-9.7,11.3-9.7,11.3l1.5,13.3
				C371.8,331.7,381,315.7,382.3,313.4z"/>
			<path fill="#0B0410" d="M409.4,293.2c0.6-2.5,5.9-6.2,5.9-3.1c0,1.8-2.7,32.5-2.7,32.5l-8.2-2.8
				C404.5,319.7,408.9,295.7,409.4,293.2z"/>
			<path fill="#0B0410" d="M395.8,316.1c-2.5,0.5-5.7,4.8-2.6,4.9c1.8,0.1,19.6-0.3,19.6-0.3l-0.2-7
				C412.7,313.6,398.4,315.6,395.8,316.1z"/>
			<path fill="#241F29" d="M394.9,320.9c-2.6,0.4-6,3.7-2.9,3.9c0.4,0-12.4,20.5-9.6,20.6c10.4,0.4,47.3-19.3,47.3-19.3l-0.1-8.9
				C429.5,317.2,397.4,320.4,394.9,320.9z"/>
			<path fill="#808285" d="M387.5,348.4h45.8l-5-44l-14,0.3c0,0-1.8,17.2-2.8,17.3c-6.2,0.6-10.6,1.1-12.2,1.1
				c-3.9,0-11.8,15.8-11.8,15.8V348.4z"/>
			<rect x="364.2" y="337.1" fill="#808285" width="45.8" height="7.4"/>
			<path fill="#291112" d="M436.5,304c-1.3-6.1-8.3-4.9-8.3-4.9l4.8,30.9h9.1C442.1,329.9,437.8,310.1,436.5,304z"/>
			<path fill="#A1A3A6" d="M421.8,273.3c0.7,3.5,9.4,58.9,9.4,58.9l5.2-1.1c0,0-10.2-59.6-11-63.3c-0.8-3.7-2.3-4.6-4.5-4.6h-34
				c-5,0-8.1,2.6-9.2,7.3c-1.1,4.7-15.8,53.8-15.8,53.8v18.1l5.2,0.3v-16.8c0,0,12.6-45.7,13.6-50.1c1-4.4,3.6-6.8,7.9-6.8H418
				C419.8,269,421.1,269.8,421.8,273.3z"/>
			<rect x="387.1" y="354.9" fill="#241F29" width="59" height="5.1"/>
			<path fill="#AC2119" d="M440.2,326.9c-3,0-12,0-18.9,0c-7,0-12.8,7.8-12.8,7.8s-0.7,0-5,0c-4.4,0-11.1,6.1-11.1,6.1h-30.2
				c0,0-4.2,1.1-4.2,4.8c0,3.7,0,10.3,0,10.3s3.5-10.3,15.3-9.9c11.7,0.4,13.9,8.8,13.9,8.8h59c0,0-1.7-17.1-1.7-21.5
				C444.3,328.9,443.2,326.9,440.2,326.9z"/>
			<g>
				<circle fill="#0B0410" cx="373.2" cy="360" r="11.1"/>
				<circle fill="#D1D3D4" cx="373.2" cy="360" r="6.9"/>
				<circle fill="#A1A3A6" cx="373.2" cy="360" r="1.4"/>
				<path fill="#D1D3D4" d="M377.8,354.9c0.8,1.1,1.3,2.5,1.3,4c0,3.8-3.1,6.9-6.9,6.9c-1.8,0-3.4-0.7-4.6-1.8
					c1.2,1.7,3.3,2.8,5.5,2.8c3.8,0,6.9-3.1,6.9-6.9C380,358,379.1,356.2,377.8,354.9z"/>
			</g>
			<path fill="#E52729" d="M373,344.5c-8.7,0-15.7,7-15.7,15.7h2.7c0-7.2,5.8-13,13-13c7.2,0,13,5.8,13,13h2.7
				C388.7,351.5,381.7,344.5,373,344.5z"/>
			<path fill="#E52729" d="M426.5,344.5c-8.7,0-15.7,7-15.7,15.7h31.4C442.1,351.5,435.1,344.5,426.5,344.5z"/>
			<g>
				<circle fill="#0B0410" cx="426.6" cy="360" r="11.1"/>
				<circle fill="#D1D3D4" cx="426.6" cy="360" r="6.9"/>
				<circle fill="#A1A3A6" cx="426.6" cy="360" r="1.4"/>
				<path fill="#D1D3D4" d="M431.2,354.9c0.8,1.1,1.3,2.5,1.3,4c0,3.8-3.1,6.9-6.9,6.9c-1.8,0-3.4-0.7-4.6-1.8
					c1.2,1.7,3.3,2.8,5.5,2.8c3.8,0,6.9-3.1,6.9-6.9C433.5,358,432.6,356.2,431.2,354.9z"/>
			</g>
			<circle fill="#7E8083" cx="354.5" cy="357.1" r="1.4"/>
			<g>
				<g>
					<rect x="336.5" y="252.9" fill="#D57D43" width="13.4" height="25.3"/>
					<rect x="340.7" y="252.9" fill="#E7D5C6" width="4.2" height="7.6"/>
					<rect x="311.9" y="252.9" fill="#F9A45A" width="24.6" height="25.3"/>
					<polygon opacity="0.5" fill="#FDD6BF" points="312.9,277.2 312.9,253.9 335.6,253.9 					"/>
					<rect x="341.2" y="252.9" fill="#E6E7E8" width="4.1" height="7.3"/>
					<rect x="325.7" y="270.3" fill="#703E17" width="9.1" height="1.2"/>
					<rect x="328.6" y="272.6" fill="#703E17" width="6.2" height="1.2"/>
					
						<rect x="332.3" y="274.5" fill="none" stroke="#703E17" stroke-width="0.5319" stroke-linecap="round" stroke-linejoin="round" stroke-miterlimit="10" width="2.2" height="1.9"/>
					
						<rect x="328.9" y="274.5" fill="none" stroke="#703E17" stroke-width="0.5319" stroke-linecap="round" stroke-linejoin="round" stroke-miterlimit="10" width="2.2" height="1.9"/>
				</g>
				<g>
					<rect x="336.5" y="303.5" fill="#D57D43" width="13.4" height="25.3"/>
					<rect x="340.7" y="303.5" fill="#E7D5C6" width="4.2" height="7.6"/>
					<rect x="311.9" y="303.5" fill="#F9A45A" width="24.6" height="25.3"/>
					<polygon opacity="0.5" fill="#FDD6BF" points="312.9,327.7 312.9,304.4 335.6,304.4 					"/>
					<rect x="341.2" y="303.5" fill="#E6E7E8" width="4.1" height="7.3"/>
					<rect x="325.7" y="320.9" fill="#703E17" width="9.1" height="1.2"/>
					<rect x="328.6" y="323.1" fill="#703E17" width="6.2" height="1.2"/>
					
						<rect x="332.3" y="325.1" fill="none" stroke="#703E17" stroke-width="0.5319" stroke-linecap="round" stroke-linejoin="round" stroke-miterlimit="10" width="2.2" height="1.9"/>
					
						<rect x="328.9" y="325.1" fill="none" stroke="#703E17" stroke-width="0.5319" stroke-linecap="round" stroke-linejoin="round" stroke-miterlimit="10" width="2.2" height="1.9"/>
				</g>
				<g>
					<rect x="336.5" y="278.2" fill="#CB713B" width="13.4" height="25.3"/>
					<rect x="340.7" y="278.2" fill="#E7D5C6" width="4.2" height="7.6"/>
					<rect x="311.9" y="278.2" fill="#E7944E" width="24.6" height="25.3"/>
					<polygon opacity="0.5" fill="#FDD6BF" points="312.9,302.5 312.9,279.2 335.6,279.2 					"/>
					<rect x="341.2" y="278.2" fill="#E6E7E8" width="4.1" height="7.3"/>
					<rect x="325.7" y="295.6" fill="#703E17" width="9.1" height="1.2"/>
					<rect x="328.6" y="297.9" fill="#703E17" width="6.2" height="1.2"/>
					
						<rect x="332.3" y="299.8" fill="none" stroke="#703E17" stroke-width="0.5319" stroke-linecap="round" stroke-linejoin="round" stroke-miterlimit="10" width="2.2" height="1.9"/>
					
						<rect x="328.9" y="299.8" fill="none" stroke="#703E17" stroke-width="0.5319" stroke-linecap="round" stroke-linejoin="round" stroke-miterlimit="10" width="2.2" height="1.9"/>
				</g>
				<g>
					<rect x="336.5" y="328.7" fill="#CB713B" width="13.4" height="25.3"/>
					<rect x="340.7" y="328.7" fill="#E7D5C6" width="4.2" height="7.6"/>
					<rect x="311.9" y="328.7" fill="#E7944E" width="24.6" height="25.3"/>
					<polygon opacity="0.5" fill="#FDD6BF" points="312.9,353 312.9,329.7 335.6,329.7 					"/>
					<rect x="341.2" y="328.7" fill="#E6E7E8" width="4.1" height="7.3"/>
					<rect x="325.7" y="346.1" fill="#703E17" width="9.1" height="1.2"/>
					<rect x="328.6" y="348.4" fill="#703E17" width="6.2" height="1.2"/>
					
						<rect x="332.3" y="350.3" fill="none" stroke="#703E17" stroke-width="0.5319" stroke-linecap="round" stroke-linejoin="round" stroke-miterlimit="10" width="2.2" height="1.9"/>
					
						<rect x="328.9" y="350.3" fill="none" stroke="#703E17" stroke-width="0.5319" stroke-linecap="round" stroke-linejoin="round" stroke-miterlimit="10" width="2.2" height="1.9"/>
				</g>
			</g>
			<path fill="#91180D" d="M398.4,275.7c0,0-1-0.7-1.6-1.1c-1.5-1-3.7-0.6-3.7-0.6s0,0.6,1.6,1.5
				C396.4,276.2,398.4,275.7,398.4,275.7z"/>
			<path fill="#7B1E1E" d="M400,310c0,0,7.1-8.1,8.6-2.1c1.1,4.6-4.8,8-4.8,8l-15.4,3.4l-6.4,14.6l-3.9-0.3c0,0,4.5-16,5.5-17.5
				C384.6,314.7,400,310,400,310z"/>
			<path fill="#2A0000" d="M384.7,334.9c0.2,1.2,0.4,2.5-0.8,2.8c-0.7,0.2-4.4,0.8-5.7,0.5c-0.6-0.1-2.3-0.3-2.3-0.7
				c-0.1-0.4,0.3-1.3,0.9-1.3c1.4,0,2.8-0.1,4-1.5C381.2,334.3,384.9,334.5,384.7,334.9z"/>
			<path fill="#FBB688" d="M400.5,291c1.3,0,4.8-3,4.8-3s-0.7-2.1,0.6-4c0.1-0.2-0.8-0.1-1.8,0c-0.1,0-0.2,0-0.3,0c0,0,0,0,0,0
				c-0.4,0.1-0.9,0.2-1.3,0.3c0,0,0,0,0,0c-0.9,0.2-1.6,0.6-1.4,0.9c0,0.1,0.1,0.2,0.1,0.3c0,0,0,0,0,0c0.4,1,0.8,1.8,0.5,2.2
				c-0.1,0.1-0.2,0.2-0.4,0.2C400.8,288,399.2,291,400.5,291z"/>
			<path fill="#DD956F" d="M401,285.2c0,0.1,0.1,0.2,0.1,0.3c0,0,0,0,0,0c0.4,1,0.8,1.8,0.5,2.2c0.7-0.3,1.3-0.8,1.8-1.4
				c0.5-0.7,0.6-1.5,0.6-2.3c-0.1,0-0.2,0-0.3,0c0,0,0,0,0,0c-0.4,0.1-0.9,0.2-1.3,0.3c0,0,0,0,0,0
				C401.6,284.6,400.9,284.9,401,285.2z"/>
			<path fill="#F26522" d="M409.1,307.5h-10.5c0,0,0.4-4.5,0.1-8.9c0-10.4,2.6-10.7,2.6-10.7s0.2,0.7,1.5,0.7c1.8,0,2.5-0.7,2.5-0.7
				s1.7,0.6,2.9,1.5C410.1,291,409.1,307.5,409.1,307.5z"/>
			<path fill="#B42627" d="M398.7,298.6c0-1.4,0-2.7,0.1-3.8h4.9l0.1,10.3l5.4-0.1c-0.1,1.4-0.1,2.4-0.1,2.4h-10.5
				C398.6,307.5,398.9,303,398.7,298.6z"/>
			<g>
				<path fill="#FBB688" d="M397.4,280.8c0.2,4.7,2.1,5.6,4.2,5.6c1.9,0,5.2-0.9,5.2-6c0-5.2,1.1-9.1-3.9-9.1
					C396.4,271.3,397.1,275.6,397.4,280.8z"/>
				<g>
					<path fill="#FFFFFF" d="M399.7,282.7c0,0,0.3,0.9,1.4,1c0.8,0.1,1.3-1,1.3-1L399.7,282.7z"/>
					<path fill="#DD956F" d="M399.7,282.7c0.2,0.4,0.5,1.3,1.5,1.3c0.8,0,1.1-0.9,1.2-1.3c0,0-0.3,1-1.4,1
						C400.3,283.6,399.7,282.7,399.7,282.7z"/>
					<path fill="#D1BEBC" d="M400.6,281c0,0.1,0.3,0.3,0.7,0.3c0.5,0,0.5-0.8,0.5-0.8s-0.1,0.4-0.5,0.4
						C400.9,280.9,400.6,280.9,400.6,281z"/>
					<g>
						<ellipse fill="#160616" cx="398.6" cy="278.9" rx="0.5" ry="0.5"/>
						<circle fill="#FFFFFF" cx="398.5" cy="278.7" r="0.2"/>
					</g>
					<ellipse fill="#F7A08A" cx="398.4" cy="280.2" rx="0.9" ry="0.4"/>
					<g>
						<ellipse fill="#160616" cx="403.7" cy="278.9" rx="0.5" ry="0.5"/>
						<circle fill="#FFFFFF" cx="403.8" cy="278.7" r="0.2"/>
					</g>
					<path fill="#160616" d="M404.6,277c-0.1-0.1-0.3-0.2-0.5-0.2c-0.2,0-0.4-0.1-0.6-0.1c-0.1,0-0.2,0-0.3,0.1
						c-0.1,0.1-0.2,0.1-0.2,0.1c-0.1,0.1,0.1,0.3,0.2,0.3c0.1,0,0.2-0.1,0.4-0.1c0.1,0,0.3,0,0.5,0c0.2,0,0.3,0,0.5,0.1
						C404.6,277.3,404.7,277.1,404.6,277z"/>
					<path fill="#160616" d="M397.9,277c0.1-0.1,0.3-0.2,0.5-0.2c0.2,0,0.4-0.1,0.6-0.1c0.1,0,0.2,0,0.3,0.1
						c0.1,0.1,0.2,0.1,0.2,0.1c0.1,0.1-0.1,0.3-0.2,0.3c-0.1,0-0.2-0.1-0.4-0.1c-0.1,0-0.3,0-0.5,0c-0.2,0-0.3,0-0.5,0.1
						C397.8,277.3,397.7,277.1,397.9,277z"/>
					<ellipse fill="#F7A08A" cx="403.9" cy="280.2" rx="0.9" ry="0.4"/>
				</g>
				<path fill="#160616" d="M397.2,277.8c0,0-0.8-3.2,0-5.4c0.8-2.2,2.8-2.8,4.6-2.8c1.8-0.1,4.5,0,5,1.3c2.8-0.6,1.6,8.7,1.6,8.7
					s-1.3-1.2-2.7-1.6c1.3-3.4-2.3-3.7-5.8-3.5C397.4,274.7,397.2,277.8,397.2,277.8z"/>
				<path fill="#FBB688" d="M408.6,280.2c0,0.8-0.7,2.2-1.9,1.9c-0.8-0.2-1.3-0.7-1.3-1.6c0-0.9,0.9,0.1,1.2-0.7
					C407.1,278.5,408.6,279,408.6,280.2z"/>
				<path fill="#160616" d="M406.9,279.8c0.2-0.5,0.8-1.4,1.6-0.3c0.1-1.1-0.5-2.1-0.6-2.9c-0.5-3.2-0.5-0.2-2.1,1.4
					c1.4,0.8,0.2,2.4,0.2,2.4l0.5,0.5C406.4,280.8,406.8,280.2,406.9,279.8z"/>
			</g>
			<path fill="#EF4632" d="M398.7,275.4c3.5,0.1,10.2,0.1,10.2-0.2c0-4.5-2.3-6-6.1-6c-3.6,0-5.8,0.6-6,5.1
				C396.7,274.5,397.6,274.8,398.7,275.4z"/>
			<path fill="#EE332A" d="M397.4,275.1c1.5,1.1,4.5,1.2,5.5,1c1.5-0.3,1.7-0.7,1.7-0.7s-4.1-1.1-6.7-1.4c-3.3-0.5-4.7,0-4.7,0
				S395.7,273.9,397.4,275.1z"/>
			<path fill="#B42627" d="M402.5,295.4c-0.1,0.5,0.7,1.2,0.7,0.4c1.7-8.1,3.7-7.1,3.7-7.1l-1-0.5
				C405.8,288.2,403.1,289.3,402.5,295.4z"/>
			<path fill="#B42627" d="M398.9,294.9c-0.1,0.5,0.7,1.2,0.7,0.4c0.7-6.5,1.7-7.4,1.7-7.4S399.5,288.8,398.9,294.9z"/>
			<g>
				<path fill="#FBB688" d="M385.7,305c0.3-0.2,0-0.7-0.3-0.5c-0.4,0.2-1,0.5-1.5,0.8c-0.4,0.2,0,0.8,0.4,0.6
					C384.7,305.6,385.3,305.2,385.7,305z"/>
				<path fill="#FBB688" d="M385.9,305.6c0.3-0.2,0-0.6-0.3-0.5c-0.3,0.2-0.9,0.4-1.3,0.7c-0.3,0.2,0.1,0.8,0.4,0.6
					C385,306.2,385.5,305.9,385.9,305.6z"/>
				<path fill="#FBB688" d="M386.1,306.2c0.3-0.2,0-0.6-0.3-0.4c-0.3,0.1-0.8,0.4-1.2,0.6c-0.3,0.2,0,0.7,0.3,0.5
					C385.3,306.7,385.7,306.4,386.1,306.2z"/>
				<path fill="#FBB688" d="M385.2,304.5c0.3-0.2,0-0.6-0.3-0.5c-0.3,0.2-0.9,0.4-1.3,0.7c-0.3,0.2,0.1,0.8,0.4,0.6
					C384.3,305.1,384.8,304.7,385.2,304.5z"/>
			</g>
			<path fill="#241F29" d="M389.3,309.5c-0.4,0.4-1,0.5-1.4,0.1l-7.2-6.3c-0.4-0.4-0.5-1-0.1-1.4l0,0c0.4-0.4,1-0.5,1.4-0.1l7.2,6.3
				C389.7,308.5,389.7,309.1,389.3,309.5L389.3,309.5z"/>
			
				<rect x="381.5" y="305.1" transform="matrix(0.7534 0.6575 -0.6575 0.7534 297.0934 -175.5757)" fill="#241F29" width="2.4" height="6.5"/>
			<g>
				<path fill="#FBB688" d="M386.2,308.4c-0.3,0.3,0.1,0.6,0.4,0.4c0.3-0.2,0.9-0.6,1.3-1c0.3-0.3-0.2-0.8-0.5-0.5
					C387,307.6,386.5,308.1,386.2,308.4z"/>
				<path fill="#FBB688" d="M385.9,307.8c-0.3,0.3,0.1,0.6,0.4,0.4c0.3-0.2,0.8-0.6,1.2-0.9c0.3-0.3-0.2-0.8-0.5-0.5
					C386.6,307.1,386.2,307.5,385.9,307.8z"/>
				<path fill="#FBB688" d="M385.6,307.3c-0.2,0.2,0.1,0.5,0.3,0.4c0.3-0.2,0.7-0.5,1.1-0.8c0.3-0.2-0.2-0.7-0.4-0.5
					C386.3,306.6,385.9,307,385.6,307.3z"/>
				<path fill="#FBB688" d="M386.7,308.8c-0.3,0.3,0.1,0.6,0.4,0.4c0.3-0.2,0.8-0.6,1.2-0.9c0.3-0.3-0.2-0.8-0.5-0.5
					C387.5,308.1,387,308.5,386.7,308.8z"/>
			</g>
			<path fill="#FBB688" d="M389.6,307.9c0,0,8.8-4.4,9.5-5c1.9-1.7,7.7-8.8,7.7-8.8l-3-0.5l-6.1,7.7l-8.9,5l-2.3,0.1l1.5,2.1
				L389.6,307.9z"/>
			<path fill="#F15A22" d="M401.5,296.1c0,0,3.5-5.6,3.8-6.1c1.1-1.8,3.6-0.2,3.1,1.4c-0.2,0.7-3.7,7-3.7,7L401.5,296.1z"/>
			<path fill="#B42627" d="M397.8,311.6l0.8-4.1c0.4-3.3,9.9-2.8,10.5,0c0.6,2.8,0,7.6-3.3,8.6c-4.1,1.2-9,2.7-15.1,4.6l-5.5,14.1
				h-4.7c0,0,4.1-15.6,5-17.7C386.4,315.1,397.8,311.6,397.8,311.6z"/>
		</g>
	</g>
</g>
</svg>
