<?xml version="1.0" encoding="utf-8"?>
<!-- Generator: Adobe Illustrator 18.1.1, SVG Export Plug-In . SVG Version: 6.00 Build 0)  -->
<svg version="1.1" id="Layer_1" xmlns="http://www.w3.org/2000/svg" xmlns:xlink="http://www.w3.org/1999/xlink" x="0px" y="0px"
	 viewBox="0 0 500 500" enable-background="new 0 0 500 500" xml:space="preserve">
<rect x="50.9" y="425.1" fill="none" width="398.1" height="39"/>
<text transform="matrix(1 0 0 1 133.121 446.4444)" fill="#26274F" font-family="'Nunito-Bold'" font-size="30">Role Based View</text>
<g>
	<g>
		<path fill="#F4F7FA" d="M169,61.9c-10.5,15,1.8,39.3-13.7,50.6c-15.1,11-33.7-7-48,2.4c-21.2,14-17.3,78.2,13.6,118.1
			c9.3,12,17.1,16.7,20.5,30.2c7.4,29.1-18.6,46.4-13.6,60.9c11.1,32.4,182.4,59.6,251.1-37.8c32.1-45.5,36.9-111.3,8.2-161.2
			C335.3,34.9,192.5,28.2,169,61.9z"/>
		<g>
			<path fill="#BFC6D1" d="M187.4,106.8c4,0.3,7.6-2.9,8-7.3c0.4-4.4-2.6-8.2-6.6-8.5c-0.2,0-0.4,0-0.6,0c-0.2-2.3-0.5-4.5-1-6.6
				c0.2-0.1,0.4-0.2,0.6-0.3c3.7-1.9,5.3-6.6,3.6-10.6c-1.7-3.9-6.1-5.6-9.7-3.7c-0.2,0.1-0.4,0.2-0.6,0.3c-1.2-1.8-2.5-3.5-4-5.1
				c0.1-0.2,0.3-0.4,0.4-0.5c2.3-3.6,1.5-8.5-1.8-11c-3.3-2.5-7.9-1.6-10.2,2.1c-0.1,0.2-0.2,0.4-0.3,0.6c-1.9-0.9-3.8-1.6-5.8-2.2
				c0-0.2,0.1-0.4,0.1-0.7c0.4-4.4,1.2-9.3-2.9-9.6c-9.3-0.6-11.4,4-11.7,8.3c0,0.2,0,0.4,0,0.7c-2.1,0.2-4.1,0.6-6.1,1.2
				c-0.1-0.2-0.1-0.4-0.2-0.6c-1.7-3.9-1.4-6.6-5.2-5.1c-8.4,3.2-9.8,8-8.1,11.9c0.1,0.2,0.2,0.4,0.3,0.6c-1.7,1.3-3.3,2.8-4.8,4.4
				c-0.2-0.1-0.3-0.3-0.5-0.4c-3.3-2.5-7.9-1.6-10.2,2.1c-2.3,3.6-1.5,8.5,1.8,11c0.2,0.1,0.3,0.2,0.5,0.3c-0.9,2-1.6,4.1-2.1,6.3
				c-0.2,0-0.4-0.1-0.6-0.1c-4-0.3-7.6,2.9-8,7.3c-0.4,4.4,2.6,8.2,6.6,8.5c0.2,0,0.4,0,0.6,0c0.2,2.3,0.5,4.5,1,6.6
				c-0.2,0.1-0.4,0.2-0.6,0.3c-3.7,1.9-5.3,6.6-3.6,10.6c1.7,3.9,6.1,5.6,9.7,3.7c0.2-0.1,0.4-0.2,0.6-0.3c1.2,1.8,2.5,3.5,4,5.1
				c-0.1,0.2-0.3,0.4-0.4,0.5c-2.3,3.6-1.5,8.5,1.8,11c3.3,2.5,10.5,1.3,12.8-2.3c0.1-0.2-2.4-0.2-2.3-0.4c1.9,0.9,3.8,1.6,5.8,2.2
				c0,0.2-0.1,0.4-0.1,0.7c-0.4,4.4,2.6,8.2,6.6,8.5c4,0.3,7.6-2.9,8-7.3c0-0.2,0-0.4,0-0.7c2.1-0.2,4.1-0.6,6.1-1.2
				c0.1,0.2,0.1,0.4,0.2,0.6c1.7,3.9,6.1,5.6,9.7,3.7c3.7-1.9,5.3-6.6,3.6-10.6c-0.1-0.2-0.2-0.4-0.3-0.6c1.7-1.3,3.3-2.8,4.8-4.4
				c0.2,0.1,0.3,0.3,0.5,0.4c3.3,2.5,7.9,1.6,10.2-2.1c2.3-3.6,1.5-8.5-1.8-11c-0.2-0.1-0.3-0.2-0.5-0.3c0.9-2,1.6-4.1,2.1-6.3
				C187,106.7,187.2,106.7,187.4,106.8z M146,124.2c-14.6-1.2-25.4-15.1-24.1-30.9c1.3-15.8,14.3-27.7,28.9-26.5
				c14.6,1.2,25.4,15.1,24.1,30.9C173.6,113.6,160.6,125.4,146,124.2z"/>
			<path fill="#BFC6D1" d="M187.7,84.1c3.7-1.9,5.3-6.6,3.6-10.6c-1.7-3.9-6.1-5.6-9.7-3.7c-0.2,0.1-0.4,0.2-0.6,0.3
				c-1.2-1.8-2.5-3.5-4-5.1c0.1-0.2,0.3-0.4,0.4-0.5c2.3-3.6,4.1-10.8,0.6-12.9c-6.7-4-10.2,0.3-12.6,3.9c-0.1,0.2-0.2,0.4-0.3,0.6
				c-1.9-0.9-3.8-1.6-5.8-2.2c0-0.2,0.1-0.4,0.1-0.7c0.2-2.4-0.6-4.6-2-6.2c-0.9,6.8-1.7,13.7-2.5,20.5
				c12.6,3.2,21.3,15.9,20.1,30.3c-1,12.2-8.9,22-19.2,25.3c0,1.3,0.1,2.7,0,4c0,3.6-0.3,7.2-0.5,10.9c1-0.2,2-0.4,2.9-0.7
				c0.1,0.2,0.1,0.4,0.2,0.6c1.7,3.9,5.5,6.3,12.2,3.2c3.7-1.8,2.8-6.1,1.1-10c-0.1-0.2-0.2-0.4-0.3-0.6c1.7-1.3,3.3-2.8,4.8-4.4
				c0.2,0.1,0.3,0.3,0.5,0.4c3.3,2.5,10.7,1.1,13.1-2.5c2.3-3.6-1.3-8.1-4.6-10.5c-0.2-0.1-0.3-0.2-0.5-0.3c0.9-2,1.6-4.1,2.1-6.3
				c0.2,0,0.4,0.1,0.6,0.1c4,0.3,7.6-2.9,8-7.3c0.4-4.4-2.6-8.2-6.6-8.5c-0.2,0-0.4,0-0.6,0c-0.2-2.3-0.5-4.5-1-6.6
				C187.3,84.2,187.5,84.2,187.7,84.1z"/>
			<path fill="#D8DEE8" d="M191.2,105.7c4,0.3,7.6-2.9,8-7.3c0.4-4.4-2.6-8.2-6.6-8.5c-0.2,0-0.4,0-0.6,0c-0.2-2.3-0.5-4.5-1-6.6
				c0.2-0.1,0.4-0.2,0.6-0.3c3.7-1.9,5.3-6.6,3.6-10.6c-1.7-3.9-6.1-5.6-9.7-3.7c-0.2,0.1-0.4,0.2-0.6,0.3c-1.2-1.8-2.5-3.5-4-5.1
				c0.1-0.2,0.3-0.4,0.4-0.5c2.3-3.6,1.5-8.5-1.8-11c-3.3-2.5-7.9-1.6-10.2,2.1c-0.1,0.2-0.2,0.4-0.3,0.6c-1.9-0.9-3.8-1.6-5.8-2.2
				c0-0.2,0.1-0.4,0.1-0.7c0.4-4.4-2.6-8.2-6.6-8.5c-4-0.3-7.6,2.9-8,7.3c0,0.2,0,0.4,0,0.7c-2.1,0.2-4.1,0.6-6.1,1.2
				c-0.1-0.2-0.1-0.4-0.2-0.6c-1.7-3.9-6.1-5.6-9.7-3.7c-3.7,1.9-5.3,6.6-3.6,10.6c0.1,0.2,0.2,0.4,0.3,0.6
				c-1.7,1.3-3.3,2.8-4.8,4.4c-0.2-0.1-0.3-0.3-0.5-0.4c-3.3-2.5-7.9-1.6-10.2,2.1c-2.3,3.6-1.5,8.5,1.8,11c0.2,0.1,0.3,0.2,0.5,0.3
				c-0.9,2-1.6,4.1-2.1,6.3c-0.2,0-0.4-0.1-0.6-0.1c-4-0.3-7.6,2.9-8,7.3c-0.4,4.4,2.6,8.2,6.6,8.5c0.2,0,0.4,0,0.6,0
				c0.2,2.3,0.5,4.5,1,6.6c-0.2,0.1-0.4,0.2-0.6,0.3c-3.7,1.9-5.3,6.6-3.6,10.6c1.7,3.9,6.1,5.6,9.7,3.7c0.2-0.1,0.4-0.2,0.6-0.3
				c1.2,1.8,2.5,3.5,4,5.1c-0.1,0.2-0.3,0.4-0.4,0.5c-2.3,3.6-1.5,8.5,1.8,11c3.3,2.5,7.9,1.6,10.2-2.1c0.1-0.2,0.2-0.4,0.3-0.6
				c1.9,0.9,3.8,1.6,5.8,2.2c0,0.2-0.1,0.4-0.1,0.7c-0.4,4.4,2.6,8.2,6.6,8.5c4,0.3,7.6-2.9,8-7.3c0-0.2,0-0.4,0-0.7
				c2.1-0.2,4.1-0.6,6.1-1.2c0.1,0.2,0.1,0.4,0.2,0.6c1.7,3.9,6.1,5.6,9.7,3.7c3.7-1.9,5.3-6.6,3.6-10.6c-0.1-0.2-0.2-0.4-0.3-0.6
				c1.7-1.3,3.3-2.8,4.8-4.4c0.2,0.1,0.3,0.3,0.5,0.4c3.3,2.5,7.9,1.6,10.2-2.1c2.3-3.6,1.5-8.5-1.8-11c-0.2-0.1-0.3-0.2-0.5-0.3
				c0.9-2,1.6-4.1,2.1-6.3C190.8,105.7,191,105.7,191.2,105.7z M149.8,123.1c-14.6-1.2-25.4-15.1-24.1-30.9
				c1.3-15.8,14.3-27.7,28.9-26.5c14.6,1.2,25.4,15.1,24.1,30.9C177.3,112.5,164.4,124.4,149.8,123.1z"/>
		</g>
		<g>
			<linearGradient id="SVGID_1_" gradientUnits="userSpaceOnUse" x1="411.206" y1="40.4186" x2="358.7156" y2="90.8706">
				<stop  offset="0" style="stop-color:#FFC445"/>
				<stop  offset="0.9964" style="stop-color:#F36F56"/>
			</linearGradient>
			<path fill="url(#SVGID_1_)" d="M306.5,276.3c-4.6,0.1-9.1-1-13.1-3.4c-11.9-7.1-29.5-18.9-45.4-34.4
				c-20.1-19.6-31.7-39.5-34.2-59.1l0-0.3l-0.5-83.5c0-16.5,10.8-29.9,31-38.7c16.7-7.3,38.8-10.9,62.2-10.2
				c23.1,0.7,44.5,5.4,60.3,13.4c18.8,9.4,28.7,22.7,28.7,38.4l-0.4,79.8l0,0.3c-2.3,18.7-12.9,38.1-31.7,57.7
				c-15.1,15.7-32.1,28.2-43.8,35.9C315.6,274.8,311.1,276.2,306.5,276.3z"/>
			<linearGradient id="SVGID_2_" gradientUnits="userSpaceOnUse" x1="255.196" y1="51.9148" x2="433.6236" y2="343.7447">
				<stop  offset="0" style="stop-color:#FFC445"/>
				<stop  offset="0.9964" style="stop-color:#F36F56"/>
			</linearGradient>
			<path fill="url(#SVGID_2_)" d="M311.1,276.3c-4.6,0.1-9-1-12.9-3.4c-11.8-7.1-29.1-18.9-44.8-34.4
				c-19.8-19.6-31.2-39.5-33.7-59.1l0-0.3l-0.5-83.5c0-16.5,10.6-29.9,30.6-38.7c16.5-7.3,38.3-10.9,61.4-10.2
				c22.8,0.7,43.9,5.4,59.5,13.4c18.6,9.4,28.3,22.7,28.3,38.4l-0.4,79.8l0,0.3c-2.3,18.7-12.8,38.1-31.3,57.7
				c-14.9,15.7-31.7,28.2-43.2,35.9C320,274.8,315.6,276.2,311.1,276.3z"/>
			<linearGradient id="SVGID_3_" gradientUnits="userSpaceOnUse" x1="349.8093" y1="218.0711" x2="204.9002" y2="-73.3111">
				<stop  offset="0" style="stop-color:#FFC445"/>
				<stop  offset="0.9964" style="stop-color:#F36F56"/>
			</linearGradient>
			<path fill="url(#SVGID_3_)" d="M224.6,95.8l0.5,83.1c5.5,42.4,55.3,76.7,77,89.7c6.2,3.7,14.2,3.5,20.3-0.5
				c21.2-14,68.3-49.2,73.3-89.9l0.4-79.5C396.2,39.5,224.6,34.1,224.6,95.8z"/>
			<linearGradient id="SVGID_4_" gradientUnits="userSpaceOnUse" x1="241.0937" y1="161.5435" x2="381.011" y2="161.5435">
				<stop  offset="0" style="stop-color:#321944"/>
				<stop  offset="1" style="stop-color:#8A3A77"/>
			</linearGradient>
			<path fill="url(#SVGID_4_)" d="M312.3,255.7c-0.4,0-1-0.1-1.6-0.4c-8.9-5.4-26.2-16.7-41.3-31.5c-16.3-16-25.7-31.5-27.8-46.1
				L241.1,96c0-7.8,6.2-14.5,18.4-19.9c13.6-6,32.9-9.1,52.8-8.7c19.8,0.5,38.5,4.4,51.4,10.9c11.5,5.7,17.3,12.4,17.3,20l-0.4,78.9
				c-2,14.1-10.8,29.3-26.3,45.3c-14.5,15-31.5,27-40.4,32.8C313.3,255.6,312.7,255.7,312.3,255.7z"/>
			<path fill="#F4F7FA" d="M310.2,250.1c-9-5.6-25.1-16.3-39.1-30.1c-15.3-15-24.1-29.5-26.2-42.8L244.5,96
				c0-5.6,5.2-10.7,15.3-15.2c12.9-5.7,31.3-8.7,50.5-8.3c19,0.4,36.9,4.2,49.2,10.3c9.6,4.7,14.4,9.9,14.4,15.4l-0.4,78.6
				c-2,13-10.3,27.1-24.9,42.2C335,233,319.2,244.2,310.2,250.1z"/>
			<g>
				<linearGradient id="SVGID_5_" gradientUnits="userSpaceOnUse" x1="355.6189" y1="89.3549" x2="298.0733" y2="195.727">
					<stop  offset="3.597120e-003" style="stop-color:#D191C0"/>
					<stop  offset="1" style="stop-color:#8172B4"/>
				</linearGradient>
				<path fill="url(#SVGID_5_)" d="M342.5,143.8l-60.7,0.5c-4.7,0-8.5,3.7-8.5,8.1v38.9c0,4.4,3.8,7.8,8.4,7.7l60.5-2.5
					c4.3-0.2,7.8-3.7,7.8-8l0.2-37.2C350.3,147.2,346.8,143.8,342.5,143.8z"/>
				<linearGradient id="SVGID_6_" gradientUnits="userSpaceOnUse" x1="290.1974" y1="65.7991" x2="319.8726" y2="200.8878">
					<stop  offset="3.597120e-003" style="stop-color:#D191C0"/>
					<stop  offset="1" style="stop-color:#8172B4"/>
				</linearGradient>
				<path opacity="0.8" fill="url(#SVGID_6_)" d="M320.5,166.1c0-4.3-3.7-7.7-8.2-7.4c-4,0.3-7.3,3.5-7.5,7.3
					c-0.2,3,1.4,5.6,3.9,6.9c1,0.6,1.6,1.7,1.4,2.9l-1.8,9.8c-0.2,1.3,0.8,2.4,2.1,2.3l4.4-0.2c1.3,0,2.3-1.2,2.1-2.4l-1.7-9.7
					c-0.2-1.2,0.4-2.3,1.4-2.9C318.9,171.4,320.5,168.9,320.5,166.1z"/>
				<linearGradient id="SVGID_7_" gradientUnits="userSpaceOnUse" x1="338.9909" y1="80.3595" x2="281.4453" y2="186.7315">
					<stop  offset="3.597120e-003" style="stop-color:#D191C0"/>
					<stop  offset="1" style="stop-color:#8172B4"/>
				</linearGradient>
				<path fill="url(#SVGID_7_)" d="M341.7,140c-1.8,0-3.3-1.4-3.3-3.2l0-8.5c0-8.5-7-15.5-15.8-15.6l-19.8-0.2
					c-9.1-0.1-16.5,7-16.6,15.8l0,8.7c0,1.9-1.6,3.4-3.5,3.4c-2,0-3.5-1.5-3.5-3.4l0-8.8c0-12.6,10.7-22.6,23.6-22.5l19.8,0.3
					c12.5,0.2,22.4,10.1,22.4,22.2l0,8.4C345,138.5,343.5,140,341.7,140z"/>
			</g>
		</g>
		<g>
			<path fill="#26274F" d="M404.2,328.1l-301.6-2.6v7.6c0,2.1,1.3,3.8,3.1,4.1l85.3,15c1,0.2,2,0.2,3.1,0.1l206.9-17.1
				c1.8-0.2,3.3-1.9,3.3-4V328.1z"/>
			<g>
				<path fill="#26274F" d="M294.8,315.9l-189,13.9c-3.4,0.2-6.1-2.4-6.1-5.9V183.2c0-3.5,2.8-6.4,6.1-6.4h189c2.8,0,5,2.6,5,5.8
					v127.2C299.8,313,297.6,315.7,294.8,315.9z"/>
				<linearGradient id="SVGID_8_" gradientUnits="userSpaceOnUse" x1="102.6343" y1="253.345" x2="302.8292" y2="253.345">
					<stop  offset="0" style="stop-color:#454C8D"/>
					<stop  offset="0.9964" style="stop-color:#26274F"/>
				</linearGradient>
				<path fill="url(#SVGID_8_)" d="M297.8,315.9l-189,13.9c-3.4,0.2-6.1-2.4-6.1-5.9V183.2c0-3.5,2.8-6.4,6.1-6.4h189
					c2.8,0,5,2.6,5,5.8v127.2C302.8,313,300.6,315.7,297.8,315.9z"/>
				<path fill="#FFFFFF" d="M291.9,307l-176.1,12.1c-2.8,0.2-5-2-5-4.9V191c0-2.9,2.2-5.2,5-5.2l176.1-0.8c2.3,0,4.2,2.1,4.2,4.7
					V302C296.1,304.6,294.2,306.8,291.9,307z"/>
				<path fill="#FFFFFF" d="M210,180.7c0,1.3-1,2.4-2.2,2.4c-1.2,0-2.2-1.1-2.2-2.4c0-1.3,1-2.4,2.2-2.4
					C209,178.3,210,179.4,210,180.7z"/>
			</g>
			<linearGradient id="SVGID_9_" gradientUnits="userSpaceOnUse" x1="102.6343" y1="330.3206" x2="404.2198" y2="330.3206">
				<stop  offset="0" style="stop-color:#454C8D"/>
				<stop  offset="0.9964" style="stop-color:#26274F"/>
			</linearGradient>
			<path fill="url(#SVGID_9_)" d="M305.3,315.2l-202.7,14.6l88.4,15.5c1,0.2,2,0.2,3.1,0.1l210.1-17.3l-95.7-12.9
				C307.5,315.1,306.4,315.1,305.3,315.2z"/>
			<polygon fill="#26274F" points="132.2,329.9 301,317.6 353.2,324.5 185.9,337.8 			"/>
			<g>
				<path fill="#D8DEE8" d="M186.9,314l-71.8,4.8c-2.1,0.1-3.9-1.5-3.9-3.6V189.4c0-2,1.6-3.6,3.6-3.6l72.1-0.3V314z"/>
				<polygon fill="#D8DEE8" points="279.6,245.4 204,248 204,240.4 279.6,238 				"/>
				<polygon fill="#D8DEE8" points="279.6,257.4 204,260.6 204,252.9 279.6,250.1 				"/>
				<polygon fill="#FFFFFF" points="179.5,246.8 136,248.2 136,242.5 179.5,241.2 				"/>
				<polygon fill="#FFFFFF" points="179.5,255.9 136,257.6 136,251.9 179.5,250.3 				"/>
				<polygon fill="#FFFFFF" points="179.5,265.1 136,267 136,261.3 179.5,259.5 				"/>
				<polygon fill="#FFFFFF" points="179.5,274.3 136,276.3 136,270.6 179.5,268.7 				"/>
				<polygon fill="#D8DEE8" points="237.4,271.5 204,273.1 204,265.5 237.4,264 				"/>
				<g>
					<path fill="#D8DEE8" d="M232,211.6v11.5c0,3.3,2.8,5.9,6.2,5.9l8.5-0.2c3.4-0.1,6.1-2.8,6.1-6.1v-11.4L232,211.6z M239.9,223.4
						l1.6-4.8c-0.7-0.4-1.1-1-1.1-1.8c0-1.2,1-2.2,2.2-2.2c1.2,0,2.2,0.9,2.2,2.1c0,0.8-0.5,1.5-1.1,1.9l1.6,4.7L239.9,223.4z"/>
					<path fill="#D8DEE8" d="M250.5,210.2c-0.9,0-1.6-0.7-1.6-1.6c0-3.4-2.8-6.1-6.3-6c-3.5,0-6.4,2.8-6.4,6.2
						c0,0.9-0.7,1.6-1.7,1.6c-0.9,0-1.7-0.7-1.7-1.6c0-5.2,4.4-9.4,9.7-9.5c5.3-0.1,9.6,4.1,9.6,9.2
						C252.1,209.5,251.4,210.2,250.5,210.2z"/>
				</g>
			</g>
			<path opacity="0.48" fill="#FFFFFF" d="M108.8,329.9L296.8,316l1-0.1c1.3-0.1,2.4-0.7,3.3-1.7c-13.5-0.7-21.9-5.5-27.4-10.5
				c-10.9-10-9-19.8-20.7-26.3c-14.6-8.2-26.2,2.2-37.3-8c-6.7-6.2-3.4-10.8-11.7-20.1c-9.2-10.3-15.2-6.8-24.4-16
				c-11.7-11.7-5.8-20.7-15.9-29.1c-12.2-10.2-25.3-0.8-37-10.5c-5-4.2-7.8-10.3-9.2-16.8h-8.8c-3.4,0-6.1,2.8-6.1,6.4v140.8
				C102.6,327.5,105.4,330.1,108.8,329.9z"/>
		</g>
		<g>
			<linearGradient id="SVGID_10_" gradientUnits="userSpaceOnUse" x1="140.4545" y1="176.2587" x2="227.7891" y2="176.2587">
				<stop  offset="0" style="stop-color:#AC316E"/>
				<stop  offset="1" style="stop-color:#7A2E3E"/>
			</linearGradient>
			<path fill="url(#SVGID_10_)" d="M227.8,176.1c0,24.4-18.9,44.5-42.6,45.2c-24,0.7-44.2-18.8-44.7-43.9
				c-0.5-25.4,19.2-46.2,43.8-46.2C208.5,131.2,227.8,151.4,227.8,176.1z"/>
			<linearGradient id="SVGID_11_" gradientUnits="userSpaceOnUse" x1="212.8047" y1="127.6158" x2="143.5066" y2="258.5121">
				<stop  offset="0" style="stop-color:#F58F86"/>
				<stop  offset="1" style="stop-color:#ED72AC"/>
			</linearGradient>
			<path fill="url(#SVGID_11_)" d="M230.7,176.1c0,24.4-18.9,44.5-42.6,45.2c-24,0.7-44.2-18.8-44.7-43.9
				c-0.5-25.4,19.2-46.2,43.8-46.2C211.4,131.2,230.7,151.4,230.7,176.1z"/>
			<circle fill="#FFFFFF" cx="186.4" cy="177.3" r="39.6"/>
		</g>
		<g>
			<path fill="#E2E7E7" d="M353.4,363.3c0,6.3-10.1,11.4-22.4,11.4c-12.4,0-22.4-5.1-22.4-11.4c0-6.3,10.1-11.4,22.4-11.4
				C343.3,351.9,353.4,357,353.4,363.3z"/>
			<g>
				<g>
					<path fill="#FBCBBD" d="M287.7,217.1c-1.2-2.3-2.8-4.3-4.5-6.2c-1.6,1.8-3.1,4.5-2.1,6.8c0.5,1.1,1.2,2.2,1.8,3.2
						c1.3,2,2,1.5,4.2,1.7L287.7,217.1z"/>
					<path fill="#F6851F" d="M284.8,213.1c-0.4,1.4-2.2,2.9-4.2,3.8c0.3,3.6,10.1,14.3,13.5,17.6c2.6,2.6,5.3,2.2,6.8-0.1
						c2.2-3.4,3.6-2.4,2-6.1c-1.3-3.1-2-2.8-5.8-5.9c-2-1.6-9.4-9.3-12-9.8L284.8,213.1z"/>
					<path fill="#F6851F" d="M321.2,233.6c2.9,2.1,4,10.1,0.5,12.3c-0.7,1.4-6,2.5-8.5,0.5c-9.4-2.2-17.5-10.5-17.5-10.5
						s1.2-10.4,6.5-8.4C307.5,229.5,311.6,226.8,321.2,233.6z"/>
					<path fill="#FAA61A" d="M340.4,258.5c-0.3,4.5-1.6,14.8-1.4,21.5c0.6,4.2-2.4,6-7.1,6.4c-5.9,0.5-15.2-3.3-14.8-9.3
						c0.2-3.4,0.7-15,0.7-25.8c0-0.4,0-2.1,0-2.5c0-1.6,0.3-4.7,0.5-6.1c0.3-3.1-2-6-0.8-7.9c0.6-1,3.6-3.3,7.5-3.9
						c1.6-0.2,3.2-0.2,4.9,0.4c6.1,2,9.4,4.5,13.7,8.9l-1.3,4.5C341.1,248.7,341.1,250.4,340.4,258.5z"/>
					<path fill="#FAA61A" d="M315.4,282.3h9.3c0.9-10.5,1.4-21.1,1.2-31.3c0-1.7-0.1-3.4-0.2-5.1c-0.3-6.4-2.4-5.2-2.2-15.3
						c-0.5,0.2,1.1,0,0.5,0.2c-1,0.3-2.1,0.7-3.2,1c-1.5,0.5-3,1.1-3.8,2c-2.5,2.6-2.8,5-2.9,5.9c-0.6,9.8,1.7,28.9,1.3,37
						C315.3,278.5,315.3,280.4,315.4,282.3z"/>
					<path fill="#3071B8" d="M337,234.6c0.5-0.1,3.7,2.8,3.6,2.8c-1.3-0.4-4.5-0.2-6,2.8c-2.9,6-4.3,28.9-4.6,37.2l-4.2,2.3
						c0-1.2-0.5-28.8,5.6-40.7C332.1,237.6,334.1,235,337,234.6z"/>
					<path fill="#3071B8" d="M324.6,232.2c-0.4-0.2-0.7-0.2-0.8-0.2c-1,0.1-2.8,1.6-4.3,4.6c-2.7,5.6-4.1,25.8-4.6,35.2
						c-0.2-7-2-12.7-1.7-23c0-0.4,0-0.8,0-1.2c0-0.3,0-0.5,0.1-0.8c0.8-5.1,1.5-8.9,2.8-11.9c2.4-3.3,3.6-3.3,7.3-3.9
						C324.2,231.6,324.7,232,324.6,232.2z"/>
					<path fill="#3071B8" d="M338.4,296.6c-7.2,1.8-14.7,2.1-22,1.2c-1-8.7-2.4-22.1-2.1-34.2v-0.1c0.2-10.7,0.7-19.9,1.9-22.7
						c7.4,6.1,15,5.6,16.7,5.5c-0.8,4.4,5.9,14.2,7.4,13.5c-0.2,1.4,0,3.8-0.2,5.3c-1.3,9.2,3.5,9.6,1.6,22.7
						C341.8,288.5,339.2,291.5,338.4,296.6z"/>
					<path fill="#F2B09E" d="M332.4,220.9l0.5,11.9c0.1,2-7.4,3.6-7.4,3.6s-0.8-1.4-0.9-3.4c0-0.2,0-0.4,0-0.5l1.2-11.2
						c0.2-1.5,1.5-2.6,3.1-2.5C330.3,218.8,332.3,219.5,332.4,220.9z"/>
					<path fill="#FBCBBD" d="M331,228.9c-0.9,0.6-1.2,2.4-3.2,3.7c-2.8,1.6-4.9,1.7-5.9,1.9c-1.7,0.4-3.5-0.8-3.7-1.8
						c-0.6-2.2-0.7-4.2-0.7-6.5c0-5.4,2.2-10.2,3.2-12.5c3.6-4.4,7.3-4.5,13-1.9C340.2,214.9,338.7,224.3,331,228.9z"/>
					<path fill="#39211C" d="M329.9,220.1c0.6,1.7-0.6,4.4-0.1,6.2c1,1,1.9,2.1,1.9,2.1c2.4-0.8,3.4-2.4,4.9-4.8
						c1.2-2,2.1-5.2,1.5-6.7L329.9,220.1z"/>
					<path fill="#39211C" d="M319.7,218c5.1,3.3,13.3,5.6,18.1,0c1.8-5.6-6.5-10.7-13-8.5C319.7,211.3,317.7,216.7,319.7,218z"/>
					<g>
						<path fill="#FBCBBD" d="M331.7,225.2c2.4-2.8,3.8-0.4,3.5,0.9c-0.4,1.6-2.7,3.2-4.6,3.1c-0.2,0,0-1.7,0.2-2.2
							C331.2,226.2,331.4,225.6,331.7,225.2z"/>
					</g>
					<path fill="#010101" d="M329.1,352.7c0.5,4.8-0.4,6.8-0.4,6.8l-0.2,1.2c0,0-3.5,0.8-5.4,0.6c-2.3-0.2-4.6,0.5-8.5,0.6
						c-4,0.1-8.3,0-8.8-2c-0.6-2.1,0.6-4.4,6.8-5.3c6.1-0.8,7.9-4.8,7.9-4.8L329.1,352.7z"/>
					<path fill="#214996" d="M333.5,287.5c0.1,6.7-2.2,8.3-3.5,14.9c-0.9,4.5-2.5,14-1.3,18.5c1.8,7,3.6,11.4,1.6,31.9
						c-5.2,4.4-10.1,2.4-12.9,0c2.9-16.1-1.6-26-2-28.8c-1-7-3.4-36.3-0.5-43.4c2.9-7.1,10.7,3,16.8,5.4L333.5,287.5z"/>
					<path fill="#010101" d="M349.1,356.1c1.6,5,0.2,17-5.5,18.4c-1.8,0.4-6.4,0.2-7.3-1.5c-1.4-2.9,1.8-6.6,3.4-9.6
						c1-1.8,0.6-3.5,0.4-5.5c-0.3-2.6,2.1-2.1,4.1-2.5L349.1,356.1z"/>
					<path fill="#3071B8" d="M314.2,269.8l27.9,14c0,0,2.2,25.2,3.2,32.2c0.9,6.7,3.5,13.1,4.8,19.8c1.1,5.9,2.5,16.3,1.2,24.7
						c-1.6,2.2-10.3,2-13,1c1-6,0.5-10,0.4-11.6c-0.2-7.7-0.9-13.1-4.1-20.2c-3.5-7.7-6.4-15.1-7.7-23.6c-0.5-3.5-2-10.2-3.1-15.6
						c-2.9-2.7-7-6.2-8.9-10.1C314.7,276,314.2,273.4,314.2,269.8z"/>
					<path fill="#FBCBBD" d="M338.7,285.3c-0.1,0.1-0.3,0.1-0.4,0.2c-0.5,0.3-1.4,0.6-1.7,1.1c-1.1,1.3-3.2,6.2-3.5,6.9
						c-0.8,2,2.7,3.9,2.8,4.6c0.8,0.2,1.8,0.1,2.6,0.1c0.8,0,1.7,0.1,2.5,0.1c0.1-0.1,0.2-0.5,0.3-0.9c0,0,0.1,0,0.1,0
						c0.9-1.3,2.7-3,2.7-3.6c-0.1-1.1-1.1-1.9-2.2-2.6c0.3-0.5,0.7-1.5,0.9-2.3c0.6-1.4,0.8-2.7,0.5-3.8c-0.1-0.4-0.2-0.7-0.4-1
						C341.7,284.5,340,284.7,338.7,285.3z"/>
					<g>
						<path fill="#F6851F" d="M346.9,243.7c-2.1-3.9-5.3-5.5-7.7-5.9c-4.1,0.1-3.7,8.4-2.4,11.7c0.4,1,3.8,11.1,4.3,16.1
							c-1.7,4-4.8,20.5-4.8,20.5l7.2,2.3l4.8-9.8c0,0,3.9-9.8,4.2-13.5C353.1,259.5,351.4,252.8,346.9,243.7z"/>
					</g>
					<path fill="#FBCBBD" d="M283.6,213.1c0.1-0.2,0.1-0.3,0.2-0.4c0.2-0.6,0.5-1.4,0.4-2c-0.1-1.7-2.1-6.7-2.4-7.3
						c-0.9-2-3.1-4-4.5-5.7c0,0.1-0.2,0.1-0.3,0.2c-0.9,1.8,1.5,3.8,1.8,5c0.1,0.5,0.6,1.2,0.5,1.2c-0.3-0.3-0.5-0.7-1-0.9
						c-0.6-0.3-1.3-0.6-1.8-1c-0.7,0.4-1.3,1.2-1.9,1.8c-0.6,0.6-1.3,1.1-1.9,1.7c0,0.2,0.2,0.5,0.4,0.8c0,0,0,0-0.1,0
						c0.3,1.6,0.2,4.1,0.6,4.4c0.9,0.7,2.2,0.6,3.4,0.3c0.1,0.6,0.6,1.5,0.9,2.3c0.6,1.4,1.3,2.4,2.3,3
						C280.7,216.6,283.1,214.3,283.6,213.1z"/>
				</g>
				<g>
					<path fill="#F6851F" d="M329.1,210.4c-7.2-1.5-13.7,0.5-14.5,4.5c-0.8,3.9,4.4,8.3,11.7,9.7c7.2,1.5,13.7-0.5,14.5-4.5
						C341.5,216.1,336.3,211.8,329.1,210.4z"/>
					<path fill="#FAA61A" d="M318,212.8c-0.4,1.2-0.2,2.3,0.4,3.4c0.1,0.2,0.2,0.3,0.3,0.4c0.1,0.1,0.2,0.2,0.3,0.4
						c0.7,0.9,1.7,1.6,2.9,2.4c0.1,0.1,0.2,0.1,0.3,0.2c1.5,0.8,3.2,1.5,5.1,2.2c5.6,2,10.9,1,12.5-1.4c0.1-0.2,0.3-0.4,0.4-0.7
						c0,0,0,0,0,0c1.3-3.4,0.1-7.7-2.7-10.7c-0.2-0.2-0.4-0.4-0.6-0.6c-0.7-0.7-1.6-1.3-2.5-1.7c-0.3-0.2-0.7-0.4-1.1-0.5
						c-0.1-0.1-0.4-0.1-0.5-0.2C327.3,203.9,320.1,206.4,318,212.8z"/>
					<g>
						<path fill="#F47C27" d="M321.8,219.3c0.1,0.1,0.2,0.1,0.3,0.2c3.6-5.9,9.5-8.9,13.7-6.7c2.4,1.3,3.8,4.1,3.9,7.5
							c0.1-0.2,0.3-0.4,0.4-0.7c0,0,0,0,0,0c-0.3-3.2-1.6-5.9-4.1-7.2C331.6,210.1,325.5,213.2,321.8,219.3z"/>
					</g>
					<g>
						<path fill="#F47C27" d="M318.9,216.9l0.1-0.1c3.7-6.9,10.1-11,15.4-10.1c-0.3-0.2-0.7-0.4-1.1-0.5
							c-5.2-0.2-11.2,3.9-14.6,10.4C318.7,216.7,318.8,216.8,318.9,216.9z"/>
					</g>
				</g>
			</g>
		</g>
	</g>
	<g>
		<g>
			<g>
				<path fill="#385E7E" d="M195.4,152.7c0-1.7-1.4-3.1-3.1-3.1h-10.6c-3.9,0-7.1,3.2-7.1,7.1v7.9h25v-7.8c0-1.7-1.4-3.1-3.1-3.1
					h-0.1C195.8,153.7,195.4,153.2,195.4,152.7L195.4,152.7z"/>
				<path fill="#2C4E67" d="M196.5,153.7h-0.1c-0.6,0-1-0.5-1-1c0-1.7-1.4-3.1-3.1-3.1h-1.2v15h8.5v-7.8
					C199.6,155.1,198.2,153.7,196.5,153.7L196.5,153.7z"/>
				<path fill="#4C81AB" d="M209.1,188.6c-0.8-0.8-1.8-1.4-3-1.8l-9.1-2.9l-9.9-0.3l-10,0.3l-9.1,2.9c-3.1,1-5.2,3.8-5.2,7.1v2.5
					c5.8,6.2,14,10.1,23.1,10.4C196.1,204.5,204.6,197.7,209.1,188.6L209.1,188.6z"/>
				<path fill="#417194" d="M211.3,196.3v-2.5c0-2.3-1-4.4-2.8-5.8c-4.8,9.9-14.4,17-25.7,18.4c1.4,0.2,2.8,0.3,4.2,0.3
					c1.4,0,2.7-0.1,4-0.2C199,205.6,206.1,201.8,211.3,196.3L211.3,196.3z"/>
				<path fill="#E5F5FD" d="M187.8,206.3c2-4,7.3-15.4,5.8-22.5l-6.5-2.5l-6.5,2.5c-1.5,7.3,4.1,19.2,6,22.8
					C187,206.5,187.4,206.4,187.8,206.3L187.8,206.3z"/>
				<path fill="#E28086" d="M191.3,203.1l-2.6-10.4h-3.1l-2.6,10.4l3.3,3.6c0.8-0.2,1.6-0.4,2.5-0.7L191.3,203.1z"/>
				<path fill="#DE636F" d="M186.2,206.7c0.3,0,0.5,0,0.8,0c0.3,0,0.6,0,0.9,0l1.7-1.9c-1.3,0.5-2.7,0.8-4.1,1.1L186.2,206.7z"/>
				<g>
					<g>
						<g>
							<g>
								<g>
									<g>
										<g>
											<g>
												<path fill="#FDDCCE" d="M192.7,182.8v-5.9h-11.2v5.9c0,3.1,5.6,6.4,5.6,6.4S192.7,185.9,192.7,182.8L192.7,182.8z"/>
											</g>
										</g>
									</g>
								</g>
							</g>
						</g>
					</g>
					<path fill="#FDDCCE" d="M199.6,163.5h-2.1c-1.2,0-2.1-1-2.1-2.1v-1.2c0-1.5-1.5-2.6-3-2.2c-3.4,1.1-7.1,1.1-10.5,0l0,0
						c-1.5-0.5-3,0.6-3,2.2v1.2c0,1.2-1,2.1-2.1,2.1h-2.1v3.5c0,0.9,0.7,1.6,1.6,1.6c0.3,0,0.5,0.2,0.5,0.5
						c0.3,5.4,4.9,9.7,10.4,9.7s10-4.3,10.4-9.7c0-0.3,0.2-0.5,0.5-0.5c0.9,0,1.6-0.7,1.6-1.6L199.6,163.5L199.6,163.5z"/>
					<path fill="#FBCBBF" d="M197.5,163.5c-1.2,0-2.1-1-2.1-2.1v-1.2c0-1.5-1.5-2.6-3-2.2c-0.4,0.1-0.8,0.3-1.2,0.4V170
						c-0.1,3.8-2.1,7.1-5.2,8.8c0.4,0,0.8,0.1,1.1,0.1c5.5,0,10-4.3,10.4-9.7c0-0.3,0.2-0.5,0.5-0.5c0.9,0,1.6-0.7,1.6-1.6v-3.5
						L197.5,163.5L197.5,163.5z"/>
				</g>
				<g>
					<path fill="#F4FBFE" d="M181.5,181.2l-4.4,3.6l4.6,5.7c0.6,0.5,1.4,0.6,2,0.1l3.4-2.9L181.5,181.2z"/>
					<path fill="#F4FBFE" d="M192.7,181.2l-5.5,6.4l3.2,2.8c0.6,0.5,1.5,0.5,2-0.1l4.6-5.6L192.7,181.2z"/>
				</g>
			</g>
			<path fill="#385E7E" d="M181.5,181.2l-6.4,3.2c-0.5,0.2-0.7,0.8-0.4,1.3l1.3,2.4c0.3,0.6,0.2,1.4-0.3,1.9
				c-0.3,0.3-0.5,0.5-0.8,0.8c-0.4,0.4-0.6,1.1-0.4,1.7c1.5,4.6,8.8,11.7,11.6,14.3c0.2,0,0.4,0,0.6,0
				C184.6,202.8,177.5,188,181.5,181.2L181.5,181.2z"/>
			<path fill="#385E7E" d="M198.6,190c-0.5-0.5-0.6-1.3-0.3-1.9l1.3-2.4c0.2-0.5,0.1-1.1-0.4-1.3l-6.4-3.2c4,6.8-3.1,21.6-5.1,25.5
				c0.2,0,0.4,0,0.6,0c2.8-2.6,10.1-9.6,11.6-14.3c0.2-0.6,0-1.2-0.4-1.7C199.1,190.6,198.8,190.3,198.6,190L198.6,190z"/>
			<path fill="#DE636F" d="M187.2,187.6l-3.4,2.8l1.7,2.2h3.1l1.7-2.3L187.2,187.6z"/>
		</g>
	</g>
</g>
</svg>
