<svg height="512" viewBox="0 0 64 64" width="512" xmlns="http://www.w3.org/2000/svg"><g id="Document-files-3" data-name="Document-files"><path d="m55 7v50h-40v-4h31a5 5 0 0 0 5-5v-35l-6-6z" fill="#78b9eb"/><path d="m59 11v50h-40v-4h36v-46z" fill="#2488ff"/><path d="m52 14v35a5 5 0 0 1 -5 5h-32v-1h30a5 5 0 0 0 5-5v-35l-6-6h1z" fill="#3c5d76"/><path d="m51 13v35a5 5 0 0 1 -5 5h-35v-50h30v8a2.006 2.006 0 0 0 2 2z" fill="#ffeb99"/><g fill="#1a6fb0"><path d="m26 13h10v2h-10z"/><path d="m16 19h30v2h-30z"/><path d="m16 25h30v2h-30z"/><path d="m34 31h12v2h-12z"/></g><path d="m45 7 6 6h-8a2.006 2.006 0 0 1 -2-2v-8z" fill="#ff9811"/><path d="m44 53h-34a5 5 0 0 1 0-10h34a5 5 0 0 0 0 10z" fill="#ff9811"/><path d="m39.139 48a4.985 4.985 0 0 1 5-5h-1a5 5 0 0 0 0 10h1a5 5 0 0 1 -5-5z" fill="#806749"/><rect fill="#ffad41" height="3" rx="1.5" width="14" x="8" y="44"/></g></svg>