<svg xmlns="http://www.w3.org/2000/svg" width="68.49" height="68.5" viewBox="0 0 68.49 68.5">
  <g id="Analysis-report-document-develop-infromation" transform="translate(-2.009 -2)">
    <path id="Path_13175" data-name="Path 13175" d="M66.383,15.558V66.933A2.29,2.29,0,0,1,64.1,69.217H25.283A2.29,2.29,0,0,1,23,66.933V5.283A2.29,2.29,0,0,1,25.283,3H53.825V13.275a2.29,2.29,0,0,0,2.283,2.283Z" transform="translate(2.974 0.142)" fill="#fee9ab"/>
    <path id="Path_13176" data-name="Path 13176" d="M61.85,14V65.375a2.29,2.29,0,0,1-2.283,2.283H55a2.29,2.29,0,0,0,2.283-2.283V14Z" transform="translate(7.507 1.7)" fill="#ffd422"/>
    <path id="Path_13177" data-name="Path 13177" d="M62.558,15.558H52.283A2.29,2.29,0,0,1,50,13.275V3Z" transform="translate(6.799 0.142)" fill="#ff7956"/>
    <circle id="Ellipse_291" data-name="Ellipse 291" cx="9" cy="9" r="9" transform="translate(47.009 47)" fill="#ff3636"/>
    <path id="Path_13178" data-name="Path 13178" d="M49.833,30.833H27V8A22.826,22.826,0,0,1,49.833,30.833Z" transform="translate(3.54 0.85)" fill="#ff3051"/>
    <path id="Path_13180" data-name="Path 13180" d="M49.834,30.833H45.267A22.835,22.835,0,0,0,27,8.456L27,8A22.826,22.826,0,0,1,49.834,30.833Z" transform="translate(3.54 0.85)" fill="#cd2a00"/>
    <path id="Path_13181" data-name="Path 13181" d="M25,32H47.837A22.833,22.833,0,0,1,8.86,48.143Z" transform="translate(0.971 4.25)" fill="#5eac24"/>
    <path id="Path_13182" data-name="Path 13182" d="M25.833,12V34.833L9.69,50.976A22.833,22.833,0,0,1,25.833,12Z" transform="translate(0.141 1.417)" fill="#ffcd00"/>
    <path id="Path_13183" data-name="Path 13183" d="M70.168,14.889,57.609,2.331A1.179,1.179,0,0,0,56.8,2H28.257a3.435,3.435,0,0,0-3.425,3.425v6.907a23.944,23.944,0,0,0,0,47.836v6.907A3.435,3.435,0,0,0,28.257,70.5H67.074A3.435,3.435,0,0,0,70.5,67.075V15.7a1.179,1.179,0,0,0-.331-.811Zm-12.227-9,8.665,8.665H59.082a1.142,1.142,0,0,1-1.142-1.142ZM4.282,36.25a21.718,21.718,0,0,1,20.55-21.657V35.782L9.876,50.738A21.554,21.554,0,0,1,4.282,36.25Zm7.2,16.1L26.442,37.392H47.631A21.649,21.649,0,0,1,11.486,52.347ZM68.215,67.075a1.142,1.142,0,0,1-1.142,1.142H28.257a1.142,1.142,0,0,1-1.142-1.142V60.168A23.991,23.991,0,0,0,49.949,36.25a1.142,1.142,0,0,0-1.142-1.142H27.115V5.425a1.142,1.142,0,0,1,1.142-1.142h27.4v9.133a3.435,3.435,0,0,0,3.425,3.425h9.133Z" fill="#fff"/>
    <path id="Path_13186" data-name="Path 13186" d="M47.525,51.336l-2.618-2.618-1.614,1.614,3.425,3.425a1.142,1.142,0,0,0,1.614,0l6.85-6.85-1.614-1.614Z" transform="translate(5.849 6.133)" fill="#fff"/>
    <path id="Path_13187" data-name="Path 13187" d="M50,19h9.133v2.283H50Z" transform="translate(6.799 2.408)" fill="#3d4a89"/>
    <path id="Path_13188" data-name="Path 13188" d="M50,25h9.133v2.283H50Z" transform="translate(6.799 3.258)" fill="#3d4a89"/>
    <path id="Path_13189" data-name="Path 13189" d="M50,31h9.133v2.283H50Z" transform="translate(6.799 4.108)" fill="#3d4a89"/>
  </g>
</svg>
