<svg id="Layer_1" data-name="Layer 1" xmlns="http://www.w3.org/2000/svg" viewBox="0 0 399.47 283.84"><g id="Group_10836" data-name="Group 10836"><g id="Group_10817" data-name="Group 10817"><g id="undraw_security_o890" data-name="undraw security o890"><path id="Path_12925" data-name="Path 12925" d="M426.68,233.41c-9.26,19.1-28.06,31.87-47.54,40.29a180.75,180.75,0,0,1-83.59,13.94q-7.49-.5-14.93-1.59a188.23,188.23,0,0,1-49.92-14.54q-6.88-3.11-13.48-6.76A172.18,172.18,0,0,1,196.15,251c-1.68-1.28-3.34-2.6-5-3.94-1.13-.93-2.25-1.89-3.39-2.82a42.71,42.71,0,0,0-7.64-5.2,26.52,26.52,0,0,0-2.56-1.13c-8.74-3.32-18.81-2.07-27.91.52-6.92,2-13.67,4.67-20.58,6.6a68,68,0,0,1-9.38,2,49.93,49.93,0,0,1-21.07-1.85l-.58-.17c-1-.31-1.94-.64-2.9-1l-.58-.22c-.92-.36-1.83-.74-2.73-1.15l-.58-.27c-.92-.43-1.83-.89-2.73-1.37l-1-.52A57.17,57.17,0,0,1,74,229.81l-.35-.35c-.55-.6-1.1-1.21-1.62-1.83l-.58-.69c-.63-.76-1.23-1.54-1.81-2.34-.09-.11-.17-.23-.25-.35a50.26,50.26,0,0,1-5.87-10.62c0-.11-.09-.23-.14-.35-.46-1.2-.89-2.41-1.27-3.64-.16-.52-.31-1-.44-1.56a3.9,3.9,0,0,1-.12-.46,93.79,93.79,0,0,1-2.14-23.27v-2.74a267.39,267.39,0,0,1,2.12-38.05,2.34,2.34,0,0,1,0-.26,117.94,117.94,0,0,1,2.55-12.48,91.11,91.11,0,0,1,4.29-12.66A117.77,117.77,0,0,1,85.85,90.35c17.47-21.45,40.4-39.45,67.21-46.19A98.91,98.91,0,0,1,237.4,62.41c7.11,5.66,13.5,12.36,21.48,16.7,7,3.78,15.13,5.34,22.59,2.37,6.17-2.46,10.18-3.68,17.11-3.3A143.43,143.43,0,0,1,340.52,87l1.63.61C377.24,101,407.4,127.67,423.08,162c.42.91.82,1.82,1.21,2.74C433.62,186.53,437,212.12,426.68,233.41Z" transform="translate(-33.53 -41.36)" fill="#3d9ade" opacity="0.1" style="isolation:isolate"/><ellipse id="Ellipse_260" data-name="Ellipse 260" cx="42.24" cy="253.92" rx="30.76" ry="4.94" fill="#3d9ade" opacity="0.1" style="isolation:isolate"/><path id="Path_12938" data-name="Path 12938" d="M337,317.93a5.68,5.68,0,0,1-3.48,2,2.06,2.06,0,0,0-2,2s.35,1.13-4.47,2.69a7.07,7.07,0,0,1-5.8,0,35.79,35.79,0,0,0,9.41-2.62c.73-.73,1.64-2.73,2.25-2.76a23.22,23.22,0,0,0,3.91-2.15Z" transform="translate(-33.53 -41.36)" fill="none"/><path id="Path_12954" data-name="Path 12954" d="M335,199.2h0a8.17,8.17,0,0,1-.2,1.39c0-.13,0-.2,0-.21S334.83,199.83,335,199.2Z" transform="translate(-33.53 -41.36)" opacity="0.1" style="isolation:isolate"/><path id="Path_12957" data-name="Path 12957" d="M370.26,307.65a42,42,0,0,1,7.22,1C378.13,309.17,370.26,307.65,370.26,307.65Z" transform="translate(-33.53 -41.36)" stroke="#3d9ade" stroke-miterlimit="10" opacity="0.1" style="isolation:isolate"/><path id="Path_12958" data-name="Path 12958" d="M331.18,302.49s1.39,1.73.8,2.54S331.18,302.49,331.18,302.49Z" transform="translate(-33.53 -41.36)" stroke="#3d9ade" stroke-miterlimit="10" opacity="0.1" style="isolation:isolate"/><path id="Path_12959" data-name="Path 12959" d="M332.85,308.77s2.54-1.67,3.56-.56S332.85,308.77,332.85,308.77Z" transform="translate(-33.53 -41.36)" stroke="#3d9ade" stroke-miterlimit="10" opacity="0.1" style="isolation:isolate"/><rect id="Rectangle_2769" data-name="Rectangle 2769" x="41.25" y="159.28" width="1.98" height="44.56" fill="#535461"/><path id="Path_12976" data-name="Path 12976" d="M89.19,245.07l-.12,2-.17,2.83-.07,1.18-.17,2.84-.08,1.18-.17,2.83-2,32.22A5.45,5.45,0,0,1,81,295.27H70.58a5.45,5.45,0,0,1-5.44-5.12l-2-32.22L63,255.1l-.07-1.18-.17-2.84-.07-1.18-.17-2.83-.12-2a2.82,2.82,0,0,1,2.65-3h21.4a2.83,2.83,0,0,1,2.83,2.82,1.8,1.8,0,0,0,0,.19Z" transform="translate(-33.53 -41.36)" fill="#3f3d56"/><path id="Path_12977" data-name="Path 12977" d="M89.07,247.08l-.17,2.83H62.63l-.17-2.83Z" transform="translate(-33.53 -41.36)" fill="#9d9cb5"/><path id="Path_12978" data-name="Path 12978" d="M88.82,251.09l-.17,2.84H62.89l-.17-2.84Z" transform="translate(-33.53 -41.36)" fill="#9d9cb5"/><path id="Path_12979" data-name="Path 12979" d="M88.57,255.11l-.17,2.83H63.14L63,255.11Z" transform="translate(-33.53 -41.36)" fill="#9d9cb5"/><path id="Path_12980" data-name="Path 12980" d="M59.44,217.35a51.37,51.37,0,0,1,16.33,21.38,51.53,51.53,0,0,1-25.44-8.82A51.16,51.16,0,0,1,34,208.53,51.4,51.4,0,0,1,59.44,217.35Z" transform="translate(-33.53 -41.36)" fill="#3d9ade"/><path id="Path_12981" data-name="Path 12981" d="M34,208.53s14.42,8,19,14.63,22.71,15.57,22.71,15.57" transform="translate(-33.53 -41.36)" fill="none" stroke="#535461" stroke-miterlimit="10" stroke-width="2"/><path id="Path_12982" data-name="Path 12982" d="M66.88,200.57a28,28,0,0,1,8.89,11.64,25.38,25.38,0,0,1-22.72-16.44A27.74,27.74,0,0,1,66.88,200.57Z" transform="translate(-33.53 -41.36)" fill="#3d9ade"/><path id="Path_12983" data-name="Path 12983" d="M53.05,195.75s7.85,4.36,10.36,8,12.36,8.47,12.36,8.47" transform="translate(-33.53 -41.36)" fill="none" stroke="#535461" stroke-miterlimit="10" stroke-width="2"/><path id="Path_12984" data-name="Path 12984" d="M84.88,211.82a38.59,38.59,0,0,0-8.73,18.27,35.12,35.12,0,0,0,26.1-28.68A38.72,38.72,0,0,0,84.88,211.82Z" transform="translate(-33.53 -41.36)" fill="#3d9ade"/><path id="Path_12985" data-name="Path 12985" d="M102.25,201.41s-9.39,8.12-11.77,13.71-14.32,15-14.32,15" transform="translate(-33.53 -41.36)" fill="none" stroke="#535461" stroke-miterlimit="10" stroke-width="2"/></g><g id="undraw_personal_email_t7nw" data-name="undraw personal email t7nw"><ellipse id="Ellipse_269" data-name="Ellipse 269" cx="300.56" cy="267.35" rx="91.16" ry="9.03" fill="#e6e6e6"/><path id="Path_12989" data-name="Path 12989" d="M309,216.4l22.32,1.44,6-21.19-19.62-4.6Z" transform="translate(-33.53 -41.36)" fill="#2f2e41"/><path id="Path_12990" data-name="Path 12990" d="M278.59,244.15l-6.11,0a4.26,4.26,0,0,1-4.29-4.22,5.65,5.65,0,0,1,.05-.71h0a4.24,4.24,0,0,1,4.87-3.52,4.61,4.61,0,0,1,1.21.38l5.76,2.84,19.71,4.4,8.45-8.63,4.85,8-11.4,8.81Z" transform="translate(-33.53 -41.36)" fill="#ffb8b8"/><path id="Path_12991" data-name="Path 12991" d="M279.74,307.3l7.2,1.39c4.92-15.5,10.25-30.19,10.25-41.54A41,41,0,0,0,323,280.72l-1.11-17.16-8.31-4.43-12.72-5.87a9.6,9.6,0,0,0-3.54-.87h0a9.65,9.65,0,0,0-10,8.12Z" transform="translate(-33.53 -41.36)" fill="#ffb8b8"/><path id="Path_12992" data-name="Path 12992" d="M280.85,300.37s-.69-.29-3.45,3.31c0,0-8.81,1.64-7.35,5.61s12.78,3.85,13.85,3.24,9.64-.59,9.05-3.29-4-5.72-4-5.72-1.56,3.18-4,3.19c-3.26,0-4.37-2.75-3.81-5.52A7.92,7.92,0,0,1,280.85,300.37Z" transform="translate(-33.53 -41.36)" fill="#2f2e41"/><path id="Path_12993" data-name="Path 12993" d="M336.25,290.93s-1.08,2.95,3.78,4.73c0,0,4.76,9,8.59,6.09s-.14-15.2-1.17-16.16-3.91-10.28-6.64-8.72-4.85,6.29-4.85,6.29,8.8,2.83,4.64,9.36A7.78,7.78,0,0,1,336.25,290.93Z" transform="translate(-33.53 -41.36)" fill="#2f2e41"/><circle id="Ellipse_271" data-name="Ellipse 271" cx="292.66" cy="162.28" r="9.07" fill="#ffb8b8"/><path id="Path_12994" data-name="Path 12994" d="M318.37,227.67h15.79l3.32-9.69c-5.76-1.76-4.42-6.76-3.32-11.63H318.37c3.06,6.1,6.86,14.74-.55,16.34Z" transform="translate(-33.53 -41.36)" fill="#ffb8b8"/><path id="Path_12995" data-name="Path 12995" d="M314.22,278.63l2.87,2.18a8.88,8.88,0,0,0,8.76,1.14h0c8.22-6.16,14.92-4.32,20.22,5,6.35-7.17,7.05-17.54,1.39-28.25l-31.43.69-6.37-1.94Z" transform="translate(-33.53 -41.36)" fill="#2f2e41"/><path id="Path_12996" data-name="Path 12996" d="M324.69,310.72h0a8,8,0,0,0,9.5-4,32.08,32.08,0,0,0,7.28-10.38,80.27,80.27,0,0,0,3.81-9.79A8.33,8.33,0,0,0,340,276l-.15,0-.4-.11a11.9,11.9,0,0,0-14.08,7.69l-5.91,16.84a8,8,0,0,0,4.92,10.23l.31.09Z" transform="translate(-33.53 -41.36)" fill="#ffb8b8"/><path id="Path_12997" data-name="Path 12997" d="M342.47,294.42s-6.92,7.76-8.31,12.19" transform="translate(-33.53 -41.36)" opacity="0.2" style="isolation:isolate"/><path id="Path_12998" data-name="Path 12998" d="M369.32,257.82l2.32,5.66a4.26,4.26,0,0,1-2.32,5.55,4.11,4.11,0,0,1-.68.21h0a4.26,4.26,0,0,1-5.08-3.22,4.44,4.44,0,0,1-.09-1.26l.5-6.41-3.24-19.94-11.15-4.63,5.62-7.47,12.41,7.31Z" transform="translate(-33.53 -41.36)" fill="#ffb8b8"/><path id="Path_12999" data-name="Path 12999" d="M313.94,258.69c8,13.37,20.75,11,34.34.55-5.73-4.28-2.22-16.62,2.77-17.45,5.15-.87,5.78-11.4,7.76-16.62l-24.1-8.86-6.51,5.12-6.51-1.52-2.67,1a9,9,0,0,0-6,8.38C318.49,237.14,322.54,245.57,313.94,258.69Z" transform="translate(-33.53 -41.36)" fill="#3d9ade"/><path id="Path_13000" data-name="Path 13000" d="M310.89,247.89s1.23-6.32,5.25-4.33,4.3-3.55,4.3-3.55l-3.18-18.42-13,13.84Z" transform="translate(-33.53 -41.36)" fill="#3d9ade"/><path id="Path_13001" data-name="Path 13001" d="M317.72,192a8.15,8.15,0,0,0-4.66,7.84,10.8,10.8,0,0,0,.44,3,8.68,8.68,0,0,1-1.41,6.83,63.92,63.92,0,0,0-3.5,6.59h0l5.2.45.78-8.61A42.51,42.51,0,0,1,317.52,196l0-.08a8.34,8.34,0,0,0,6.94,3.95l-1.68-1.56a57.84,57.84,0,0,0,8.78,2.49A2,2,0,0,1,332.8,204l-.06.06c-1.87,2-5.58,6.68-3.18,10.15s.49,4.51.49,4.51l3.48-2.07,1.58-1,.05,1.29,8.37-1.28s2.25-.41-2.8-5.72a5.79,5.79,0,0,1-.87-4,9.32,9.32,0,0,0,.19-4.36C338.73,195.57,334,183.68,317.72,192Z" transform="translate(-33.53 -41.36)" fill="#2f2e41"/><path id="Path_33" data-name="Path 33" d="M152.35,123.42h1.37V86a21.65,21.65,0,0,1,21.65-21.65h79.24A21.65,21.65,0,0,1,276.26,86h0V291.21a21.65,21.65,0,0,1-21.65,21.65H175.37a21.65,21.65,0,0,1-21.65-21.65h0V150h-1.37Z" transform="translate(-33.53 -41.36)" fill="#3f3d56"/><path id="Path_34" data-name="Path 34" d="M174.49,70h10.34a7.69,7.69,0,0,0,7.11,10.58h45.39A7.67,7.67,0,0,0,245,72.89a7.56,7.56,0,0,0-.57-2.89h9.66a16.17,16.17,0,0,1,16.17,16.17h0V291.06a16.17,16.17,0,0,1-16.17,16.17H174.48a16.17,16.17,0,0,1-16.17-16.17h0V86.17A16.19,16.19,0,0,1,174.49,70Z" transform="translate(-33.53 -41.36)" fill="#fff"/><circle id="Ellipse_7" data-name="Ellipse 7" cx="180.64" cy="245.54" r="8.88" fill="#e6e6e6"/><path id="Path_13002" data-name="Path 13002" d="M250.18,204.8a1.75,1.75,0,0,1,0,3.47H178.43a1.75,1.75,0,0,1,0-3.47Z" transform="translate(-33.53 -41.36)" fill="#e6e6e6"/><path id="Path_13003" data-name="Path 13003" d="M250.18,245.77a1.75,1.75,0,0,1,0,3.47H178.43a1.75,1.75,0,0,1,0-3.47Z" transform="translate(-33.53 -41.36)" fill="#e6e6e6"/><path id="Path_13004" data-name="Path 13004" d="M250.18,215.22a1.75,1.75,0,0,1,0,3.47H219.31a1.75,1.75,0,0,1,0-3.47Z" transform="translate(-33.53 -41.36)" fill="#e6e6e6"/><path id="Path_13005" data-name="Path 13005" d="M250.18,225.16a1.75,1.75,0,0,1,0,3.47H178.43a1.75,1.75,0,0,1,0-3.47Z" transform="translate(-33.53 -41.36)" fill="#e6e6e6"/><path id="Path_13006" data-name="Path 13006" d="M250.18,235.58a1.75,1.75,0,0,1,0,3.47H219.31a1.75,1.75,0,0,1,0-3.47Z" transform="translate(-33.53 -41.36)" fill="#e6e6e6"/><path id="Path_13008" data-name="Path 13008" d="M201.49,166.35a1.26,1.26,0,0,1,0-2.52h25.63a1.26,1.26,0,0,1,0,2.52Z" transform="translate(-33.53 -41.36)" fill="#fff"/><path id="Path_13009" data-name="Path 13009" d="M201.49,158.9a1.26,1.26,0,0,1,0-2.52h25.63a1.26,1.26,0,1,1,0,2.52Z" transform="translate(-33.53 -41.36)" fill="#fff"/><path id="Path_13010" data-name="Path 13010" d="M214.3,135.29a8,8,0,1,0,7.95,8h0A7.94,7.94,0,0,0,214.3,135.29Z" transform="translate(-33.53 -41.36)" fill="#fff"/></g><path id="Path_13011" data-name="Path 13011" d="M232.69,139.91H229v-7.19a14.79,14.79,0,0,0-29.57-.45v7.64h-3.7a6.18,6.18,0,0,0-6.16,6.16v29.57a6.18,6.18,0,0,0,6.16,6.16h37a6.18,6.18,0,0,0,6.16-6.16V146.07A6.19,6.19,0,0,0,232.69,139.91Zm-16.33,19.22v10.59a2.22,2.22,0,0,1-2.05,2.22,2.17,2.17,0,0,1-2.25-2.07V159.13a4.92,4.92,0,1,1,6.58-2.27,4.87,4.87,0,0,1-2.28,2.27Zm8.33-19.22h-21v-7.39a10.47,10.47,0,1,1,20.94,0Z" transform="translate(-33.53 -41.36)" fill="#3d9ade"/></g></g></svg>