<svg xmlns="http://www.w3.org/2000/svg" viewBox="0 0 20 26"><defs><style>.cls-1{stroke:#000;stroke-miterlimit:10;stroke-width:0.5px;}</style></defs><title>Report</title><g id="Layer_1" data-name="Layer 1"><path d="M6,3V29H26V9.59l-.28-.31-6-6L19.41,3ZM8,5H18v6h6V27H8ZM20,6.44,22.56,9H20ZM9.57,19.36v1.23H16V19.36Zm0,2.52v1.23H16V21.88Z" transform="translate(-6 -3)"/></g><g id="Layer_2" data-name="Layer 2"><path class="cls-1" d="M20.14,18a2.77,2.77,0,1,0,2.77,2.77A2.77,2.77,0,0,0,20.14,18Zm-.24.44h0v2.42l.06.06,1.65,1.66a2.31,2.31,0,0,1-1.5.54,2.35,2.35,0,0,1-.24-4.68Zm.45,0a2.33,2.33,0,0,1,2.12,2.12H20.35ZM20.66,21h1.81a2.32,2.32,0,0,1-.53,1.3Z" transform="translate(-6 -3)"/><path d="M11.86,8.11V15.5h-.61V9.34H9.4V15.5H8.78v.61h8V15.5h-.61v-4H14.32v4h-.61V8.11Zm.62.62h.61V15.5h-.61Z" transform="translate(-6 -3)"/></g></svg>